<?xml version="1.0" standalone="no"?>
<!DOCTYPE svg PUBLIC "-//W3C//DTD SVG 1.1//EN" "http://www.w3.org/Graphics/SVG/1.1/DTD/svg11.dtd" >
<svg xmlns="http://www.w3.org/2000/svg" xmlns:xlink="http://www.w3.org/1999/xlink" version="1.1">
<metadata>
Created by FontForge 20170731 at Thu Dec 10 12:59:23 2020
 By Aleksey,,,
Copyright (c) 2015 by Emil Bertell. All rights reserved.
</metadata>
<defs>
<font id="SVN-Journey" horiz-adv-x="731" >
  <font-face 
    font-family="SVN-Journey"
    font-weight="400"
    font-stretch="normal"
    units-per-em="2048"
    panose-1="0 0 0 0 0 0 0 0 0 0"
    ascent="1638"
    descent="-410"
    x-height="802"
    cap-height="1300"
    bbox="-2288 -1217.52 3874.57 2046"
    underline-thickness="102"
    underline-position="-307"
    unicode-range="U+0020-FB04"
  />
<missing-glyph horiz-adv-x="225" 
 />
    <glyph glyph-name="es" unicode="es" horiz-adv-x="1120" 
d="M811 934l-53 -168q201 -165 258 -322q69 28 170 60q4 2 12 -10q10 -15 -10 -21q-86 -27 -162 -59q26 -92 6 -178q-12 -57 -45 -103.5t-75.5 -74t-92 -45.5t-96 -18t-86.5 9q-37 10 -59 38.5t-24 65t23 79.5t76 79q80 56 211 115q-14 170 -145 287q-41 -119 -111 -271
q-85 -180 -190 -288.5t-217 -108.5q-71 0 -124 58t-70.5 158.5t16.5 236.5q25 97 67.5 170t90.5 111.5t101 59t101.5 18t89.5 -17.5t68 -42q19 -20 21.5 -54.5t-10 -77t-44 -92t-76.5 -97.5t-111.5 -95.5t-144.5 -83.5q3 -78 28.5 -126t65.5 -48q138 0 308 352
q61 130 106 266l-4 4q-59 42 -64.5 118t41.5 112q25 20 63.5 21t64.5 -8zM199 430q-20 -72 -23 -141q72 37 127.5 90t85 105t44.5 101.5t13 85t-16 50.5q-15 15 -32.5 20t-42 -6.5t-48.5 -43t-53 -98.5t-55 -163zM856 262q8 36 8 84q-116 -53 -172 -94q-41 -30 -62.5 -63.5
t-21.5 -60t15.5 -46t44.5 -25.5q61 -13 114 48.5t74 156.5z" />
    <glyph glyph-name="ff" unicode="ff" horiz-adv-x="729" 
d="M168 926q47 126 108.5 220.5t123 145t123 71t113.5 9t91 -50.5q20 -24 31 -45q61 57 125 80t116.5 13t90.5 -48q31 -31 41.5 -73.5t0 -88.5t-51.5 -94t-109 -84q-51 -27 -72 4.5t-14 91.5q6 53 39 102l2 3q103 -71 147 2q33 61 -12 106q-31 31 -64 36.5t-68.5 -16
t-71 -69.5t-72.5 -127.5t-72 -187.5h69q68 0 68 -11l-2 -4q-15 -18 -96 -18h-50q-5 -16 -34 -125q-13 -53 -63.5 -264.5t-106.5 -435.5q-29 -114 -71 -206t-88 -151t-96.5 -100t-98 -58t-91 -19.5t-77.5 9t-56 33.5q-18 18 -29 47q-63 -56 -131.5 -78t-120 -12.5t-83.5 41.5
q-30 31 -40.5 75t0 92t52 97.5t108.5 85.5q50 27 71.5 -5t14.5 -91q-3 -24 -13 -50.5t-19 -41.5l-9 -15q-53 37 -88 37.5t-59 -37.5q-18 -33 -13.5 -64t25.5 -52q26 -26 57.5 -30t70 21t77 79t80 154.5t76.5 236.5q51 193 101.5 408t70.5 292q16 58 39 127h-39q-45 0 -43 14
q1 10 24 19h68zM492 766q19 72 38 127h-200q-26 -85 -35 -125q-16 -60 -66.5 -271.5t-105.5 -428.5q-60 -237 -170 -377q-7 -58 18 -86q61 -61 137 2q118 98 214 459q49 188 98.5 401.5t71.5 298.5zM676 1280q-31 30 -63 36.5t-66 -13.5t-68 -66.5t-69.5 -125t-69.5 -185.5
h201q52 139 133 256q33 67 2 98z" />
    <glyph glyph-name="fi" unicode="fi" horiz-adv-x="716" 
d="M127 795q44 157 107.5 276.5t129 184t132.5 94.5t123.5 21t97.5 -50q43 -43 54 -110.5t-15 -133.5q-60 -142 -150 -166q-57 -17 -90 23t-24 115q3 25 10.5 47.5t15.5 38t15.5 26.5t12.5 16.5t5 4.5q44 -41 84 -38.5t63 40.5q15 28 11.5 57.5t-23.5 48.5q-90 92 -191 -32
q-104 -129 -194 -463h180q21 0 29 -2q54 -7 97.5 -34t35.5 -61q-1 -5 -88 -344q-64 -254 -26 -282q23 -17 75 69q62 99 146 301q31 70 42 71q6 0 7 -21q0 -23 -31 -93q-44 -108 -70 -162t-71 -126q-64 -102 -141 -115q-70 -12 -108 59q-55 105 1 318q82 316 92 389h-178
q-17 -62 -66.5 -272t-103.5 -422q-40 -158 -102.5 -272.5t-128 -170.5t-132.5 -79.5t-119.5 -13.5t-84.5 42q-30 31 -40.5 75t-0.5 92t51 97.5t108 85.5q51 27 73 -4.5t15 -91.5q-3 -24 -13 -50.5t-19 -41.5l-9 -15q-53 37 -88 37.5t-59 -37.5q-18 -33 -14 -64t26 -52
q26 -26 57.5 -30t70 21t77 79t80 154.5t76.5 236.5q51 195 101.5 410t68.5 286h-29q-44 0 -42 14q1 10 24 19h57z" />
    <glyph glyph-name="fl" unicode="fl" horiz-adv-x="745" 
d="M119 766l37 127h-76q-45 0 -43 14q1 10 24 19h105q37 112 77.5 196t79.5 132.5t76 78t72.5 37.5t62.5 6.5t54 -10.5q26 -9 56.5 -35t53.5 -59l62 26q46 22 52 6q6 -18 -17 -98q-45 -162 -230 -948q-31 -130 5 -155q23 -16 54 23q6 7 11 15q26 40 49 85t38.5 81.5
t57.5 134.5q31 70 41 71q6 0 6 -21q0 -30 -28 -93q-43 -103 -69.5 -157.5t-72.5 -130.5q-58 -93 -132 -109q-72 -16 -111 53q-61 105 -4 338q51 198 182 772q0 5 2 9q32 141 -23 153q-16 3 -30.5 -1t-37.5 -27t-46.5 -65t-54.5 -120.5t-64 -187.5h31q67 0 67 -11q0 -2 -2 -4
q-15 -18 -98 -18h-6q-12 -41 -35 -125q-13 -53 -63.5 -264.5t-106.5 -435.5q-29 -114 -70.5 -206.5t-86.5 -151.5t-94 -100.5t-95.5 -58.5t-89 -20t-76 9t-55.5 34q-42 42 -48 103.5t35.5 130.5t130.5 116q51 27 72 -4.5t14 -91.5q-3 -24 -13 -50.5t-19 -41.5l-9 -15
q-102 74 -147 0q-17 -33 -13 -64t25 -52q26 -26 57.5 -30t70 21t77.5 79t80.5 154.5t77.5 236.5q49 188 98.5 401.5t71.5 298.5z" />
    <glyph glyph-name="ffi" unicode="ffi" horiz-adv-x="1091" 
d="M676 795h180h14q2 0 7.5 -1t7.5 -1q3 0 7.5 -1t6.5 -1q50 -10 88 -36t31 -57q-1 -5 -88 -344q-64 -254 -26 -282q23 -17 75 69q59 94 145 301q31 70 43 71q6 0 7 -21q0 -23 -31 -93q-43 -106 -69.5 -160.5t-72.5 -127.5q-64 -102 -141 -115q-70 -12 -107 59
q-55 105 1 318q82 316 92 389h-178q-17 -62 -66.5 -272t-103.5 -422q-40 -157 -103.5 -272t-131 -171t-136 -79.5t-122 -13.5t-85.5 42q-13 13 -31 49q-63 -56 -131 -78t-119 -12.5t-83 41.5q-30 31 -40.5 75t0 92t52 97.5t108.5 85.5q50 27 71.5 -5t14.5 -91
q-3 -24 -13 -50.5t-19 -41.5l-9 -15q-53 37 -88 37.5t-59 -37.5q-18 -33 -13.5 -64t25.5 -52q26 -26 57.5 -30t70 21t77 79t80 154.5t76.5 236.5q51 195 101.5 410t68.5 286h-51q-45 0 -44 14q0 10 23 19h82q44 159 107.5 279t130.5 185t135 94.5t126.5 19.5t100.5 -52
q18 -21 33 -45q62 57 125.5 80t115.5 13t91 -48q43 -43 53.5 -110.5t-15.5 -133.5q-60 -143 -149 -166q-57 -17 -90.5 23t-24.5 115q3 25 10.5 47.5t16 38t16 26.5t12.5 16.5t5 4.5q44 -41 84 -38.5t63 40.5q15 28 11.5 57.5t-23.5 48.5q-90 92 -191 -32
q-104 -129 -194 -463zM123 68q-66 -258 -189 -398q0 -38 27 -65q26 -26 57.5 -30t70 21t77 79t80 154.5t76.5 236.5q51 195 101.5 410t68.5 286h-199q-17 -62 -66.5 -272t-103.5 -422zM502 795q63 229 168 379q36 74 6 106q-105 105 -214 -68q-84 -132 -161 -417h201z" />
    <glyph glyph-name="ffl" unicode="ffl" horiz-adv-x="1122" 
d="M786 393q60 234 183 772q0 5 2 9q32 141 -23 153q-16 3 -30.5 -1t-37.5 -27t-46.5 -65t-54.5 -120.5t-64 -187.5h71q33 0 43 -2q26 -3 24 -11q0 -1 -1 -2q-15 -18 -98 -18h-47q-13 -41 -35 -125q-16 -60 -66.5 -271.5t-105.5 -428.5q-40 -158 -102.5 -272.5
t-128.5 -170.5t-133 -79.5t-119.5 -13.5t-84.5 42q-29 33 -36 51q-64 -57 -132.5 -79.5t-120 -13t-83.5 41.5q-42 42 -48 103.5t35.5 130.5t130.5 116q51 27 72 -4.5t14 -91.5q-3 -24 -13 -50.5t-19 -41.5l-8 -15q-103 74 -148 0q-17 -33 -13 -64t25 -52q26 -26 57.5 -30
t70 21t77.5 79t80.5 154.5t77.5 236.5q49 188 98.5 401.5t71.5 298.5q16 58 39 127h-78q-46 0 -45 14q1 10 24 19h109q47 126 108.5 220.5t123 145t123 71t113.5 9t91 -50.5l12 -16q103 101 224 61q26 -9 56.5 -35t53.5 -59l60 26q25 12 37 14t16 -9t-0.5 -32t-16.5 -65
q-39 -140 -229 -948q-31 -130 5 -155q23 -16 54 23q6 7 11 15q26 40 49 85t38.5 81.5t57.5 134.5q31 70 41 71q6 0 6 -21q0 -23 -28 -93q-43 -104 -70 -158t-74 -130q-57 -93 -131 -109q-71 -16 -111 53q-61 105 -4 338zM496 766l36 127h-200q-26 -85 -35 -125
q-13 -53 -63.5 -264.5t-106.5 -435.5q-68 -264 -195 -404q5 -30 31 -59q26 -26 57.5 -30t70 21t77 79t80 154.5t76.5 236.5q51 193 101.5 408t70.5 292zM678 1280q-31 30 -63 36.5t-66 -13.5t-68 -66.5t-69.5 -125t-69.5 -185.5h201q70 211 149 319q-4 22 -14 35z" />
    <glyph glyph-name="fj" unicode="fj" horiz-adv-x="675" 
d="M127 795q44 157 107.5 276.5t129 184t132.5 94.5t123.5 21t97.5 -50q43 -43 56 -116.5t-13 -139.5q-24 -58 -69.5 -102.5t-94.5 -51.5q-59 -9 -85.5 27t-16.5 111q3 25 10 47.5t14.5 38t15.5 26.5t13 16.5t6 4.5q44 -41 83 -38.5t62 40.5q15 28 12 57.5t-22 48.5
q-89 90 -188 -27q-107 -127 -199 -468h201q83 -3 122 -27t27 -68q-2 -8 -9.5 -40.5t-19 -80t-46.5 -182t-87 -329.5q-42 -157 -105.5 -271.5t-129 -170.5t-131.5 -79.5t-118 -14t-83 41.5q-26 26 -37 45q-62 -55 -129 -75.5t-117.5 -10.5t-82.5 41q-30 31 -40.5 75t0 92
t52 97.5t108.5 85.5q50 27 71.5 -5t14.5 -91q-3 -24 -13 -50.5t-19 -41.5l-9 -15q-53 37 -88 37.5t-59 -37.5q-18 -33 -13.5 -64t25.5 -52q26 -26 57.5 -30t70 21t77 79t80 154.5t76.5 236.5q51 195 101.5 410t68.5 286h-27q-46 0 -44 14q1 10 24 19h57zM313 66
q145 559 164 696h-184q-14 -56 -64 -266t-104 -428q-66 -261 -199 -408q2 -29 25 -55q26 -26 57 -30t69.5 21t77.5 79t80.5 154.5t77.5 236.5z" />
    <glyph glyph-name="ft" unicode="ft" horiz-adv-x="698" 
d="M119 768q5 19 37 125h-35q-44 0 -43 14q0 10 22 19h68q47 125 107.5 218.5t121 143.5t120.5 71t111.5 10t88.5 -48q42 -42 43.5 -108t-47.5 -136q-17 -71 -39 -151h80q67 0 67 -9q0 -2 -2 -4q-14 -20 -96 -20h-57q-62 -252 -148 -633q-30 -136 8 -157q23 -13 54 27
q4 5 8 11q26 41 49.5 87.5t38 79.5t57.5 134q31 71 41 72q6 -1 6 -20q0 -22 -28 -95q-43 -104 -70 -158t-74 -130q-57 -93 -131 -109q-71 -15 -111 53q-61 106 -4 338q13 52 117 500h-149q-26 -85 -35 -123q-16 -60 -66 -271t-106 -431q-29 -114 -70 -206.5t-85.5 -151.5
t-93.5 -100t-95.5 -58t-89.5 -20t-77 8.5t-56 33.5q-30 31 -40.5 75t0 92.5t52 98t108.5 86.5q50 27 71.5 -5t14.5 -91q-3 -24 -13 -50.5t-19 -41.5l-9 -14q-52 37 -88 36.5t-59 -39.5q-18 -33 -13.5 -64t25.5 -52q26 -26 57.5 -29.5t70 21.5t77 79t80 154t76.5 236
q52 195 102.5 411.5t69.5 290.5zM688 1292q-31 30 -64.5 35.5t-69 -16t-71 -69.5t-72 -128t-71.5 -188h147q17 68 27 118l6 33q4 24 13.5 50.5t16.5 41.5l7 15q46 -39 82.5 -37.5t58.5 39.5q34 58 -10 106z" />
    <glyph glyph-name="Li" unicode="Li" horiz-adv-x="1064" 
d="M1126 -504q-167 -27 -363 102.5t-362 399.5q-87 -112 -204 -133q-57 -10 -106 5.5t-75 47t-32.5 73.5t22.5 85q43 71 139.5 106.5t184.5 12.5q54 175 133 464q49 181 110.5 314t121.5 204.5t122 102.5t115 20.5t96 -53.5q57 -57 68.5 -139.5t-25.5 -153.5t-110 -96
q-52 -19 -88.5 16.5t-30.5 104.5q8 73 44 126l3 3q38 -41 78 -39.5t55 43.5q20 62 -23 105q-105 105 -210 -94q-78 -149 -168 -486q-33 -119 -81 -282t-59 -203q-12 -40 -20 -58q48 -85 113 -156t131.5 -117.5t135.5 -79t127.5 -46t106.5 -12.5q77 1 130.5 45.5t71 106.5
t1.5 122q-5 18 4 16q14 -2 29 -26l6 -13q15 -49 18 -104t-8 -110.5t-34.5 -102t-66.5 -79.5t-100 -42zM823 793q30 4 71.5 -7t72.5 -35.5t24 -52.5q-6 -29 -34 -135t-54 -211q-64 -255 -26 -280q23 -16 74 67q0 1 1 2q61 98 146 299q31 71 41 72q6 1 6 -20q0 -28 -29 -93
q-44 -109 -70.5 -163t-72.5 -127q-63 -100 -139 -113q-69 -12 -107 57q-57 105 0 320q102 388 96 420zM201 -25q71 38 106 148q-66 37 -135.5 21.5t-101.5 -62.5q-26 -40 -12 -75.5t53.5 -43.5t89.5 12z" />
    <glyph glyph-name="Zy" unicode="Zy" horiz-adv-x="1638" 
d="M1096 838q51 7 113 -17t61 -67q-1 -19 -7 -44t-13 -51t-27 -94.5t-39 -136.5q-85 -314 -55 -315q18 2 75 88q66 96 155 280t120 299l8 60q50 7 116 -24t54 -73q-1 -3 -13.5 -60t-52 -213.5t-106.5 -406.5q-28 -104 -67.5 -190.5t-83 -144.5t-90.5 -98t-92.5 -56
t-87.5 -13.5t-77 25.5q-14 -65 -52.5 -106t-98.5 -47q-152 -15 -256 117.5t-183 447.5q-107 -76 -184 -84q-61 -6 -108.5 13.5t-71 56t-31.5 83.5t10 95q23 68 75.5 111.5t114 53.5t127 -21t111.5 -103q115 152 242 413q113 230 227.5 350t239.5 144q-622 229 -733 -168
q-90 -319 76 -446q52 -42 36 -50q-3 -2 -10 0q-29 7 -74 43q-28 21 -44.5 34t-45 37.5t-45.5 45t-39.5 49.5t-34 58t-20.5 63t-8.5 72.5t10.5 79.5q13 54 39.5 102.5t71.5 93.5t104 77.5t142 50.5t181 16.5t225.5 -28.5t270.5 -81q2 -3 4 -7.5t6 -17t4.5 -22t-6 -18
t-20.5 -9.5q-26 -5 -49 -14.5t-42.5 -20t-40.5 -32t-37.5 -39.5t-39 -55t-39 -64.5t-44.5 -83t-48 -96t-57 -115.5q-69 -140 -160 -267.5t-188 -219.5l6 -17q61 -239 124.5 -337t172.5 -97q75 2 107 52t19 112t-57 105q-20 19 2 18q27 -1 43 -16q43 -37 66 -107.5t18 -144.5
q97 -80 193 88q65 114 121 327q49 185 121 488q-90 -204 -205 -383q-74 -119 -149 -162q-80 -46 -108 31q-38 106 40 411q38 150 60 248t25 121zM229 23q58 10 131 83q-31 67 -76 103.5t-85.5 38.5t-74.5 -20.5t-48 -63.5q-23 -71 23 -114.5t130 -26.5z" />
    <glyph glyph-name="os" unicode="os" horiz-adv-x="1296" 
d="M756 569q38 86 51 121l-12 10q-38 27 -54 73t-7 89.5t38 67.5q25 20 63.5 21t64.5 -8l26 -9q-17 -68 -54 -168q210 -171 265 -336q152 52 225 74q6 2 13 -10q10 -15 -9 -21l-221 -74q19 -84 2 -163q-12 -57 -45 -103.5t-75.5 -74t-92 -45.5t-96 -18t-86.5 9
q-37 10 -58.5 38.5t-23.5 65t23 79.5t75 79q69 49 211 107q-7 168 -143 293q-15 -38 -48 -109q-87 -191 -213 -270q-57 -138 -156.5 -213.5t-225.5 -65.5q-120 11 -167.5 132.5t-0.5 301.5q18 69 44.5 125.5t56.5 95t64.5 67t69 43.5t70 22.5t66 7t59.5 -7.5
q110 -29 110 -142q41 -40 52.5 -110t-11.5 -164q-4 -18 -8 -29q93 81 158 219zM223 66q35 0 80.5 48t85.5 138q-30 11 -45 22q-58 38 -74 110.5t5 140.5t73 119.5t117 51.5q31 0 55 -12q-22 68 -94 82q-55 11 -115.5 -78t-109.5 -266q-39 -149 -32.5 -252.5t54.5 -103.5z
M365 315q15 -13 41 -20l30 86q81 262 6 262q-49 0 -84 -42t-45.5 -96.5t2.5 -110t50 -79.5zM971 262q8 46 8 74q-122 -48 -170 -84q-41 -30 -63 -63.5t-23 -60t15 -46t46 -25.5q59 -13 112.5 48.5t74.5 156.5z" />
    <glyph glyph-name="oz" unicode="oz" horiz-adv-x="1310" 
d="M1143 -76q-33 -111 -114.5 -218.5t-184.5 -169.5t-185 -40q-89 22 -90 109.5t99 212.5q77 96 272 276q-72 26 -235 -82l-3 -2q-3 0 -8.5 0.5t-16.5 3t-16.5 7.5t-3.5 16t17 26q190 190 326.5 383t136.5 308q-9 -6 -27.5 -15t-79.5 -26t-129 -21q-62 -144 -137 -260
q-90 -135 -203 -180q-58 -121 -154.5 -187t-213.5 -57q-120 11 -167.5 132.5t-0.5 301.5q18 69 44.5 125.5t56.5 95t64.5 67t69 43.5t70 22.5t66 7t59.5 -7.5q110 -29 110 -142q41 -40 52.5 -110t-11.5 -164q-18 -62 -24 -76q80 39 145 143q76 127 125 246
q-85 3 -124.5 32.5t-16.5 72.5q18 37 82 59t119 27t55 2q-20 -80 -43 -135q52 5 117.5 23t121.5 40t104.5 43.5t76.5 35.5l28 13q0 -78 -40 -169.5t-114 -190t-159.5 -191.5t-196.5 -198q98 43 182 37q36 33 99.5 89.5t99.5 88.5t77 70t66 63q1 2 10.5 -0.5t14 -8
t-3.5 -14.5q-51 -51 -313 -301q109 -45 49 -256zM969 -78q24 101 2 144q-183 -172 -250 -252q-40 -46 -64 -88t-30.5 -73.5t-1.5 -56.5t20 -39t37 -18q42 -8 90 33.5t87 107t68 130.5t42 112zM223 66q35 0 81.5 50t86.5 144q-24 12 -49 37q-50 49 -64 119t5 131.5t68 105
t114 43.5q31 0 55 -12q-22 68 -94 82q-55 11 -115.5 -78t-109.5 -266q-39 -149 -32.5 -252.5t54.5 -103.5zM367 334q19 -19 43 -31q22 62 26 78q81 262 6 262q-65 0 -100 -60t-27.5 -134.5t52.5 -114.5z" />
    <glyph glyph-name="Aj" unicode="Aj" horiz-adv-x="1579" 
d="M1280 45q-42 -157 -105.5 -271.5t-129 -170.5t-131.5 -79.5t-118 -14t-83 41.5q-42 42 -48 103.5t35.5 131t130.5 116.5q51 27 72.5 -5t14.5 -92q-6 -53 -39 -101l-2 -3q-104 72 -146 -2q-18 -33 -14.5 -64.5t24.5 -52.5q26 -26 57.5 -29.5t70 21.5t77 79t80.5 154
t78 236q8 33 25.5 100.5t25.5 100.5q-27 -54 -82 -140q-38 -60 -80 -94t-78.5 -36t-65 21.5t-43 81t-9.5 140.5h-367q-185 -282 -336 -201q-45 25 -62 75t-5 103.5t56 104.5t112 78q60 23 83 -6t15 -92q-3 -26 -15.5 -53t-23 -40.5t-12.5 -13.5q-107 77 -154 -4
q-18 -32 -8.5 -67.5t39.5 -47.5q49 -22 112 22t152 179q90 138 336.5 533.5t322.5 512.5q50 7 117 -22.5t55 -71.5q-8 -24 -18.5 -62.5t-18 -71t-26 -111.5t-31.5 -132q-12 -47 -53.5 -208t-67.5 -271q-60 -263 -22 -288q24 -15 76 73q34 57 51.5 88.5t47.5 97.5t56 140
q0 1 1 4t1 4q31 130 47.5 211.5t17.5 97.5l1 17q30 3 72.5 -8.5t73.5 -36t24 -52.5q-1 -3 -12 -53t-49 -200t-105 -400zM942 848q58 223 78 326l-561 -910h342q6 46 18 105q32 148 123 479zM1544 963q-22 -37 -72.5 -51t-97.5 3t-65.5 57t4.5 77q22 36 72.5 49.5t97.5 -4.5
q47 -15 65.5 -54.5t-4.5 -76.5z" />
    <glyph glyph-name="ss" unicode="ss" horiz-adv-x="1048" 
d="M688 766q203 -170 258 -322q66 28 168 60q6 2 13 -10q10 -15 -9 -21q-86 -27 -162 -59q25 -88 7 -178q-20 -93 -86.5 -157t-144.5 -84t-144 -1q-37 10 -62.5 40.5t-31.5 68.5t16 83t72 80q82 57 213 115q-14 167 -150 289q-58 -96 -199 -205q48 -112 25 -229
q-20 -93 -86.5 -157t-144.5 -84t-144 -1q-37 10 -62.5 40.5t-31.5 68.5t16 83t72 80q21 14 93.5 58.5t117.5 74.5q-17 152 -143 267q-52 -143 -131 -332q-26 -65 -45 -84q-23 -22 -21 -2q2 18 23 69q88 208 145 373l-12 10q-58 42 -63 118t42 112q25 20 63.5 21t64.5 -8
l26 -9l-55 -166l2 -2q175 -147 237 -274q138 108 187 198l-13 10q-58 42 -62.5 118t42.5 112q25 20 63.5 21t64.5 -8l25 -9q-20 -62 -57 -166zM295 262q11 55 8 100q-28 -18 -67.5 -43.5t-66 -43t-42.5 -29.5q-43 -30 -62.5 -65.5t-16.5 -64.5t23.5 -51t53.5 -28
q57 -13 102 55t68 170zM786 262q9 38 9 82q-121 -57 -177 -98q-43 -30 -62.5 -65.5t-16.5 -64.5t23.5 -51t53.5 -28q57 -13 102 55t68 170z" />
    <glyph glyph-name="Ci" unicode="Ci" horiz-adv-x="1134" 
d="M893 795q30 3 72 -8.5t73 -36t25 -52.5l-90 -344q-65 -257 -26 -282q25 -15 77 69q55 92 145 301q32 77 43 70q5 -2 5 -20q0 -23 -31 -93q-43 -106 -69.5 -160.5t-72.5 -127.5q-37 -58 -80.5 -88.5t-81 -28t-68 31.5t-41 91t0.5 151q-78 -139 -202.5 -225t-264.5 -86
q-85 0 -151.5 43.5t-107.5 131.5t-42.5 219.5t43.5 307.5q36 138 89.5 249.5t112 182.5t123 120t126 69t117.5 22.5t99.5 -12.5t71.5 -43q39 -39 44 -115t-32.5 -160t-109.5 -134q-46 -33 -78 -1t-28 109q2 36 13 69t20.5 48.5t11.5 15.5q51 -27 94 -17t57 52q20 63 -20 103
q-24 24 -56.5 32.5t-71.5 -1.5t-81 -36.5t-86.5 -77t-86 -118.5t-81.5 -165t-72 -212q-53 -199 -41.5 -333t63 -202.5t130.5 -68.5q123 0 236.5 95t185.5 269l12 31q39 149 59.5 240.5t21.5 107.5zM1159 963q-23 -37 -73 -49.5t-97 4.5q-47 15 -66 54.5t3 76.5
q23 37 74 50.5t98 -3.5q48 -17 66 -56t-5 -77z" />
    <glyph glyph-name="ozs" unicode="ozs" horiz-adv-x="1888" 
d="M1122 -74q-25 -83 -76.5 -167t-115 -147.5t-136.5 -96.5t-135 -17q-89 22 -90 109.5t99 212.5q54 66 272 280q-53 6 -128 -29t-107 -59h-3q-3 0 -8.5 0.5t-16.5 3.5t-16.5 8t-3.5 16t17 26q92 92 171 180.5t152.5 184t116.5 181t43 144.5q-11 -6 -32.5 -15t-88.5 -26
t-135 -21q-62 -144 -137 -260q-104 -151 -225 -186q-56 -120 -143.5 -183.5t-202.5 -54.5q-118 10 -157.5 132t9.5 302q21 80 51.5 143.5t65 102t73.5 66t76.5 36.5t75 12t68.5 -7q113 -29 110 -148q33 -41 39 -109.5t-18 -158.5q-11 -43 -27 -86q95 33 168 154
q80 128 125 245q-66 3 -96 34t-4 71q21 32 74.5 54t97 29.5t43.5 4.5q-20 -80 -43 -135q51 5 114.5 23t116.5 40t99 43.5t72 35.5l26 13q0 -275 -490 -747q100 40 172 35q331 331 432 512l-18 16q-57 45 -53 107.5t53 101.5q30 19 59.5 16t51.5 -16l22 -14q-18 -58 -53 -152
q0 -6 -2 -12l-2 -2l4 -4q192 -157 244 -306q126 48 182 64q6 2 13 -10q10 -15 -9 -21q-95 -31 -178 -65q21 -78 2 -172q-20 -94 -81.5 -157.5t-134.5 -83.5t-139 -1q-37 10 -62.5 40.5t-31.5 68.5t16 83t72 80q82 59 230 123q-24 169 -158 295q-100 -178 -414 -504
q103 -47 43 -256zM989 -76q31 114 -8 156q-212 -209 -260 -264q-40 -46 -64 -88t-30.5 -73.5t-1.5 -56.5t20 -39t37 -18q55 -11 124 63t117.5 165t65.5 155zM223 68q36 0 87.5 48.5t95.5 137.5q-34 15 -64 45q-50 49 -64 119t5 131.5t68 105t114 43.5q30 0 57 -12
q-22 68 -96 82q-57 11 -127.5 -80t-118.5 -264q-19 -72 -24.5 -139t2 -114t24.5 -75t41 -28zM1647 264q9 40 6 90q-154 -75 -195 -106q-43 -30 -62.5 -65.5t-16.5 -64.5t23.5 -51t53.5 -28q59 -13 114 57.5t77 167.5zM367 336q31 -28 59 -39l31 86q25 82 30 143t-7.5 90
t-37.5 29q-65 0 -100 -60t-27.5 -134.5t52.5 -114.5z" />
    <glyph glyph-name="zs" unicode="zs" horiz-adv-x="1177" 
d="M-16 2h-3.5t-8 1t-9.5 3t-7.5 6t-3.5 9.5t5 14t16 19.5q180 180 302.5 359.5t148.5 326.5q-13 -5 -36 -13.5t-89 -21t-125 -10.5q-41 -106 -147 -362q-30 -67 -47 -84q-23 -23 -20 -2q2 19 24 69q85 205 137 383q-70 8 -100.5 33t-12.5 64q14 28 47 43t76 16.5t61 1
t39 -3.5h1h1q-7 -24 -36 -100q51 2 116 18t120 37.5t103 43.5t76 36l27 14q0 -273 -498 -756q105 45 185 33q334 334 432 512q-8 4 -21 17q-57 45 -53 107.5t53 101.5q30 19 59.5 16t51.5 -17l22 -14q-18 -59 -53 -153q0 -7 -2 -13l-2 -2l4 -2q192 -158 244 -305
q126 48 182 64q6 2 13 -10q10 -15 -9 -21q-83 -27 -178 -66q21 -78 2 -172q-20 -94 -81.5 -157t-134 -83t-138.5 -1q-37 10 -62.5 40.5t-31.5 68.5t16 83t72 80q83 60 229 123q-11 78 -51 155t-107 138q-100 -180 -411 -502q98 -50 41 -256q-25 -83 -76.5 -167t-115 -147.5
t-136.5 -96.5t-135 -17q-89 23 -90.5 109.5t98.5 211.5q73 89 272 281q-76 14 -237 -78zM279 -90q28 116 -9 156q-209 -205 -260 -265q-40 -46 -64 -88t-30.5 -73.5t-1.5 -56t20 -38.5t37 -18q42 -8 93.5 33.5t94 106.5t75.5 131t45 112zM936 250q9 40 6 90
q-148 -72 -194 -107q-56 -40 -72.5 -86.5t4.5 -80t65 -41.5q59 -13 114 57.5t77 167.5z" />
    <glyph glyph-name="ess" unicode="ess" horiz-adv-x="1609" 
d="M1249 766q203 -170 258 -322q66 28 168 60q6 2 13 -10q10 -15 -9 -21q-82 -25 -161 -59q24 -86 6 -178q-20 -93 -86.5 -157t-144.5 -84t-144 -1q-37 10 -62.5 40.5t-31.5 68.5t16 83t72 80q82 57 213 115q-14 167 -150 289q-58 -98 -198 -205q48 -111 24 -229
q-20 -93 -86.5 -157t-144.5 -84t-144 -1q-37 10 -62.5 40.5t-31.5 68.5t16 83t72 80q21 14 93.5 58.5t117.5 74.5q-17 154 -143 269q-37 -110 -111 -271q-85 -180 -190 -288.5t-217 -108.5q-71 0 -124 58t-70.5 158.5t16.5 236.5q25 97 67.5 170t90.5 111.5t101 59t101.5 18
t89.5 -17.5t68 -42q19 -20 21.5 -54.5t-10 -77t-44 -92t-76.5 -97.5t-111.5 -95.5t-144.5 -83.5q3 -78 28.5 -126t65.5 -48q138 0 308 352q68 145 104 266l-4 4q-58 42 -63 118t42 112q25 20 63.5 21t64.5 -8l26 -9q-20 -64 -57 -166l4 -2q175 -147 237 -274
q138 108 187 198l-13 10q-58 42 -62.5 118t42.5 112q25 20 63.5 21t64.5 -8l26 -9q-21 -62 -58 -166zM199 430q-20 -72 -23 -141q72 37 127.5 90t85 105t44.5 101.5t13 85t-16 50.5q-15 15 -32.5 20t-42 -6.5t-48.5 -43t-53 -98.5t-55 -163zM856 262q11 55 8 100
q-28 -18 -67.5 -43.5t-66 -43t-42.5 -29.5q-43 -30 -62.5 -65.5t-16.5 -64.5t23.5 -51t53.5 -28q57 -13 102 55t68 170zM1348 262q8 33 8 82q-119 -56 -176 -98q-43 -30 -62.5 -65.5t-16.5 -64.5t23.5 -51t53.5 -28q57 -13 102 55t68 170z" />
    <glyph glyph-name=".notdef" horiz-adv-x="225" 
 />
    <glyph glyph-name=".null" horiz-adv-x="0" 
 />
    <glyph glyph-name="nonmarkingreturn" horiz-adv-x="682" 
 />
    <glyph glyph-name="space" unicode=" " horiz-adv-x="225" 
 />
    <glyph glyph-name="exclam" unicode="!" horiz-adv-x="462" 
d="M266 45q-23 -37 -73 -51.5t-97 0.5q-47 17 -66 58.5t3 78.5q23 37 73 51.5t97 -0.5q47 -17 66.5 -58.5t-3.5 -78.5zM428 1094l-213 -822q-40 -4 -52 20.5t-5 76.5q20 144 54 373.5t58 386.5l25 157q25 6 47.5 6t46.5 -9t36 -31t16 -60.5t-13 -97.5z" />
    <glyph glyph-name="quotedbl" unicode="&#x22;" horiz-adv-x="532" 
d="M258 1239q-7 -77 -56 -206.5t-118 -225.5q-36 -53 -55 -50q-9 2 -6 19q36 140 44.5 265t-1.5 180l-9 55q32 14 79.5 19t86 -9t35.5 -47zM510 1239q-7 -76 -55.5 -205.5t-116.5 -226.5q-38 -52 -57 -50q-10 1 -5 19q22 88 34 172t13 141t-1.5 101t-6.5 65l-4 21
q32 14 79 19t85 -9t35 -47z" />
    <glyph glyph-name="numbersign" unicode="#" horiz-adv-x="993" 
d="M291 942l82 344q23 3 49.5 5.5t49.5 -9.5t38.5 -32t15 -60.5t-19.5 -95.5l-53 -152h231l82 344q23 3 49.5 5.5t49.5 -9.5t38.5 -32t15 -60.5t-19.5 -95.5l-53 -152h43q89 0 81 -14q-2 -4 -16 -10q-52 -21 -94 -21h-31l-213 -604h74q90 0 82 -13q-2 -5 -16 -10
q-44 -22 -97 -22h-57l-86 -242q-40 3 -47 29.5t6 64.5l37 148h-303l-86 -242q-40 3 -47 29.5t6 64.5l37 148h-64q-37 1 -34 17t32 28h78q84 334 150 604h-58q-25 0 -31 8.5t3.5 19t27.5 17.5h68zM436 897l-213 -604h301q84 334 150 604h-238z" />
    <glyph glyph-name="dollar" unicode="$" horiz-adv-x="749" 
d="M287 846q0 -46 38.5 -96.5t93 -98.5t109 -100.5t93 -123t38.5 -146.5q0 -81 -33 -143t-88 -97t-118.5 -51.5t-130.5 -14.5l-27 -151q-40 -5 -51 17t-6 67q5 53 8 76q-65 14 -98 36q-60 36 -91.5 103t-28.5 136t53.5 131t141.5 87q46 12 75.5 -24.5t29.5 -102.5
q0 -30 -10.5 -60t-21.5 -44l-11 -15q-40 25 -64 27q-47 8 -80 -23t-26.5 -80t61.5 -87q51 -35 109.5 -41.5t107.5 14t84 70.5t41 120q4 39 -14.5 78t-50 73t-70.5 69t-77.5 72t-70 76t-49.5 88t-14 101q9 109 80.5 182t175.5 93l31 168q25 6 47 4t42.5 -17t23.5 -48.5
t-9 -90.5l-4 -14q4 -2 13 -2q72 -15 109.5 -63.5t35 -104.5t-41 -111.5t-105.5 -83.5q-88 -39 -88 80q0 22 6 47t12 39l6 15q51 -27 97 -14.5t57 55.5q9 32 -25.5 67t-85.5 39q-98 7 -163.5 -37t-65.5 -145z" />
    <glyph glyph-name="percent" unicode="%" horiz-adv-x="1333" 
d="M967 1094l-559 -1086q-40 1 -43 27.5t16 64.5q138 329 259.5 625.5t173.5 428.5l52 132q22 5 42.5 5.5t41.5 -4t34 -18.5t19 -35.5t-3 -57.5t-33 -82zM430 1262q85 -23 140 -121.5t20 -229.5q-40 -146 -147 -234.5t-234 -78.5q-104 9 -157.5 114.5t-14.5 252.5
q18 68 47.5 121.5t63.5 86t73.5 56.5t76 30.5t71.5 9t61 -6.5zM416 911q39 129 37 220t-47 100q-45 11 -97.5 -63t-91.5 -222q-33 -124 -27 -208.5t46 -84.5t91 66.5t89 191.5zM903 39q-84 22 -139.5 119.5t-20.5 228.5q40 147 147 235t234 78q104 -9 157 -114t15 -252
q-18 -67 -47.5 -120.5t-63.5 -86t-73.5 -56t-76 -30t-71.5 -9t-61 6.5zM918 387q-39 -129 -37 -219t47 -100q45 -11 96.5 63t91.5 221q33 126 27.5 210.5t-45.5 84.5t-91 -67t-89 -193z" />
    <glyph glyph-name="ampersand" unicode="&#x26;" horiz-adv-x="1181" 
d="M563 676h-33q-227 -14 -313 -344q-36 -133 10.5 -214t149.5 -81q115 0 195 45.5t142 159t103 307.5q-282 -19 -309 -135q-15 -63 18 -115t92 -70q70 -18 35 -24q-17 0 -57 12q-72 20 -125.5 67t-50.5 113q2 67 51.5 123t139 97t227.5 60t307 11q2 -6 5 -16t7.5 -35
t2.5 -43.5t-15 -33.5t-39 -13q-143 7 -232 4q-128 -592 -567 -592q-101 0 -172.5 46.5t-99.5 134t4 214.5q37 138 146.5 224t242.5 118q-111 35 -167 121t-28 193q23 88 69.5 153.5t102.5 100.5t120 51t123.5 11t110.5 -25t83 -52q39 -39 43.5 -115t-33 -160t-109.5 -134
q-44 -30 -69 7.5t-25 106.5q1 22 8.5 53.5t14.5 52.5l8 21q51 -27 95.5 -17t58.5 52q21 63 -23 103q-55 56 -134.5 58t-155.5 -62.5t-109 -184.5q-22 -86 -21 -154.5t35 -113.5t98 -53q3 0 10 1t11 1q77 0 76 -15q-1 -11 -39 -16q-12 -4 -19 -4z" />
    <glyph glyph-name="quotesingle" unicode="'" horiz-adv-x="280" 
d="M258 1239q-7 -77 -56 -206.5t-118 -225.5q-36 -53 -55 -50q-9 2 -6 19q36 140 44.5 265t-1.5 180l-9 55q32 14 79.5 19t86 -9t35.5 -47z" />
    <glyph glyph-name="parenleft" unicode="(" horiz-adv-x="677" 
d="M426 -297q-64 -28 -134.5 -5.5t-129 89t-98.5 172.5t-42.5 245.5t39.5 307.5q28 108 72 211.5t97 188.5t111.5 157t118.5 119.5t116.5 73t107.5 20t88 -42.5q20 -19 -8 -25q-17 -4 -21 0q-95 95 -230 -91q-124 -170 -230 -488q-24 -72 -43 -143q-56 -227 -46 -406.5
t76 -280.5t156 -65q15 5 16 -10q0 -19 -16 -27z" />
    <glyph glyph-name="parenright" unicode=")" horiz-adv-x="675" 
d="M252 1266q64 28 134 5.5t128.5 -89t98 -172.5t42 -245.5t-38.5 -307.5q-28 -108 -72 -211.5t-96.5 -188.5t-111 -157t-119 -119.5t-116.5 -73t-107 -20t-88 42.5q-21 19 9 25q15 2 19 -1q95 -96 231 90q123 170 229 488q24 73 44 145q55 227 45 406.5t-75.5 280.5
t-155.5 65q-15 -5 -16 10q0 19 16 27z" />
    <glyph glyph-name="asterisk" unicode="*" horiz-adv-x="698" 
d="M371 1077q17 -31 12 -162q30 35 64 83.5t53 79.5l18 32q45 -8 66.5 -34t18 -58t-27.5 -62q-4 -5 -10.5 -11t-15.5 -11.5t-16.5 -10.5t-20 -11.5t-20 -10.5t-21.5 -10.5t-20.5 -9.5t-20.5 -9t-18 -8q39 -13 93 -22t88 -12l34 -3q-1 -69 -45 -104.5t-97 -22.5
q-40 9 -114 109q-7 -43 -8 -97.5t1 -87.5l3 -34q-70 -30 -110 -5.5t-34 81.5q2 39 90 159q-43 -14 -96.5 -39t-86.5 -43l-32 -18q-38 54 -19.5 102.5t75.5 69.5q42 16 165 -8q-20 35 -51.5 73.5t-53.5 59.5l-21 22q28 41 63.5 58t65.5 9.5t49 -34.5z" />
    <glyph glyph-name="plus" unicode="+" horiz-adv-x="567" 
d="M369 553q8 -48 -9 -139q53 4 93.5 13.5t54.5 16.5l14 7q35 -62 15.5 -108.5t-74.5 -55.5q-45 -10 -137 0q-29 -86 -64 -142q-35 -59 -45 -43q-3 4 -2 15q13 158 14 190q-99 26 -163 66q-59 37 -41 45q4 3 14 2q111 -12 192 -12q0 64 -4 112t-8 64l-4 16q62 36 103.5 21.5
t50.5 -68.5z" />
    <glyph glyph-name="comma" unicode="," horiz-adv-x="290" 
d="M172 -16v4q-85 -4 -124.5 34t-20.5 97q14 46 67 63t103 -2q44 -16 62.5 -56.5t0.5 -103.5q-23 -77 -88.5 -117t-146.5 -32q0 3 -1 10t6 14.5t21 8.5q108 14 121 80z" />
    <glyph glyph-name="hyphen" unicode="-" horiz-adv-x="647" 
d="M545 276q-68 -13 -191 25.5t-207 91.5q-61 38 -40 46q5 2 14 1q184 -16 291 -13.5t148 13.5l42 11q37 -62 17.5 -114t-74.5 -61z" />
    <glyph glyph-name="period" unicode="." horiz-adv-x="296" 
d="M264 45q-22 -37 -71.5 -51.5t-96.5 0.5q-47 17 -66.5 58.5t3.5 78.5q22 37 71.5 51.5t96.5 -0.5q47 -17 66.5 -58.5t-3.5 -78.5z" />
    <glyph glyph-name="slash" unicode="/" horiz-adv-x="684" 
d="M627 1090l-561 -1086q-28 1 -37.5 14.5t-5 31.5t17.5 46q137 329 258 626t173 430l52 132q22 4 42.5 4.5t41.5 -4t34.5 -18.5t19.5 -35.5t-2.5 -57.5t-32.5 -83z" />
    <glyph glyph-name="zero" unicode="0" horiz-adv-x="673" 
d="M236 -16q-41 6 -76.5 29t-67.5 67.5t-49 110.5t-20.5 159t16.5 213q48 290 153 409.5t257 96.5q270 -38 184 -575q-18 -117 -51.5 -210.5t-74 -151.5t-88 -94.5t-93 -48.5t-90.5 -5zM213 561q-46 -277 -34 -402t79 -134q33 -4 62.5 32t53 108.5t42.5 158.5t37 200
q28 174 31.5 291t-13 167t-49.5 50q-29 0 -53.5 -19.5t-51 -69.5t-53 -145.5t-51.5 -236.5z" />
    <glyph glyph-name="one" unicode="1" horiz-adv-x="366" 
d="M248 924q-32 -48 -83.5 -94.5t-94.5 -51.5q-33 -4 -52 14t-17 35t5 21q62 11 113 36t83.5 57.5t53 65.5t29.5 66q40 6 52 -19t5 -77q-20 -144 -58.5 -388.5t-67.5 -417.5l-28 -173q-25 -6 -47.5 -6t-46.5 9t-36 31t-16 60.5t13 97.5z" />
    <glyph glyph-name="two" unicode="2" horiz-adv-x="647" 
d="M596 678q-18 -46 -51.5 -95.5t-87.5 -106.5t-96 -98.5t-118.5 -112.5t-113.5 -107q55 19 133 -15q73 -32 143 -20.5t109 65.5q2 -1 4.5 -2.5t9.5 -7.5t13.5 -12.5t13 -18t9.5 -23.5t2 -29.5t-7 -35.5q-27 -75 -98 -90.5t-152 29.5q-21 11 -63 40.5t-68.5 44.5t-65 15.5
t-73.5 -28.5l-4 -4q-37 -40 -50 -20q-9 12 1 24q377 418 434 608q44 160 5.5 238.5t-144.5 78.5q-85 0 -133 -59t-56 -158q-3 -41 -13 -37q-13 5 -18 47q-1 13 0 25q3 42 24.5 86.5t56.5 84t90 64.5t118 25q101 1 173 -47.5t95 -136.5t-22 -211z" />
    <glyph glyph-name="three" unicode="3" horiz-adv-x="708" 
d="M670 741q-29 -71 -92 -119t-148 -69q280 -67 242 -283q-22 -118 -97 -197.5t-165 -104.5t-181 -9.5t-147 72.5q-49 49 -59.5 128.5t25 163.5t112.5 136q32 19 60 17.5t48 -34.5t21 -88q0 -43 -17 -76.5t-34 -45.5l-17 -13q-51 27 -94.5 17t-58.5 -52q-10 -29 5.5 -66
t37.5 -57q40 -36 93.5 -42t105.5 16t97.5 78.5t67.5 136.5q18 62 13.5 109t-20 80t-44.5 55t-59.5 33t-65.5 14h-2q-17 0 -23 2q-50 4 -49 21q0 11 15 15l6 1q188 -18 241 159q31 107 -10.5 181.5t-120.5 74.5q-84 0 -126.5 -63t-36.5 -156q3 -41 -7 -38q-13 3 -24 45
q-3 12 -4 24q-3 37 14.5 82.5t50.5 86.5t87 69t116 28q85 1 154.5 -45.5t95 -120.5t-5.5 -166z" />
    <glyph glyph-name="four" unicode="4" horiz-adv-x="626" 
d="M29 465q68 84 167.5 212t196 254.5t105.5 137.5q2 2 2 4q40 6 53 -19.5t6 -76.5q-61 -415 -102 -662q37 3 65.5 8.5t41 10t14.5 8.5q39 -62 21.5 -102.5t-83.5 -46.5q-35 -4 -78 2l-32 -197q-26 -6 -49 -6t-47 9t-35.5 31t-15.5 60.5t13 97.5l9 33q-132 28 -258 72
q-42 12 -55 27.5t0 48.5t61 94zM98 338q99 -18 205 -25q18 73 164 635q-77 -129 -215.5 -357.5t-153.5 -252.5z" />
    <glyph glyph-name="five" unicode="5" horiz-adv-x="739" 
d="M711 956q-16 -36 -51.5 -60t-80 -26t-90.5 29q-98 65 -167 76q-24 -63 -134 -326q62 14 124 15t124.5 -17t106.5 -54.5t64 -106t3 -164.5q-15 -82 -53.5 -150t-89.5 -111t-112.5 -68t-121 -27.5t-115 16.5t-95.5 59q-50 49 -61 128.5t24.5 163.5t111.5 136
q33 19 61.5 17.5t48.5 -34t21 -87.5q0 -27 -7 -51t-16.5 -38.5t-19.5 -26t-17 -15.5l-7 -5q-51 28 -95.5 17.5t-58.5 -51.5q-10 -30 4.5 -66.5t36.5 -56.5q44 -41 99 -43.5t105.5 28.5t94 95t66.5 149q34 127 8.5 203.5t-85.5 105.5t-136 11q-35 -7 -41 -7h-10q-27 8 -15 56
l80 336q58 58 106.5 65t120.5 -27q149 -63 224 46q2 -1 4.5 -3.5t9.5 -11t13.5 -17t13 -21t9.5 -25t2 -27.5t-7 -29z" />
    <glyph glyph-name="six" unicode="6" horiz-adv-x="665" 
d="M639 383q-15 -99 -63.5 -183.5t-113 -136.5t-138 -77t-140.5 -13q-126 21 -178.5 155t0.5 355q41 169 132 303.5t213 201.5t245 40q48 -9 46 -29q-1 -12 -16 -14q-3 -1 -5 0q-113 20 -218 -73t-174 -265q61 44 126 60.5t121 3t97.5 -52t60 -110t5.5 -165.5zM213 590
l-4 -4q-16 -50 -27 -92q-51 -202 -36 -330.5t98 -143.5q43 -8 89 45t79.5 133.5t48.5 163.5q16 92 -1 161t-54.5 99t-90 23t-102.5 -55z" />
    <glyph glyph-name="seven" unicode="7" horiz-adv-x="620" 
d="M100 979q27 74 108.5 90t162.5 -29q19 -10 48 -30.5t51.5 -35t49 -26t54.5 -9t55 21.5l16 12l10 8l2 2q34 23 41 4q5 -11 -4 -18q-267 -239 -382 -464t-115 -505v-2q-81 -19 -143 15t-52 96q26 179 170 376.5t354 386.5q-44 -8 -108 23q-72 32 -153 20.5t-120 -65.5
q-2 1 -4.5 2.5t-9.5 7.5t-13.5 12.5t-13 18t-9.5 23.5t-2 29.5t7 35.5z" />
    <glyph glyph-name="eight" unicode="8" horiz-adv-x="657" 
d="M-16 297q14 123 84.5 201t195.5 133q-120 111 -110 231q8 101 83.5 164.5t194.5 50.5q95 -12 152.5 -57t50.5 -127q-9 -118 -176 -231q201 -149 162 -365q-28 -154 -138.5 -242.5t-240.5 -79.5q-113 10 -193.5 100t-64.5 222zM438 272q14 109 -16 180.5t-109 137.5
q-141 -80 -168 -295q-14 -105 13.5 -184.5t93.5 -85.5q76 -6 124.5 67t61.5 180zM272 905q-6 -111 131 -207q104 74 115 183q6 68 -19 110.5t-81 48.5q-60 6 -100.5 -32t-45.5 -103z" />
    <glyph glyph-name="nine" unicode="9" horiz-adv-x="704" 
d="M27 641q14 100 62 184.5t112 137t138.5 77.5t141.5 13q125 -21 177 -156t-1 -356q-40 -168 -130.5 -302t-213 -201.5t-245.5 -41.5q-48 11 -45 30q2 12 17 15h5q112 -20 215 72.5t172 265.5q-61 -44 -125.5 -62t-119.5 -4.5t-96.5 51.5t-59.5 110.5t-4 166.5zM203 664
q-16 -92 1 -161t54.5 -99t90 -23.5t102.5 53.5l2 2q19 59 28 96q53 202 38 330.5t-99 143.5q-43 8 -89 -45.5t-79.5 -134t-48.5 -162.5z" />
    <glyph glyph-name="colon" unicode=":" horiz-adv-x="403" 
d="M264 45q-22 -37 -71.5 -51.5t-96.5 0.5q-47 17 -66.5 58.5t3.5 78.5q22 37 71.5 51.5t96.5 -0.5q47 -17 66.5 -58.5t-3.5 -78.5zM371 467q-23 -37 -73 -51.5t-97 0.5q-48 17 -67.5 58.5t3.5 78.5q24 37 72 52.5t96 -1.5q47 -17 67.5 -58.5t-1.5 -78.5z" />
    <glyph glyph-name="semicolon" unicode=";" horiz-adv-x="380" 
d="M172 -16v4q-85 -4 -124.5 34t-20.5 97q14 46 67 63t103 -2q44 -16 62.5 -56.5t0.5 -103.5q-23 -77 -88.5 -117t-146.5 -32q0 3 -1 10t6 14.5t21 8.5q108 14 121 80zM348 467q-23 -37 -73 -51.5t-97 0.5q-47 17 -66.5 58.5t3.5 78.5q24 37 72 52.5t96 -1.5
q47 -17 67 -58.5t-2 -78.5z" />
    <glyph glyph-name="less" unicode="&#x3c;" horiz-adv-x="552" 
d="M489 528q-55 -40 -181 -59.5t-226 -9.5q-6 0 -14 1t-11 1q127 -98 226 -158t135 -71l35 -11q0 -69 -46 -102.5t-98 -12.5q-63 26 -144.5 125.5t-125.5 190.5q-21 47 -16 55q0 6 14 12q99 37 179 73.5t124.5 62.5t74.5 46t40 30l10 10q40 -23 56 -59t6.5 -69t-38.5 -55z
" />
    <glyph glyph-name="equal" unicode="=" horiz-adv-x="565" 
d="M463 328q-67 -13 -190.5 25t-206.5 91q-58 36 -42 46q5 3 15 2q184 -16 291 -14t148 13l42 11q37 -62 17.5 -113.5t-74.5 -60.5zM463 117q-64 -11 -183.5 34.5t-213.5 102.5q-52 34 -44 46q4 4 17 1q104 -19 192 -28t139 -8t87 5t49 8l14 5q37 -62 18 -108.5t-75 -57.5z
" />
    <glyph glyph-name="greater" unicode="&#x3e;" horiz-adv-x="552" 
d="M63 281q55 42 181 60.5t227 8.5l21 -4q-125 99 -223 159.5t-133 71.5l-36 11q0 70 46 103.5t98 10.5q64 -26 145.5 -124.5t124.5 -188.5q20 -47 14 -59q0 -5 -12 -8q-99 -37 -179.5 -74t-125 -63t-74.5 -46.5t-39 -30.5l-10 -10q-40 24 -56 60t-7 69t38 54z" />
    <glyph glyph-name="question" unicode="?" horiz-adv-x="747" 
d="M266 45q-23 -37 -72 -51.5t-96 0.5q-47 17 -67 58.5t2 78.5q23 37 73 51.5t97 -0.5q47 -17 66.5 -58.5t-3.5 -78.5zM678 848q-33 -59 -85.5 -111t-104 -85.5t-106 -73.5t-95 -78t-66.5 -97t-26 -133q0 1 -4.5 0t-11.5 1.5t-14 7t-12.5 16.5t-7.5 29q-4 60 22 121.5
t71.5 116.5t94.5 105.5t100.5 110t78.5 109.5q36 65 44.5 124.5t-9 104.5t-63 71.5t-113.5 26.5t-118 -45t-68.5 -112t-2.5 -149t68 -150q15 -20 -10 -18q-26 2 -35 10q-64 83 -76.5 180t20 176.5t109 132.5t178.5 53q80 0 147 -37.5t105 -97.5t37.5 -143t-47.5 -166z" />
    <glyph glyph-name="at" unicode="@" horiz-adv-x="1595" 
d="M496 453q31 119 87.5 200.5t121.5 114t131.5 31t121.5 -38.5l21 80q50 7 116 -23t54 -72q-3 -11 -15.5 -56.5t-40.5 -154.5t-69 -276q-28 -116 -7.5 -179t81.5 -48q58 14 124.5 121.5t127.5 324.5q58 223 33.5 390t-123 264.5t-246.5 97.5q-110 0 -230.5 -52.5
t-228.5 -144.5t-196 -231t-130 -299q-30 -114 -30 -230.5t28 -216.5t81.5 -182.5t131.5 -128.5t177 -54t219 40q15 5 16 -10q0 -19 -16 -27q-94 -42 -187 -54t-173 3.5t-152 55t-127 98t-95.5 136t-60.5 165.5t-18 189.5t28 205.5q41 163 121 296t178.5 220t216.5 146
t234.5 84.5t234.5 25.5q205 0 340.5 -91t178.5 -259t-19 -406q-23 -87 -63 -165t-85 -134.5t-97 -103t-98 -74.5t-89 -45q-83 -33 -158 36t-90 197q-14 -43 -72 -121q-85 -107 -172 -91q-74 13 -113 105q-56 134 -5 335zM872 410l5 18l73 291q-81 66 -154.5 -16.5
t-123.5 -270.5q-48 -176 -24 -283q15 -68 54 -65q29 4 64 47q34 42 51.5 85t42.5 149l6 22v4l2 4q0 3 4 15z" />
    <glyph glyph-name="A" unicode="A" horiz-adv-x="1146" 
d="M1022 1300q51 5 116.5 -24.5t53.5 -71.5q-14 -48 -92 -377q-113 -456 -127 -518q-70 -295 -22 -286q22 4 65 75q77 129 166 342q32 76 43 70q4 -5 4 -21q0 -19 -29 -92q-84 -200 -164 -329q-39 -62 -82.5 -96.5t-80 -35t-65 28.5t-38.5 93.5t0 158.5h-360
q-88 -134 -174.5 -189t-163.5 -12q-60 33 -70 104.5t36.5 146t135.5 108.5q60 24 82.5 -5.5t15.5 -93.5q-2 -17 -8 -33.5t-13.5 -29t-14 -22.5t-11 -15t-4.5 -4q-107 72 -153 -4q-18 -34 -9 -68.5t39 -48.5q49 -22 112 22t150 179q99 151 348.5 550t313.5 498zM920 848
q52 185 79 326q-60 -96 -269.5 -436.5t-293.5 -475.5h340l15 68q57 250 129 518z" />
    <glyph glyph-name="B" unicode="B" horiz-adv-x="716" 
d="M664 395q-21 -112 -124 -225t-223 -168q-83 -39 -149 -41.5t-112.5 38t-52.5 136.5t30 254l192 766q30 4 73 -7t74.5 -36t24.5 -53q-8 -26 -25 -76t-41 -138t-67 -267l37 10l14 6q139 33 224 152t100 262q7 66 -13.5 112.5t-60 67.5t-91.5 28.5t-109 -4.5
q-199 -31 -312 -223q-10 -17 -31 -6q-12 6 -8 12q138 263 408 308q109 18 206 -7t155 -95.5t42 -172.5q-22 -135 -113.5 -240t-222.5 -170q99 -3 146.5 -62t28.5 -161zM307 555q-5 -2 -24 -7.5t-29 -10.5q-6 -25 -29 -121t-37 -160q-13 -53 -14.5 -97t6.5 -72t23.5 -45
t38 -17t49.5 12q68 33 120.5 130.5t71.5 199.5q20 115 -32 166t-144 22z" />
    <glyph glyph-name="C" unicode="C" horiz-adv-x="690" 
d="M788 1247q39 -39 44 -115t-32.5 -160t-109.5 -134q-46 -33 -78 -1t-28 109q2 36 13 69t20.5 48.5t11.5 15.5q51 -27 94 -17t57 52q20 63 -20 103q-24 24 -56.5 32.5t-71.5 -1.5t-81 -36.5t-86.5 -77t-86 -118.5t-81.5 -165t-72 -212q-53 -199 -48 -333t47.5 -202.5
t111.5 -68.5q101 0 205.5 96t175.5 268q36 86 45 68l2 -18q0 -21 -29 -93q-69 -170 -200.5 -284.5t-268.5 -114.5q-76 0 -135 45t-94.5 129t-34 221.5t46.5 306.5q36 138 89.5 249.5t112 182.5t123 120t126 69t117.5 22.5t99.5 -12.5t71.5 -43z" />
    <glyph glyph-name="D" unicode="D" horiz-adv-x="825" 
d="M428 1303q286 67 408 -86.5t34 -489.5q-37 -141 -106.5 -266t-154.5 -214t-172 -151t-173 -96q-69 -27 -117.5 -33.5t-85 11t-50 65.5t-6.5 134t38 212l193 756q30 4 73 -7t74.5 -36t24.5 -53q-9 -33 -24.5 -78t-29.5 -92t-54 -206t-101 -417q-40 -169 -27 -207
q12 -36 68 -12q124 51 255.5 230.5t194.5 430.5q72 288 -5 423.5t-310 90.5q-190 -37 -324 -264q-10 -17 -30 -6q-11 6 -7 12q69 137 174 227t240 122z" />
    <glyph glyph-name="E" unicode="E" 
d="M18 352q37 139 148 225.5t244 116.5q-111 35 -168 120t-29 194q27 105 86.5 177.5t130.5 102.5t146.5 35.5t139.5 -16t103 -60.5t44 -115t-32.5 -160t-109.5 -134q-46 -35 -81 -9t-34 103q1 38 14 75t25 54.5t14 17.5q51 -27 94.5 -17t57.5 52q20 63 -20 103
q-56 56 -136.5 58t-156.5 -62.5t-109 -184.5q-22 -90 -20 -160t41 -113.5t112 -45.5h8q21 0 29 -2q42 -4 40 -14q-3 -12 -49 -16q-4 -1 -9 -1h-17q-239 -7 -329 -346q-34 -131 21.5 -213t162.5 -82q102 0 210 96.5t179 267.5q36 86 45 68l2 -18q0 -21 -29 -93
q-69 -169 -204.5 -284t-274.5 -115q-75 0 -138 26.5t-106 76.5t-56.5 124t11.5 168z" />
    <glyph glyph-name="F" unicode="F" horiz-adv-x="878" 
d="M512 524l16 84q31 184 46.5 313.5t15.5 166.5v38q31 5 70.5 0.5t73.5 -26.5t34 -51q0 -95 -61 -445q-14 -66 -17 -80h101q89 0 81 -14q-4 -5 -16 -10q-52 -21 -94 -21h-84q-30 -115 -74.5 -207.5t-94 -150.5t-104 -97t-107 -53.5t-101 -14.5t-87.5 15t-65 41
q-39 39 -43.5 105.5t32 140t109.5 123.5q47 31 80 3t31 -91q0 -22 -7 -52t-13 -49l-7 -20q-51 30 -106 22t-68 -49q-21 -62 23 -102q30 -30 71 -36.5t89.5 17.5t95.5 76t92.5 150t77.5 229h-101q-25 0 -31 8.5t3.5 19t27.5 17.5h111zM1124 1128q-252 39 -447.5 38
t-323.5 -56.5t-158 -161.5q-18 -69 -6.5 -125t46.5 -96.5t83.5 -65t103.5 -30.5q87 -9 79 -22q-4 -5 -18 -9q-30 -6 -96 2q-55 5 -111 31t-102.5 66.5t-68.5 103t-5 131.5q32 134 177 235t382 143t551 -5q1 -4 3.5 -11.5t6.5 -28t5 -39t-2.5 -40t-13.5 -36t-32 -22t-53 -2.5
z" />
    <glyph glyph-name="G" unicode="G" horiz-adv-x="761" 
d="M662 211q-41 -139 -98 -264.5t-121.5 -217.5t-133.5 -149t-133 -60t-121 50q-42 41 -49.5 108t30 144t118.5 133q47 32 72.5 -4.5t25.5 -102.5q0 -24 -8 -56t-16 -52l-7 -21q-55 32 -99.5 31t-58.5 -41q-10 -32 -3.5 -61t24.5 -47q63 -63 141 3q118 101 213 457
q32 124 35 136q-110 -179 -258 -179q-91 0 -147 71t-67 215.5t48 365.5q33 124 83 229t107 176.5t120.5 124t126 77.5t121 31t108 -10t84.5 -51q40 -39 44.5 -110.5t-33.5 -149.5t-110 -129q-42 -30 -69 7.5t-27 92.5q0 22 8.5 52t17.5 50l9 19q51 -27 95 -17t59 52
q20 60 -23 103t-99 43.5t-117.5 -42t-121 -118t-114 -193t-93.5 -258.5q-36 -135 -48.5 -242t-1.5 -174t39 -102t71 -35q144 0 235 291l45 184q105 14 140.5 -33.5t1.5 -162.5q-12 -53 -45 -164z" />
    <glyph glyph-name="H" unicode="H" horiz-adv-x="829" 
d="M14 166q100 412 164.5 695.5t79.5 360.5l14 78q30 3 72.5 -8t73.5 -35.5t24 -52.5q-61 -215 -233 -942h252l14 68q44 204 129 518q40 149 65 262t31 152l5 38q30 3 73.5 -8t75 -35.5t23.5 -52.5q-30 -100 -95 -377q-103 -413 -127 -518q-68 -295 -21 -286q22 4 64 75
q70 113 166 342q31 69 41 70q6 1 6 -21q0 -29 -28 -92q-79 -196 -162 -329q-40 -63 -83.5 -97t-79.5 -34.5t-65 28.5t-38.5 93.5t0.5 158.5h-256q-18 -78 -31 -139.5t-17 -83.5l-4 -23q-26 -6 -48.5 -6t-46 9t-35 31.5t-16 61.5t12.5 99z" />
    <glyph glyph-name="I" unicode="I" horiz-adv-x="733" 
d="M682 1300q52 5 116 -24t56 -72q-53 -272 -141 -604q-37 -138 -86.5 -249t-102 -182t-110 -120t-111 -69t-103.5 -22.5t-89.5 12.5t-67.5 42q-39 39 -43.5 110.5t33 150.5t110.5 128q42 29 65 -6.5t23 -93.5q0 -22 -6.5 -52t-12.5 -49l-7 -20q-51 29 -95.5 18t-58.5 -53
q-21 -62 23 -102q33 -33 75 -35.5t91.5 33t99 106t101 192.5t94.5 282q125 466 143 630q-119 -25 -224 -92.5t-171 -149t-104 -163t-36 -141.5q1 -75 40 -128t101.5 -72t133.5 -1q18 5 16 -4q-2 -14 -26 -29q-7 -5 -13 -6q-30 -9 -72 -11t-91 8t-92.5 31t-77 63t-42.5 99
q-11 67 9.5 142.5t74.5 151.5t133.5 143.5t195 122.5t249.5 85z" />
    <glyph glyph-name="J" unicode="J" horiz-adv-x="849" 
d="M799 1300q52 5 116 -24t56 -72q-50 -257 -142 -604q-86 -326 -179.5 -557t-183 -352t-173 -164t-164.5 -16q-53 17 -86 59t-39 95.5t9 109t61.5 107.5t115.5 83q50 24 79.5 -6.5t29.5 -103.5q0 -35 -11.5 -72.5t-23.5 -57.5l-12 -20q-51 43 -101 45.5t-73 -35.5
q-25 -45 -2 -90.5t78 -64.5q111 -37 221 206.5t276 854.5q127 472 144 630q-119 -25 -224 -92.5t-171 -149t-104 -163t-36 -141.5q1 -75 40 -128t101.5 -72t133.5 -1q18 5 16 -4q-2 -14 -26 -29l-13 -6q-30 -9 -72 -11t-91 8t-92.5 31t-77 63t-42.5 99q-11 67 9.5 142.5
t74.5 151.5t133.5 143.5t195 122.5t249.5 85z" />
    <glyph glyph-name="K" unicode="K" horiz-adv-x="770" 
d="M870 1204q-65 -307 -183.5 -527.5t-262.5 -350.5q40 2 103 0.5t63 -4.5q-38 -243 5 -252q24 -5 69 69q64 107 145 301q32 76 43 70q4 -5 4 -21q0 -19 -29 -92q-46 -110 -72.5 -163.5t-70.5 -124.5q-45 -71 -92 -104.5t-85.5 -26t-67 42t-40.5 102t-2 151.5
q-43 -16 -102 -41q-56 -35 -109 -47l-39 -190q-22 -4 -40.5 -4.5t-39 3.5t-34.5 17.5t-23.5 35t-8.5 58t13 84.5q100 412 161.5 689.5t72.5 348.5l12 72q30 3 73 -8t74.5 -35.5t24.5 -52.5q-33 -117 -63.5 -242.5t-165.5 -705.5l-6 -27q142 59 276.5 324.5t226.5 746.5
q30 3 72 -7.5t73 -35t25 -53.5z" />
    <glyph glyph-name="L" unicode="L" horiz-adv-x="741" 
d="M1135 -578q-44 -2 -92 11.5t-91 34t-99.5 63.5t-100 80.5t-111.5 106t-114.5 117.5t-127.5 136q-88 -91 -186 -108q-58 -10 -108 4t-78.5 44t-40.5 71t6 86q29 79 132 103t212 -21q72 239 145 507q49 180 108.5 313t119 204.5t119.5 102.5t112.5 20.5t95.5 -54.5
q39 -39 43.5 -100t-32 -128.5t-109.5 -117.5q-30 -22 -49.5 -13t-29 33t-9.5 58q0 23 6.5 48t12.5 38.5t8 13.5q51 -27 94 -17t57 52q20 61 -20 104q-91 91 -179 -49q-85 -135 -192 -530q-33 -124 -81 -290t-56 -195q-9 -34 -35 -87l12 -10q185 -200 364.5 -323.5
t305.5 -122.5q47 1 85 21.5t60.5 53.5t37.5 74t14.5 81.5t-7.5 76.5q-4 17 4 17q13 -1 30 -27q5 -7 7 -13q17 -55 17.5 -117.5t-16.5 -123.5t-48 -111t-82 -82t-114 -35zM217 -27q50 23 86 93q-80 59 -151.5 57t-94.5 -57q-17 -40 3 -72t61.5 -38t95.5 17z" />
    <glyph glyph-name="M" unicode="M" horiz-adv-x="1284" 
d="M244 965q65 252 27 281q-24 19 -78 -68q-55 -92 -146 -301q-33 -78 -43 -71q-4 3 -4 19q0 23 29 95q47 112 73.5 165t69.5 123q63 100 140 112q71 12 110 -55q58 -101 2 -306q-2 -7 -4 -13q-93 -322 -150 -577q91 233 188 461t144 311q67 121 145 168q77 46 113 -17
q56 -100 -26 -422l-109 -417q79 200 166.5 398t138.5 290q64 115 140 161q78 48 115 -13q58 -97 -23 -419q0 -2 -69 -270t-69 -270q-64 -247 -28 -279q24 -20 75 64q2 2 3 4q64 107 145 301q32 76 43 70q4 -5 4 -21q0 -19 -29 -92q-46 -111 -72.5 -164.5t-70.5 -124.5
q-63 -100 -139 -113q-70 -12 -108 56q-59 104 -2 316q1 2 1 3q2 3 70.5 271t68.5 272q91 336 40 302q-20 -14 -64 -89q-75 -131 -234.5 -538.5t-197.5 -567.5q-7 -20 -13 -23v-2q-27 -8 -54.5 -4.5t-49.5 14.5t-33 46t-4 90q3 24 82 348q0 2 68.5 270t68.5 269q46 199 9 188
q-22 -7 -70 -90q-57 -96 -230.5 -540t-203.5 -566q-5 -16 -13 -20v-5q-21 -4 -39.5 -4.5t-39 3.5t-34 18t-23 35.5t-8.5 58t13 84.5q175 745 189 795z" />
    <glyph glyph-name="N" unicode="N" horiz-adv-x="854" 
d="M516 350l139 543q91 336 40 302q-20 -14 -64 -89q-75 -130 -234.5 -537t-199.5 -569q-6 -15 -11 -20v-5q-22 -4 -40.5 -4.5t-39 3.5t-34.5 18t-23.5 35.5t-8.5 58t13 84.5q153 651 189 795q65 250 28 281q-24 20 -76 -66q0 -1 -1 -2q-37 -59 -65.5 -118.5t-80.5 -182.5
q-32 -72 -42 -71q-5 0 -5 19q0 30 29 95q45 110 71 164t70 124q63 100 140 112q71 12 110 -55q58 -101 2 -306q-2 -7 -4 -13q-83 -284 -139 -540q82 213 175.5 427t145.5 308q64 116 142 162q77 47 113 -16q56 -100 -24 -417l-139 -540q-63 -249 -26 -279q24 -20 77 68
q59 98 146 301q32 76 43 70q4 -5 4 -21q0 -19 -29 -92q-46 -111 -72.5 -164.5t-70.5 -124.5q-63 -100 -139 -113q-70 -12 -108 56q-59 104 -2 316q1 2 1 3z" />
    <glyph glyph-name="O" unicode="O" horiz-adv-x="792" 
d="M641 1329q65 -14 94.5 -63t12.5 -131q59 -56 69 -178.5t-39 -321.5q-68 -252 -196 -434q79 -16 147.5 46t118.5 173q31 69 41 70q6 1 6 -21q0 -27 -29 -92q-19 -43 -50 -84.5t-72 -76.5t-92.5 -51.5t-102.5 -4.5q-149 -186 -303 -174q-110 9 -172.5 91t-71 233.5
t48.5 369.5q39 148 96.5 267.5t119.5 194.5t130 123t129 62.5t115 1.5zM596 1171q72 16 121 -14q1 62 -28.5 99t-76.5 47q-90 17 -194 -155t-191 -489q-76 -295 -60.5 -451.5t109.5 -164.5q80 -6 170 170l-22 23q-49 50 -75.5 137.5t-28 185.5t17.5 202t54.5 189.5t89 146.5
t114.5 74zM584 1114q-75 -18 -129.5 -131t-73 -249.5t1 -270.5t78.5 -191l10 -10q66 148 137 375q151 490 -2 481q-10 -1 -22 -4z" />
    <glyph glyph-name="P" unicode="P" horiz-adv-x="712" 
d="M12 170q49 212 108.5 457t94.5 385l35 139q91 0 134.5 -29.5t27.5 -97.5q-119 -418 -168 -602q161 32 277 166t143 307q13 86 -3.5 153.5t-56 105.5t-95 53.5t-120.5 4.5q-198 -31 -311 -223q-10 -17 -31 -6q-12 6 -8 12q68 129 171.5 207.5t235.5 100.5q87 14 167 -8.5
t138 -72.5t86 -130.5t13 -176.5q-18 -111 -80.5 -207t-149.5 -161t-185.5 -106.5t-198.5 -55.5q-20 -74 -37 -149l-56 -261q-21 -4 -39.5 -4.5t-38.5 3.5t-34 18t-23 35.5t-8 58t12 84.5z" />
    <glyph glyph-name="Q" unicode="Q" horiz-adv-x="776" 
d="M641 1329q65 -14 94.5 -62.5t12.5 -129.5q60 -57 70 -180t-40 -322q-50 -188 -137.5 -342t-191.5 -236q8 -20 24.5 -65t27 -72t32.5 -71t43 -73t55.5 -65t73.5 -59.5t94 -45t119 -32.5q0 -4 -0.5 -11t-2.5 -28.5t-7.5 -38t-15.5 -39t-25.5 -31.5t-38.5 -16.5t-54 6.5
q-48 16 -91.5 46t-78.5 72.5t-64 85.5t-56 99.5t-46 98.5t-43 99.5t-37 86.5q-56 -21 -112 -18q-110 9 -172.5 91t-71 233.5t48.5 369.5q39 148 96.5 267.5t119.5 194.5t130 123t129 62.5t115 1.5zM174 162q61 27 105.5 31.5t72.5 -9.5t51 -45q90 133 205 498
q145 463 14 480q-17 3 -38 -3q-39 -9 -76 -49q-11 -11 -21 -7t-13 14.5t1 17.5q53 66 123 81q69 15 119 -12q1 61 -28.5 97.5t-74.5 46.5q-92 17 -195.5 -155t-189.5 -489q-88 -328 -55 -497zM332 59q-23 42 -44 63t-48 24.5t-56 -23.5q28 -77 92 -80q27 -3 56 16z" />
    <glyph glyph-name="R" unicode="R" horiz-adv-x="827" 
d="M12 170q50 212 110 457.5t95 384.5l35 139q90 0 134 -29.5t26 -97.5q-4 -17 -41 -145.5t-82.5 -295.5t-73.5 -282q107 21 205 112t158.5 209t78.5 234q30 194 -41.5 287.5t-224.5 68.5q-96 -14 -173 -66t-140 -157q-10 -17 -30 -6q-11 6 -7 12q135 263 405 308
q98 15 180 -9.5t135.5 -80.5t76.5 -143t6 -193q-22 -141 -115.5 -270t-224.5 -218q117 -4 117 -8q-32 -208 -3 -289q26 -73 91 20q9 12 18 27q55 92 145 301q32 76 43 70q5 -5 5 -21q0 -19 -29 -92q-46 -110 -72.5 -163.5t-70.5 -124.5q-93 -147 -184 -135q-69 9 -109 106
q-43 105 -27 254q-45 -25 -111 -41q-4 -2 -8 -2q-57 -20 -102 -25l-6 -30l-56 -261q-21 -4 -39.5 -4.5t-38.5 3.5t-34 18t-23.5 35.5t-9 58t11.5 84.5z" />
    <glyph glyph-name="S" unicode="S" horiz-adv-x="749" 
d="M680 268q-15 -76 -51 -138t-83 -101t-102.5 -63.5t-111 -30t-107.5 4t-92 33.5q-67 41 -101.5 116.5t-29.5 159.5t67 168t175 136q48 24 73 -14t25 -115q0 -30 -9 -59.5t-19 -43.5l-9 -14q-41 25 -63 27q-57 10 -101 -24.5t-58.5 -86t4.5 -110.5t75 -93q52 -34 107 -29
t102.5 34.5t83 91t49.5 141.5q11 70 -4 130.5t-47.5 107t-73 90t-81.5 89t-72.5 94.5t-45.5 115.5t-2 143.5q13 77 59.5 144.5t110.5 106.5t139 49.5t144 -25.5q87 -43 117 -127t-10 -174t-142 -144q-47 -24 -67.5 1t-20.5 79q0 22 6 47t12 39l6 14q51 -27 93.5 -16.5
t60.5 51.5q10 21 10 49.5t-9.5 57.5t-33 53.5t-57.5 34.5q-91 27 -174.5 -38.5t-95.5 -180.5q-4 -44 8 -85t36 -73.5t56 -66.5t67 -65t68.5 -69t61.5 -78.5t46.5 -93t22 -112.5t-11.5 -138z" />
    <glyph glyph-name="T" unicode="T" horiz-adv-x="780" 
d="M588 1126q32 5 72 0.5t74 -26.5t34 -51q0 -95 -61 -445q-25 -140 -67.5 -253t-93.5 -184t-109.5 -120t-115.5 -69t-110 -22t-95.5 13.5t-70.5 42.5q-39 39 -43.5 105.5t32 140t109.5 123.5q47 31 80 3t31 -91q0 -22 -7 -52t-13 -49l-7 -20q-52 30 -106.5 22t-67.5 -49
q-21 -62 23 -102q34 -34 79.5 -38.5t99 28t104 99t96 190.5t73.5 286q31 184 46 313.5t14 166.5v38zM1087 1128q-252 39 -448 39t-324.5 -54.5t-158.5 -160.5q-36 -128 34 -216t216 -105q87 -9 79 -22q-4 -5 -18 -9q-30 -6 -96 2q-71 8 -136.5 35t-115 69.5t-72 103
t-6.5 128.5q23 96 107.5 178t228.5 140t344 73t453 -22q1 -4 3.5 -11.5t6 -28t5 -39t-2.5 -40t-14 -36t-32 -22t-53 -2.5z" />
    <glyph glyph-name="U" unicode="U" horiz-adv-x="851" 
d="M324 805q0 -2 -68.5 -269t-69.5 -270q-45 -204 -6 -185q22 10 68 87q64 109 256.5 553t218.5 555q0 6 2 8l2 16q51 5 116.5 -24.5t53.5 -71.5q-7 -23 -94 -377q-103 -413 -127 -518q-68 -295 -20 -286q21 4 65 75q67 113 166 342q32 76 43 70q4 -5 4 -21q0 -19 -29 -92
q-84 -200 -164 -329q-79 -125 -155 -140q-68 -14 -99 67q-41 111 9 335q57 250 129 518l14 55q-91 -210 -200.5 -444.5t-157.5 -323.5q-68 -122 -146 -169q-77 -46 -113 17q-57 101 27 423q0 2 68.5 269.5t68.5 268.5q43 155 80 354q27 9 54.5 6t49.5 -14.5t32.5 -46
t3.5 -88.5q-1 -6 -19.5 -85t-39 -166.5t-23.5 -98.5z" />
    <glyph glyph-name="V" unicode="V" horiz-adv-x="671" 
d="M885 1204q-57 -280 -227 -581t-382 -555q-118 -140 -196 -147q-62 -6 -76 86q-19 122 53 399q0 2 69 269.5t69 268.5q40 144 79 354q27 9 54.5 6t49.5 -14.5t32.5 -46t3.5 -88.5q-1 -6 -19.5 -85t-39 -166.5t-23.5 -98.5q0 -2 -68 -269t-69 -270q-48 -214 -8 -214
q23 0 75 67q183 232 307.5 568t124.5 611l-2 2q32 3 78.5 -7.5t83.5 -35t31 -53.5z" />
    <glyph glyph-name="W" unicode="W" horiz-adv-x="1134" 
d="M1348 1204q-57 -280 -227 -581t-382 -555q-118 -141 -196 -147q-71 -6 -78 116q-7 117 47 338q-89 -133 -233 -307q-118 -140 -196 -147q-63 -6 -78 86q-19 122 52 399q1 2 70 269.5t70 268.5q29 103 79 354q27 9 54.5 6t49.5 -14.5t32.5 -46t3.5 -88.5q-1 -6 -19.5 -85
t-39 -166.5t-23.5 -98.5q0 -1 -68.5 -269t-68.5 -270q-50 -214 -8 -214q23 0 75 67q135 173 237 433t142 509q11 71 29.5 121.5t39.5 73.5t40.5 31.5t38.5 4.5q44 -9 67.5 -44t13.5 -85q-36 -175 -116 -358q-1 -1 -70 -269t-70 -270q-41 -182 6 -210q36 -21 99 58q2 3 4 5
q183 231 307.5 567t124.5 612v2q31 3 77 -7.5t83 -35t31 -53.5z" />
    <glyph glyph-name="X" unicode="X" horiz-adv-x="940" 
d="M82 123q47 70 272 420q-78 301 -129 490.5t-63 228.5l-12 38q48 5 91 -1.5t77 -30.5t42 -64q18 -83 121 -459q125 202 202.5 341t92.5 176l15 38q51 5 116.5 -24.5t53.5 -71.5q-16 -56 -103 -185t-330 -450l56 -190q95 -337 175 -339q35 1 70 58q70 113 166 342
q31 69 41 70q6 -1 6 -21q0 -29 -28 -92q-79 -196 -162 -329q-75 -119 -156.5 -134t-156.5 83t-127 302l-19 72q-20 -27 -91.5 -119t-115.5 -149q-42 -54 -78.5 -98.5t-52.5 -62.5l-16 -17q-24 4 -32.5 12t-2 30t23.5 51t54 85z" />
    <glyph glyph-name="Y" unicode="Y" horiz-adv-x="784" 
d="M354 805q-1 -1 -56.5 -230.5t-55.5 -232.5q-46 -201 -8 -186q22 9 69 88q56 96 200 458t195 529l17 69q51 5 116.5 -24.5t53.5 -71.5q-7 -23 -47.5 -195t-98 -405.5t-102.5 -392.5q-28 -99 -68 -193t-86.5 -172t-98 -142.5t-105 -107t-104.5 -63t-99.5 -11.5t-87.5 48
q-41 41 -48.5 108t30 144.5t118.5 132.5q47 32 72.5 -4.5t25.5 -102.5q0 -24 -7.5 -56t-14.5 -52l-8 -21q-55 32 -100 31t-58 -41q-10 -31 -4.5 -61t24.5 -47q27 -27 62 -30.5t77.5 23t85.5 81t87.5 154t81.5 232.5q129 463 196 770q-182 -454 -274 -620q-67 -123 -145 -169
q-77 -46 -113 18q-56 100 26 421q0 2 56.5 232t56.5 231q14 44 26 94t18.5 79.5t18.5 93.5t17 87q27 9 54.5 6t49.5 -14.5t33 -46t4 -88.5q-1 -6 -19.5 -85t-39 -166.5t-23.5 -98.5z" />
    <glyph glyph-name="Z" unicode="Z" horiz-adv-x="888" 
d="M1225 1096q-48 -8 -87.5 -30.5t-74.5 -57t-76 -101t-80.5 -141t-99.5 -199.5q-141 -285 -326 -473q4 -4 9 -10t11 -13.5t9 -11.5q72 -100 157 -176.5t165.5 -119.5t152.5 -63.5t133 -18.5q77 1 130.5 45.5t71 106.5t1.5 122q-5 18 4 16q14 -2 29 -26l6 -13
q15 -48 18 -103t-8 -110t-34.5 -102t-66.5 -80t-100 -43q-334 -55 -743 512q-9 9 -16 23q-119 -95 -211 -103q-69 -7 -120.5 27t-70 87t-0.5 103q16 48 54 81.5t89 45t117 -10.5t131 -79q118 150 258 438q224 454 476 502q-205 71 -359 67t-250.5 -67.5t-132.5 -177.5
q-91 -318 74 -446q52 -38 40 -49q-3 -3 -11 -1q-28 6 -74 43q-28 21 -44.5 34t-45 37.5t-45.5 45t-39.5 49.5t-34 58t-20.5 63t-8.5 72.5t10.5 79.5q13 54 39.5 103t71.5 94t104 77.5t142 50.5t181 16.5t225.5 -28.5t270.5 -80q41 -61 0 -65h-2zM205 25q59 10 133 84
q-47 47 -93 73t-82.5 29.5t-63 -13.5t-38.5 -53q-16 -56 23.5 -96t120.5 -24z" />
    <glyph glyph-name="bracketleft" unicode="[" horiz-adv-x="827" 
d="M481 -295q-162 -18 -269 -11.5t-154 83t-32 249t97 486.5q40 154 77 272t70.5 204t66.5 145.5t65.5 97t67 58.5t71 29.5t77.5 9.5t88 0q55 -1 85 -1q26 0 11 -22q-9 -15 -16 -15q-126 -2 -168 -15q-64 -20 -105 -94q-46 -83 -122 -359q-4 -14 -90 -333
q-108 -393 -125 -518q-19 -146 31 -195q44 -42 179 -41q42 1 108 5q12 1 12 -9q0 -16 -17 -24z" />
    <glyph glyph-name="backslash" unicode="\" horiz-adv-x="348" 
d="M238 1079l90 -1085q-40 1 -56.5 24t-25.5 68q-59 329 -115.5 626t-83.5 430l-27 132q19 4 39.5 4.5t44.5 -4.5t45.5 -19t40 -35.5t31.5 -57.5t17 -83z" />
    <glyph glyph-name="bracketright" unicode="]" horiz-adv-x="827" 
d="M346 1315q130 17 224.5 13.5t152.5 -37t75.5 -124.5t-4.5 -249t-89 -410q-40 -154 -77 -271.5t-70.5 -204t-66.5 -146t-65.5 -97t-66.5 -58.5t-71 -30t-78 -10.5t-87 0.5q-56 1 -86 0q-26 0 -12 23q9 14 16 16q126 1 168 14q64 20 106 94q46 83 123 360q3 10 90 330
q107 395 124 519q19 147 -30 195q-44 43 -178 41q-42 0 -108 -5q-18 0 -13 16q6 17 23 21z" />
    <glyph glyph-name="asciicircum" unicode="^" horiz-adv-x="665" 
d="M371 573l4 -12q6 -18 20 -41t42 -58t80 -74t118 -71q17 -7 7 -20q-14 -18 -52 -8q-96 25 -211 125q-48 -40 -134 -64t-167 -20q-47 4 -56 22q-2 9 9 13q212 69 334 200q4 8 6 8z" />
    <glyph glyph-name="underscore" unicode="_" horiz-adv-x="790" 
d="M690 -39q-469 0 -622 14q-43 4 -47 28q-2 15 13 19q3 1 7 1q193 -16 350 -14t257 13l100 11q29 -40 18.5 -56t-76.5 -16z" />
    <glyph glyph-name="grave" unicode="`" horiz-adv-x="505" 
d="M39 1030q-36 26 2 78.5t86 75.5q4 -5 12 -14.5t38 -38t66 -57t98 -69t132 -77.5q20 -9 6 -20q-17 -12 -61 -5q-77 12 -205 53t-174 74z" />
    <glyph glyph-name="a" unicode="a" horiz-adv-x="735" 
d="M27 453q25 96 67 168t91 111t103 55.5t105.5 9t95.5 -36.5l21 80q50 7 116 -23t54 -72q-3 -15 -15.5 -58.5t-41 -153.5t-68.5 -275q-32 -130 4 -155q23 -15 54 21q6 8 12 17q26 40 49 85t38.5 81.5t57.5 134.5q31 70 41 71q6 0 6 -21q0 -20 -29 -93
q-44 -108 -70.5 -161.5t-72.5 -126.5q-50 -80 -112.5 -105t-109.5 21.5t-50 156.5q-13 -26 -58 -86q-85 -107 -172 -91q-74 13 -113 105q-56 134 -5 335zM399 393q0 5 4 17l5 20l73 289q-81 65 -154.5 -18t-123.5 -269q-48 -176 -24 -284q15 -68 54 -65q29 3 64 48
q34 43 51.5 86t42.5 143q5 26 8 33z" />
    <glyph glyph-name="b" unicode="b" horiz-adv-x="665" 
d="M641 555q-16 -156 -99 -283t-204 -213q-74 -53 -144 -66t-122 21t-66 127t23 252l215 910q51 5 116.5 -25t53.5 -72q-37 -130 -133 -532q20 25 24 31q44 55 95 83.5t96.5 25t81.5 -31t53.5 -87t9.5 -140.5zM217 395q-1 -5 -3 -12.5t-3.5 -13t-3.5 -9.5l-23 -102
q-12 -54 -11.5 -93t13 -62.5t31 -33t42 -4t46.5 24.5q65 50 109 181t53 278q8 135 -40 169q-42 29 -100 -42q-1 -2 -3 -4q-38 -47 -57 -96.5t-50 -180.5z" />
    <glyph glyph-name="c" unicode="c" horiz-adv-x="585" 
d="M539 756q40 -39 44.5 -100t-33 -129t-110.5 -119q-30 -22 -49.5 -13.5t-29 33t-9.5 59.5q0 22 7 47t13 40l7 14q51 -28 94.5 -17.5t58.5 52.5q20 60 -22 102q-26 26 -58 31.5t-66.5 -13t-67.5 -57t-63.5 -104t-53.5 -150.5q-25 -101 -20 -179.5t33 -126.5t67 -48
q90 0 179 93.5t163 270.5q29 70 39 71q6 0 6 -21q0 -25 -27 -93q-73 -174 -188 -286.5t-242 -112.5q-71 0 -126 58t-75 158.5t13 236.5q25 97 67.5 170.5t90.5 112.5t100.5 60t101 19t89 -17t67.5 -42z" />
    <glyph glyph-name="d" unicode="d" horiz-adv-x="735" 
d="M27 453q31 118 87.5 199.5t121 114t130 31.5t121.5 -36l127 541q51 5 116.5 -25t53.5 -72q-39 -140 -229 -948q-31 -133 5 -155q24 -15 56 25q5 6 9 13q26 40 49 85t38.5 81.5t57.5 134.5q36 86 45 68l2 -18q0 -20 -29 -93q-44 -108 -70.5 -161.5t-72.5 -126.5
q-50 -80 -112.5 -104.5t-109.5 22t-50 155.5q-13 -26 -58 -86q-86 -107 -173 -91q-74 13 -112 105q-56 133 -5 335zM399 393q0 9 4 17q0 7 3 10q27 112 71 301q-80 62 -152 -21.5t-122 -267.5q-48 -176 -24 -284q15 -68 54 -65q29 3 64 48q34 43 51.5 86t42.5 143q5 26 8 33
z" />
    <glyph glyph-name="e" unicode="e" horiz-adv-x="581" 
d="M541 752q19 -20 21.5 -54.5t-10.5 -77t-44.5 -91.5t-76.5 -97t-110.5 -95t-142.5 -83q6 -81 40 -128.5t89 -47.5q157 0 309 364q32 77 43 70q5 -2 5 -20q0 -20 -29 -93q-33 -81 -73 -149.5t-89.5 -126t-110 -90.5t-124.5 -33q-133 0 -200 129.5t-15 323.5q25 97 67.5 170
t90.5 112t101 59t101.5 18t89.5 -17.5t68 -42.5zM199 432q-21 -76 -21 -141q71 37 126 89.5t83.5 105t43.5 101.5t13 84.5t-16 49.5q-14 15 -31.5 20t-41.5 -6.5t-48.5 -42.5t-53 -97.5t-54.5 -162.5z" />
    <glyph glyph-name="f" unicode="f" horiz-adv-x="294" 
d="M119 766l31 106h-39q-44 0 -43 14q0 10 22 19h70q45 131 98.5 228.5t106.5 150t106 74.5t99.5 11.5t84.5 -48.5q42 -42 48 -101t-35.5 -125.5t-130.5 -113.5q-51 -27 -72 4.5t-14 91.5q3 24 12.5 50.5t18.5 41t10 13.5q101 -70 145 2q35 61 -10 106q-79 77 -147 -15
q-67 -89 -148 -370h67q68 0 68 -10q0 -2 -2 -4q-16 -19 -98 -19h-43l-29 -104q-16 -60 -66.5 -271.5t-105.5 -428.5q-40 -158 -102.5 -272.5t-128 -170.5t-132.5 -79.5t-119.5 -13.5t-84.5 42q-30 30 -40.5 74t0 92.5t52 98t108.5 85.5q50 27 71.5 -5t14.5 -91
q-3 -24 -13 -50.5t-19 -41.5l-9 -15q-53 37 -88.5 37t-58.5 -39q-18 -32 -13.5 -62.5t25.5 -51.5q26 -26 57.5 -30t70 21t77 79t80 154.5t76.5 236.5q52 195 102.5 410.5t69.5 289.5z" />
    <glyph glyph-name="g" unicode="g" horiz-adv-x="659" 
d="M496 68q-31 -114 -73.5 -206t-87.5 -151t-94 -100.5t-95 -59t-88 -20.5t-75 9t-55 34q-42 41 -49.5 108t30 144t118.5 133q51 31 81.5 6.5t32.5 -82.5q1 -21 -4 -41.5t-12 -34t-14 -24t-12 -15.5t-5 -4q-57 27 -99 10.5t-58 -61.5q-10 -33 -4 -61.5t24 -46.5
q63 -63 140 2q118 101 212 459l13 45l-11 -13q-85 -107 -172 -91q-74 13 -113 105q-56 134 -5 335l2 6q32 119 89 200.5t122 113.5t131 30.5t122 -37.5l21 80q30 4 72.5 -7t73.5 -35.5t24 -52.5zM295 131q36 44 57 96l125 492q-55 44 -106.5 17t-94.5 -105t-75 -199
q-48 -176 -25 -284q15 -67 53 -65q30 2 66 48z" />
    <glyph glyph-name="h" unicode="h" horiz-adv-x="733" 
d="M-27 193q101 412 163 689.5t74 349.5l11 71q30 3 72.5 -8.5t73.5 -36t24 -52.5q-39 -138 -229 -944q91 211 192 373q75 118 150 160q81 45 108 -34q37 -107 -39 -407q-64 -248 -28 -280q23 -21 75 63q2 2 3 4q59 94 145 301q31 70 41 71q6 0 6 -21q0 -20 -29 -93
q-44 -109 -70.5 -162.5t-72.5 -125.5q-63 -100 -139 -113q-70 -12 -108 56q-58 104 0 315l1 4q86 315 54 314q-16 0 -74 -87q-67 -99 -149 -280.5t-109 -296.5q-4 -14 -8 -19.5t-9 -3.5q-21 -4 -40 -4.5t-38.5 3.5t-33 17.5t-22 35t-7.5 57.5t12 84z" />
    <glyph glyph-name="i" unicode="i" horiz-adv-x="356" 
d="M115 795q30 3 72 -8.5t73 -36t25 -52.5l-90 -344q-65 -257 -26 -282q25 -15 77 69q55 92 145 301q36 86 45 68q2 -5 2 -18q0 -26 -30 -93q-43 -106 -69.5 -160.5t-72.5 -127.5q-64 -102 -141 -115q-70 -12 -108 59q-55 105 1 318q103 387 97 422zM381 963
q-23 -37 -73 -49.5t-97 4.5q-47 15 -66.5 54.5t2.5 76.5q23 37 74 50.5t98 -3.5q48 -17 66.5 -56t-4.5 -77z" />
    <glyph glyph-name="j" unicode="j" horiz-adv-x="276" 
d="M104 68q-42 -157 -105.5 -271.5t-129 -170.5t-131.5 -79.5t-118 -14t-83 41.5q-41 40 -47.5 102t35.5 131.5t131 116.5q51 27 72 -4.5t14 -91.5q-3 -24 -13 -50.5t-19 -41.5l-9 -15q-103 74 -147 -2q-17 -31 -13 -62t25 -52q26 -26 57 -30t69.5 21t77.5 79t80.5 154.5
t77.5 236.5q172 658 168 729q30 4 72.5 -7.5t73.5 -36.5t24 -53q-1 -3 -11 -47.5t-47 -188.5t-104 -394zM365 963q-23 -37 -73 -49.5t-97 4.5q-47 15 -66.5 54.5t2.5 76.5q23 37 74 50.5t98 -3.5q48 -17 66.5 -56t-4.5 -77z" />
    <glyph glyph-name="k" unicode="k" horiz-adv-x="669" 
d="M352 686q37 53 78.5 85.5t77 38.5t66.5 -5.5t47.5 -45t20 -81t-16.5 -113.5q-54 -176 -232 -291q111 0 111 -2q-29 -182 14 -211q34 -24 93 68l7 12q62 99 146 301q31 70 41 71q6 0 6 -21q0 -20 -29 -93q-44 -109 -70.5 -162.5t-72.5 -125.5q-45 -70 -95.5 -108
t-93.5 -36.5t-76.5 29.5t-49 91t-5.5 146q-80 -39 -157 -55q-33 -97 -47 -155q-4 -14 -8 -19.5t-9 -3.5q-25 -5 -46.5 -4.5t-44.5 9.5t-34 31t-15 60.5t11 96.5q101 412 163 689.5t74 349.5l11 71q51 5 116.5 -25t53.5 -72q-9 -31 -16.5 -58.5t-14 -52.5t-17 -67.5
t-18.5 -75t-25.5 -107t-31 -131t-42.5 -178.5t-52 -221q99 253 182 371zM453 553q43 156 4 166q-29 6 -86 -68q-45 -60 -100 -184t-99 -256q56 14 103.5 50.5t81.5 87t57 100.5t39 104z" />
    <glyph glyph-name="l" unicode="l" horiz-adv-x="364" 
d="M29 393l213 910q30 3 73 -8.5t74.5 -36t24.5 -52.5q-58 -205 -232 -948q-31 -133 6 -155q24 -15 56 24l10 14q26 40 49 85t38.5 81.5t57.5 134.5q36 86 45 68q2 -5 2 -18q0 -26 -30 -93q-43 -105 -69.5 -159t-72.5 -129q-58 -93 -132 -109q-71 -16 -111 53
q-60 105 -2 338z" />
    <glyph glyph-name="m" unicode="m" horiz-adv-x="1118" 
d="M432 494q44 191 16 192q-19 -2 -75 -86q-65 -99 -147.5 -280.5t-110.5 -296.5q-3 -10 -5.5 -15.5t-5 -7t-4.5 -0.5q-21 -4 -39.5 -4.5t-38 3.5t-33 17.5t-22.5 35t-8 58t12 83.5q49 212 80 362.5t37 194.5l6 45q90 0 134 -29.5t28 -97.5q-48 -189 -98 -410q0 -1 -1 -3
t-1 -3q91 218 196 383q72 117 148 159q80 45 109 -30q40 -105 -40 -410l-28 -106q4 8 4 10l2 6q94 219 192 371q75 118 150 160q81 45 108 -34q37 -107 -39 -407q-64 -248 -28 -280q23 -21 75 63q2 2 3 4q64 107 145 301q36 86 45 68q2 -5 2 -18q0 -20 -29 -93
q-49 -116 -74 -167.5t-69 -120.5q-63 -100 -139 -113q-70 -12 -108 56q-59 104 -2 316q1 2 1 3q88 315 56 314q-17 0 -76 -87q-66 -100 -147.5 -281.5t-108.5 -295.5q-4 -14 -8 -19.5t-9 -3.5q-27 -9 -54 -5.5t-48.5 15t-31.5 46t-3 87.5q1 6 19.5 85t39.5 167t23 99z" />
    <glyph glyph-name="n" unicode="n" 
d="M-29 193q50 212 81 362.5t36 194.5l6 45q92 0 136 -29.5t26 -97.5q-5 -21 -34 -142.5t-62 -263.5q91 211 192 373q75 118 150 160q81 45 108 -34q37 -107 -39 -407q-64 -252 -26 -281q23 -18 75 66q0 1 1 2q59 94 145 301q31 70 41 71q6 0 6 -21q0 -20 -29 -93
q-44 -109 -70.5 -162.5t-72.5 -125.5q-63 -100 -139 -113q-70 -12 -108 56q-58 104 0 315l1 4q86 315 54 314q-16 0 -74 -87q-67 -99 -149 -280.5t-109 -296.5q-4 -14 -8 -19.5t-9 -3.5q-25 -5 -46.5 -4.5t-44.5 9.5t-34 31t-15 60.5t11 96.5z" />
    <glyph glyph-name="o" unicode="o" horiz-adv-x="679" 
d="M453 795q109 -28 112 -142q41 -40 52.5 -110t-11.5 -164q-15 -59 -39 -111q136 14 207 174q33 70 42 71q6 0 7 -21q0 -26 -30 -93q-34 -78 -100 -121.5t-144 -48.5q-60 -112 -151.5 -171t-204.5 -50q-120 11 -167.5 132.5t-0.5 301.5q21 80 53 144t68.5 102.5t78 66
t81 36t78.5 11.5t69 -7zM465 696q31 0 55 -12q-22 68 -94 82q-55 11 -116 -78.5t-109 -265.5q-39 -149 -32.5 -252.5t54.5 -103.5q35 0 82.5 51.5t87.5 146.5q-28 20 -41 33q-51 48 -66.5 118t2 131.5t65 105.5t112.5 44zM377 336q11 -11 35 -27l24 72q81 262 6 262
q-65 0 -97.5 -60t-22.5 -134t55 -113z" />
    <glyph glyph-name="p" unicode="p" horiz-adv-x="636" 
d="M586 360q-31 -118 -88 -199t-122 -114t-131.5 -32t-121.5 36l-64 -278q-20 -83 -34 -148t-17 -89l-4 -23q-26 -6 -48.5 -6t-46 8.5t-35 31t-16 61.5t12.5 99q100 412 161.5 689t73.5 348l11 71q50 7 116 -22.5t54 -71.5l-35 -127q45 76 88 125q97 110 176 84
q70 -22 92 -136q25 -127 -22 -307zM178 285q-5 -21 -20.5 -87t-24.5 -108q81 -61 154 23t123 270q60 218 40 309q-17 75 -86 5q-5 -5 -10 -11q-45 -52 -91 -149t-75 -218q-9 -32 -10 -34z" />
    <glyph glyph-name="q" unicode="q" horiz-adv-x="645" 
d="M240 -293l102 428q-7 -11 -29 -37q-85 -107 -172 -91q-73 13 -111 105q-56 133 -5 335l2 6q24 94 65 165t89 110.5t100.5 57.5t103 12t94.5 -32l15 78q50 7 116 -22.5t54 -71.5q-52 -189 -236 -977q-20 -83 -34 -148t-18 -89l-3 -23q-26 -6 -48.5 -6t-46 8.5t-35 31
t-16 61.5t12.5 99zM403 410q3 15 9 30q23 104 59 285q-54 39 -104.5 9t-91.5 -107.5t-72 -194.5q-48 -176 -24 -284q15 -68 54 -65q29 3 64 48q37 46 56 95.5t50 183.5z" />
    <glyph glyph-name="r" unicode="r" horiz-adv-x="581" 
d="M-29 193q50 212 81.5 362.5t37.5 194.5l6 45q90 0 134 -29.5t26 -97.5q-41 -167 -82 -344q66 175 150 311q64 103 144.5 153.5t117 1.5t-14.5 -241q-8 -33 -34.5 -50.5t-53.5 -15.5q-20 2 -39.5 13.5t-29 22t-8.5 13.5q51 129 24 146q-20 13 -62 -42l-24 -36
q-57 -96 -127 -275.5t-100 -301.5q-4 -14 -8 -19.5t-9 -3.5q-25 -5 -46.5 -4.5t-44 9.5t-33.5 31t-15.5 60.5t10.5 96.5z" />
    <glyph glyph-name="s" unicode="s" horiz-adv-x="557" 
d="M197 766q203 -170 258 -322q66 28 168 60q6 2 13 -10q10 -15 -9 -21q-86 -27 -162 -59q24 -86 6 -178q-20 -93 -86.5 -157t-144.5 -84t-144 -1q-37 10 -62.5 40.5t-31.5 68.5t16 83t72 80q82 57 213 115q-14 168 -145 285q-52 -143 -131 -332q-26 -65 -45 -84
q-23 -22 -21 -2q2 18 23 69q88 208 145 373l-12 10q-58 42 -63 118t42 112q25 20 63.5 21t64.5 -8l26 -9l-55 -166zM295 262q8 33 8 82q-119 -56 -176 -98q-43 -30 -62.5 -65.5t-16.5 -64.5t23.5 -51t53.5 -28q57 -13 102 55t68 170z" />
    <glyph glyph-name="t" unicode="t" horiz-adv-x="356" 
d="M147 905l39 170q31 3 74 -8t74 -35.5t24 -52.5l-22 -74h61q102 0 76 -16q-5 -3 -12 -6q-18 -11 -96 -11h-37l-144 -614q-31 -133 5 -155q24 -15 56 25q5 6 9 13q26 40 49 85t38.5 81.5t57.5 134.5q36 86 45 68q2 -5 2 -18q0 -23 -28 -93q-43 -105 -70 -159.5t-74 -128.5
q-57 -93 -131 -109q-72 -16 -111 53q-61 105 -3 338l110 479h-82q-46 0 -44 14q1 10 24 19h110z" />
    <glyph glyph-name="u" unicode="u" horiz-adv-x="759" 
d="M424 393l27 109q-74 -164 -181 -334q-73 -116 -148 -158q-80 -45 -108 32q-39 106 39 409q38 149 59.5 247t23.5 121l3 23q52 7 114.5 -18t59.5 -68q-1 -15 -3.5 -30t-9.5 -42t-14.5 -53.5t-24 -84t-32.5 -114.5q-86 -315 -54 -315q17 0 75 86q68 103 156 290.5
t114 299.5l4 16l8 31q73 10 111 -17t40.5 -82t-15.5 -131q-23 -85 -90 -352q-31 -133 6 -155q24 -15 56 25q5 6 9 13q37 57 64 113.5t82 187.5q36 86 45 68l2 -18q0 -23 -31 -93q-44 -107 -70 -161t-71 -127q-58 -93 -132 -109q-72 -16 -111 53q-61 105 -3 338z" />
    <glyph glyph-name="v" unicode="v" horiz-adv-x="673" 
d="M713 745q-13 -141 -154.5 -343.5t-298.5 -340.5q-116 -100 -190 -63q-79 39 -69 216q5 103 42 239q40 147 62 244t24 121l2 24q30 4 71 -4t72.5 -30.5t26.5 -51.5q-19 -93 -80 -324q-101 -380 -20 -358q21 5 55 39q33 33 67.5 85t74.5 132t72.5 197t49.5 249l8 64
q50 7 119.5 -22.5t65.5 -72.5z" />
    <glyph glyph-name="w" unicode="w" horiz-adv-x="1087" 
d="M1126 745q-13 -142 -154.5 -344.5t-299.5 -339.5q-78 -66 -139 -72t-93.5 53t-25.5 175q-75 -86 -154 -156q-116 -100 -190 -63q-79 39 -69 216q5 103 42 239q40 147 62 244t24 121l2 24q30 4 71 -4t72.5 -30.5t26.5 -51.5q-19 -93 -80 -324q-101 -380 -20 -358
q21 5 55 39q64 64 132.5 196t109.5 324q9 44 23 80t28.5 57t29.5 35t25.5 18.5t16.5 3.5q39 -6 67 -31.5t25 -52.5q-11 -114 -113 -278q-3 -7 -8 -33q-55 -213 -32 -312q20 -82 89 -25q9 8 19 18q33 33 68.5 85t75 132t72.5 196.5t50 249.5l6 64q50 7 120 -22.5t66 -72.5z
" />
    <glyph glyph-name="x" unicode="x" horiz-adv-x="862" 
d="M23 33q-13 49 147 157q-51 46 -81 107.5t-37 148.5t28 187q60 174 139 212q105 50 200 -174q44 -103 83 -263q0 -2 1 -6.5t1 -6.5q92 78 133 191.5t41 277.5q85 -3 126.5 -39.5t31.5 -109.5q-12 -76 -101 -200t-207 -204q67 -221 145 -228q41 -4 79 58q64 107 145 301
q36 86 45 68l2 -18q0 -20 -29 -93q-46 -110 -72.5 -163.5t-70.5 -124.5q-60 -94 -133.5 -118.5t-146 32t-121.5 190.5q-49 -34 -87.5 -68.5t-57.5 -59.5t-31.5 -45.5t-15.5 -31.5l-3 -10q-5 -1 -14.5 -2.5t-33.5 -3t-43.5 0.5t-38 11.5t-23.5 26.5zM336 340
q-82 369 -160 355q-35 -6 -67 -91q-38 -114 -11.5 -216t103.5 -177q34 23 145 86q-8 29 -10 43z" />
    <glyph glyph-name="y" unicode="y" horiz-adv-x="667" 
d="M514 68q-42 -157 -105.5 -271.5t-129 -170.5t-131.5 -79.5t-118 -14t-83 41.5q-41 40 -47.5 102t35.5 131.5t131 116.5q51 27 72 -4.5t14 -91.5q-3 -24 -13 -50.5t-19 -41.5l-9 -15q-103 74 -148 -2q-17 -31 -13 -62t25 -52q26 -26 57.5 -30t70 21t77.5 79t80.5 154.5
t77.5 236.5q63 239 121 487q-81 -186 -205 -385q-73 -116 -148 -158q-81 -45 -109 33q-39 106 38 408q39 149 61 247t24 121l3 23q30 4 71 -4t73 -30.5t30 -51.5q-1 -18 -6 -42.5t-13 -51.5t-27 -93.5t-38 -136.5q-86 -315 -54 -315q16 0 74 86q70 105 160.5 295t116.5 301
q0 2 1 5t1 5l4 33q30 4 72.5 -6.5t73.5 -35t24 -52.5q-1 -3 -13.5 -60t-52 -213.5t-106.5 -406.5z" />
    <glyph glyph-name="z" unicode="z" horiz-adv-x="610" 
d="M2 10h-2q-4 0 -9 0.5t-16 3t-16.5 7.5t-3.5 16t16 26q175 175 290 351.5t142 326.5q-11 -6 -31 -14.5t-81 -22.5t-121 -12q-44 -116 -143 -358q-30 -67 -47 -84q-23 -23 -20 -2q2 19 24 69q73 173 137 379q-71 9 -101.5 36t-11.5 65q39 77 225 77q-8 -32 -43 -124
q53 1 121.5 17.5t129 39.5t114 45.5t84.5 37.5l31 15q0 -78 -39.5 -169.5t-113 -190t-159 -191.5t-196.5 -198q98 43 180 37q36 33 99.5 89.5t99.5 88.5t77 70t66 63q2 2 11.5 -0.5t14.5 -8t-3 -14.5q-78 -78 -316 -301q108 -48 49 -256q-23 -82 -78 -167t-122 -148
t-144 -96t-139 -17q-89 23 -90.5 110t98.5 212q74 92 273 276q-32 11 -86 -7t-86 -36.5t-58 -36.5zM266 -78q24 101 2 144q-183 -172 -250 -252q-40 -46 -64 -88t-30.5 -73.5t-1 -56.5t20.5 -39t37 -18q55 -11 119 63.5t106.5 163.5t60.5 156z" />
    <glyph glyph-name="braceleft" unicode="{" horiz-adv-x="841" 
d="M289 231q-29 -91 -43 -167.5t-14 -132.5t11.5 -98t32.5 -66.5t50.5 -36t64.5 -9t74 18.5q15 5 16 -11q1 -19 -16 -28q-55 -24 -112 -29t-111.5 9t-95.5 57.5t-64 109.5t-16 172.5t47 239.5q21 68 24 115t-10.5 70t-31.5 32.5t-42 9.5h-16q-25 0 -10 27q12 19 22 21
q16 0 33 3.5t38.5 12t37 24.5t29.5 41t16 60.5t-4 83.5q-19 111 1 207t67 160.5t114.5 108.5t141.5 58t150 1t138 -54q22 -15 -5 -26q-16 -7 -20 -3q-67 46 -135.5 52t-124.5 -26t-97 -90t-57.5 -147t-2.5 -190q32 -223 -150 -295q143 -55 70 -285z" />
    <glyph glyph-name="bar" unicode="|" horiz-adv-x="368" 
d="M334 1094q-82 -318 -145 -588.5t-85 -381.5l-22 -112q-40 -5 -51 17t-6 67l176 1190q25 6 47.5 6t46.5 -9t36 -31t16 -60.5t-13 -97.5z" />
    <glyph glyph-name="braceright" unicode="}" horiz-adv-x="839" 
d="M551 741q29 91 43.5 167.5t14.5 132.5t-11.5 98.5t-33 67t-51 36t-64.5 9t-74 -18.5q-15 -5 -16 10q0 19 16 27q55 24 112 29.5t111.5 -8.5t96 -57.5t64.5 -109t16 -172t-48 -239.5q-68 -230 61 -230h15q25 0 10 -26q-11 -19 -22 -21q-16 0 -32.5 -3t-38 -12t-37.5 -24.5
t-30 -40t-16 -60t4 -83.5q19 -111 -1 -207t-67 -161t-114 -109t-141 -58t-149.5 -1t-137.5 55q-23 13 2 24q17 8 22 4q55 -38 113 -48.5t107 5.5t91.5 54t68.5 96t38 131.5t-2 161.5q-32 225 150 295q-143 55 -70 286z" />
    <glyph glyph-name="asciitilde" unicode="~" horiz-adv-x="548" 
d="M20 367q40 68 112.5 94t162.5 4q36 -8 64 -3t48 18t33 27t19 25l6 11l7.5 -5t17.5 -14.5t20 -23.5t14 -32.5t0 -41.5q-9 -46 -46.5 -66.5t-84 -17.5t-96.5 23q-93 37 -143.5 35t-92.5 -46q-14 -12 -23 -9t-14 13z" />
    <glyph glyph-name="exclamdown" unicode="&#xa1;" horiz-adv-x="462" 
d="M217 1028q23 37 73 51.5t97 -0.5q47 -17 66.5 -58.5t-2.5 -78.5q-23 -37 -73 -51.5t-97 0.5q-48 17 -67.5 58.5t3.5 78.5zM55 -20l213 821q40 4 52.5 -20.5t5.5 -75.5q-20 -144 -54.5 -373.5t-59.5 -387.5l-24 -157q-25 -6 -48 -6t-46.5 9t-35.5 31.5t-16 61t13 97.5z
" />
    <glyph glyph-name="cent" unicode="&#xa2;" horiz-adv-x="585" 
d="M565 750q40 -39 44.5 -100.5t-32.5 -129.5t-110 -119q-30 -22 -49.5 -13t-29 33.5t-9.5 59.5q0 22 6.5 47t13.5 40l7 14q51 -29 94.5 -18.5t58.5 52.5q9 32 2.5 58.5t-24.5 44.5q-26 26 -58 31.5t-66.5 -13t-68 -57t-64 -104t-53.5 -150.5q-25 -101 -20 -179.5t33 -126.5
t67 -48q89 0 178 92q37 40 50 31t-21 -51q-9 -11 -20 -23q-89 -92 -187 -119l-33 -178q-40 -5 -51 17t-6 67l10 86q-108 6 -167 135.5t-11 316.5q46 175 138 263t196 98l31 166q25 6 47 4t42.5 -17t23.5 -48.5t-9 -90.5l-8 -35q38 -19 55 -36z" />
    <glyph glyph-name="sterling" unicode="&#xa3;" horiz-adv-x="741" 
d="M444 371q-35 0 -90 10q-34 -154 -88 -256q3 -1 25 -8t26 -8t23.5 -7t25.5 -7.5t23 -6t25 -6t23 -4t25 -3.5t23 -2t25 -1q89 -1 134.5 34.5t45.5 100.5q0 41 15 41t21 -38q1 -14 1 -30q-2 -90 -66.5 -153.5t-179.5 -53.5q-104 8 -264 84q-48 -51 -102 -57q-87 -9 -116 42
q-22 40 6 80q33 50 107 43q8 -1 17 -3l41 -10q29 65 51 268q-3 1 -78 29q-38 16 -22 25q6 4 18 3q31 -4 88 -8l11 98q25 244 130 385t250 111q72 -15 109.5 -63.5t35 -104.5t-41 -111.5t-105.5 -83.5q-88 -39 -88 80q0 22 6 47t12 39l7 15q51 -27 97 -14.5t57 55.5
q9 32 -25.5 67t-85.5 39q-87 6 -135.5 -91.5t-71.5 -322.5q-10 -92 -20 -153q45 -1 79.5 1t45.5 4l12 3q13 -8 14 -31.5t-18.5 -45t-57.5 -21.5z" />
    <glyph glyph-name="currency" unicode="&#xa4;" horiz-adv-x="806" 
d="M541 336q-23 25 -43 72t-29 98q-83 -31 -162 -12q-57 12 -104 65q-30 -50 -47 -100t-19 -75l-2 -24q-37 -2 -79 16.5t-31 45.5q18 38 63 85t96 77q-77 109 -37 258q23 89 76 160.5t125 111.5q-31 42 -64.5 74t-51.5 44l-17 11q13 34 47.5 64t54.5 8q54 -68 70 -182
q70 28 141 22q44 -6 78 -27q28 49 45 98t20 73l3 24q36 2 77.5 -16.5t30.5 -44.5q-15 -36 -57 -81t-90 -75q53 -48 71.5 -130t-6.5 -188q-49 -186 -186 -264q30 -38 62.5 -67.5t49.5 -40.5l17 -10q-13 -34 -48.5 -64t-53.5 -6zM322 842q-39 -129 -38 -219.5t46 -100.5
q47 -11 98.5 62.5t91.5 222.5q33 126 27.5 210.5t-45.5 84.5t-91.5 -67t-88.5 -193z" />
    <glyph glyph-name="yen" unicode="&#xa5;" horiz-adv-x="763" 
d="M446 145q-58 -9 -153 17l-33 -201q-23 -4 -43.5 -5.5t-35.5 9t-23 31t-6 61.5t16 99q2 16 10 43q-87 36 -129 63q-52 34 -43 46q4 4 17 1q127 -22 180 -28q14 36 22 65l-4 19q-111 32 -166 69q-57 35 -41 45q4 3 15 2l161 -14q-43 143 -93 286.5t-79 214.5l-28 72
q148 20 172 -96q54 -289 98 -481h53q79 133 158.5 277t119.5 222l40 78q47 7 94.5 -22t36.5 -72q-6 -24 -31 -66t-83 -121t-95 -128t-129 -168q27 1 48.5 3t29.5 4l8 1q27 -40 24 -68t-23.5 -43.5t-57.5 -21.5q-54 -10 -123 2q-4 -8 -8 -12q-1 -11 -11 -60q71 -4 113.5 -3.5
t61.5 3.5l18 2q19 -30 23 -52t-6.5 -36t-28.5 -22.5t-46 -14.5z" />
    <glyph glyph-name="brokenbar" unicode="&#xa6;" horiz-adv-x="354" 
d="M319 1059q-14 -53 -43.5 -154t-51.5 -175l-23 -75q-39 -5 -49.5 17t-6.5 69l41 512q22 4 41 4.5t39.5 -3.5t34.5 -17.5t23.5 -35t8 -58t-13.5 -84.5zM197 381q-14 -54 -43.5 -155t-52.5 -175l-23 -74q-39 -5 -49 16.5t-6 67.5l40 514q22 4 41 4.5t39.5 -3.5t35 -17.5
t23.5 -35t8 -58t-13 -84.5z" />
    <glyph glyph-name="section" unicode="&#xa7;" horiz-adv-x="854" 
d="M66 -444q-39 39 -44 115t32.5 160t109.5 134q44 30 69 -8t25 -107q-1 -22 -8.5 -53.5t-15.5 -52.5l-7 -20q-51 27 -95 17t-58 -52q-10 -31 -3.5 -58t25.5 -45q44 -45 120 -32q84 13 130 87q77 120 -8 321q-30 70 -80 147q-62 96 -88 204t-15.5 203.5t49.5 178t101 134.5
q19 17 25 -3q6 -22 -13 -44l-6 -6q-185 -147 82 -551q82 -130 107 -225l22 14q223 140 -59 566q-185 281 -104 485q48 119 171 181q103 51 193 34q42 -8 65 -31q40 -39 44.5 -115t-33 -160t-109.5 -134q-43 -30 -67.5 8t-24.5 106q0 22 8 53.5t16 52.5l7 21q51 -27 94.5 -17
t58.5 52q20 61 -22 103q-44 45 -120 32q-84 -13 -131 -87q-77 -120 8 -321q30 -70 79 -147q89 -136 103.5 -289.5t-36.5 -274.5t-149 -183h-2q16 -88 -3 -164t-60 -125.5t-96 -84t-110 -46.5t-103 -5.5t-74 32.5z" />
    <glyph glyph-name="dieresis" unicode="&#xa8;" horiz-adv-x="636" 
d="M266 965q-21 -38 -72 -51.5t-98 4.5q-47 15 -65.5 54.5t4.5 76.5q22 37 72.5 50.5t97.5 -3.5q48 -17 66 -55.5t-5 -75.5zM602 965q-21 -38 -72 -51.5t-98 4.5q-47 15 -65.5 54.5t4.5 76.5t73 50.5t97 -3.5q48 -17 66 -55.5t-5 -75.5z" />
    <glyph glyph-name="copyright" unicode="&#xa9;" horiz-adv-x="899" 
d="M451 766h2q144 0 244 -102.5t100 -249.5q0 -150 -100 -253.5t-246 -103.5t-247.5 104t-101.5 253q0 147 101.5 249.5t247.5 102.5zM451 719q-123 0 -207 -89t-84 -220q0 -128 84 -216.5t207 -89.5q121 0 204.5 89.5t83.5 220.5q0 128 -83.5 216.5t-204.5 88.5zM578 551
q-40 18 -101 18q-77 0 -117.5 -43.5t-40.5 -115.5q0 -71 41.5 -116.5t118.5 -45.5q55 0 105 22q1 0 2.5 -2t3 -5.5t3 -8l3 -9t3 -8.5t1.5 -7v-3q-55 -28 -133 -28q-97 0 -152 58.5t-55 148.5q0 96 63.5 155.5t153.5 59.5q57 0 115 -23q2 -2 -0.5 -14t-6.5 -23t-7 -10z" />
    <glyph glyph-name="guillemotleft" unicode="&#xab;" horiz-adv-x="589" 
d="M20 422l17 4q23 6 51 19t69.5 39.5t85.5 76t79 113.5q8 15 20 5q18 -14 6 -54q-30 -88 -164 -205q45 -55 74.5 -141t20.5 -160q-5 -49 -24 -57q-9 -4 -13 10q-17 66 -45 125t-59 100t-54.5 66t-44.5 43q-19 15 -19 16zM238 422q16 4 34 10q166 58 265 242q9 15 22 5
q18 -14 4 -54q-16 -47 -67.5 -102t-114.5 -103q51 -57 87 -142.5t28 -158.5q-5 -49 -25 -57q-10 -1 -14 10q-46 172 -189 321q-30 23 -30 29z" />
    <glyph glyph-name="logicalnot" unicode="&#xac;" horiz-adv-x="647" 
d="M625 397q12 -71 -21.5 -152t-99.5 -147q-49 -52 -53 -30q-1 5 2 14q38 114 49 190q-73 1 -178.5 38.5t-176.5 82.5q-61 38 -40 46q5 2 14 1q184 -16 291 -13.5t148 13.5l42 11q14 -25 19 -39z" />
    <glyph glyph-name="registered" unicode="&#xae;" horiz-adv-x="591" 
d="M297 807q81 0 136.5 -55t55.5 -134q0 -80 -55 -134t-137 -54t-138.5 54.5t-56.5 133.5q0 78 57 133.5t138 55.5zM297 768h-2q-61 0 -103 -44t-42 -106q0 -63 42 -106t105 -43q61 -1 102 42t41 107q0 62 -41 106t-102 44zM266 596v-76h-43v189q48 6 72 6q37 0 60.5 -14
t23.5 -42q0 -31 -39 -45v-2q26 -9 35 -45q5 -37 12 -47h-47q-1 2 -14 45q-6 31 -39 31h-21zM268 680v-53h21q43 0 43 26q0 29 -41 29q-19 0 -23 -2z" />
    <glyph glyph-name="macron" unicode="&#xaf;" horiz-adv-x="567" 
d="M465 918q-71 -12 -194.5 18t-202.5 78q-67 42 -39 47h10q185 -14 292.5 -7t148.5 24l42 16q36 -62 17 -113.5t-74 -62.5z" />
    <glyph glyph-name="degree" unicode="&#xb0;" horiz-adv-x="624" 
d="M195 494q-85 21 -140 118.5t-20 229.5q38 146 146 234.5t235 78.5q104 -9 157.5 -114.5t14.5 -252.5q-15 -58 -39.5 -105.5t-52.5 -79.5t-60.5 -56t-64.5 -36.5t-64.5 -18.5t-60 -5t-51.5 7zM209 842q-39 -129 -38 -219.5t46 -100.5q47 -11 99 62.5t92 222.5
q33 126 27 210.5t-46 84.5t-91.5 -67t-88.5 -193z" />
    <glyph glyph-name="plusminus" unicode="&#xb1;" horiz-adv-x="567" 
d="M369 553q8 -48 -9 -139q53 4 93.5 13.5t54.5 16.5l14 7q35 -62 15.5 -108.5t-74.5 -55.5q-45 -10 -137 0q-24 -72 -56 -127q76 0 133.5 6t76.5 12l20 6q37 -62 17 -113.5t-75 -60.5q-68 -13 -190.5 25.5t-206.5 91.5q-61 38 -41 46q5 2 14 1q103 -11 201 -14l10 147
q-99 26 -163 66q-59 37 -41 45q4 3 14 2q111 -12 192 -12q0 64 -4 112t-8 64l-4 16q62 36 103.5 21.5t50.5 -68.5z" />
    <glyph glyph-name="twosuperior" unicode="&#xb2;" horiz-adv-x="688" 
d="M637 883q-18 -46 -51.5 -95.5t-87.5 -107t-95.5 -98.5t-119 -113t-113.5 -107q56 19 133 -14q73 -32 143 -20.5t109 65.5q2 -1 4.5 -2.5t9.5 -7.5t13.5 -12.5t13 -18t9.5 -23.5t2 -29.5t-7 -35.5q-27 -75 -98 -90.5t-152 29.5q-21 11 -63 40.5t-68 44t-65 15t-74 -28.5
l-4 -4q-37 -40 -50 -20q-9 12 1 24q377 417 434 609q44 160 5.5 238.5t-144.5 78.5q-85 0 -133 -59t-56 -158q-3 -41 -13 -37q-13 5 -18 47q-1 13 0 25q3 42 24.5 86.5t56.5 84t90 64.5t118 25q101 1 173 -47.5t95 -136.5t-22 -211z" />
    <glyph glyph-name="threesuperior" unicode="&#xb3;" horiz-adv-x="708" 
d="M670 946q-29 -71 -92 -119t-148 -69q280 -67 242 -283q-22 -118 -97 -197.5t-165 -104.5t-181 -9.5t-147 72.5q-49 49 -59.5 128.5t25 163.5t112.5 136q32 19 60 17.5t48 -34.5t21 -88q0 -43 -17 -76.5t-34 -46.5l-17 -12q-51 27 -94.5 17t-58.5 -52q-10 -29 5.5 -66
t37.5 -57q40 -36 93.5 -42t105.5 16t97.5 78.5t67.5 136.5q18 62 13.5 109t-20 79.5t-44.5 54.5t-59.5 33t-65.5 14h-2q-14 0 -23 3q-51 4 -49 22q5 11 21 14q188 -18 241 160q31 107 -10.5 181.5t-120.5 74.5q-84 0 -126.5 -63t-36.5 -156q3 -41 -7 -38q-13 3 -24 45
q-3 12 -4 24q-3 37 14.5 82.5t50.5 86.5t87 69t116 28q85 1 154.5 -45.5t95 -120.5t-5.5 -166z" />
    <glyph glyph-name="acute" unicode="&#xb4;" horiz-adv-x="526" 
d="M483 989q-52 -23 -184.5 -35.5t-212.5 -9.5q-55 3 -63 22q-5 9 12 13q122 34 220.5 78.5t136.5 72.5l38 27q24 -19 46.5 -53.5t28 -67.5t-21.5 -47z" />
    <glyph glyph-name="mu" unicode="&#xb5;" horiz-adv-x="1005" 
d="M285 840q51 7 113 -17t61 -67q-2 -22 -11.5 -52.5t-34.5 -105t-51 -168.5q-72 -264 -19 -308q30 -26 87 34q18 20 35 45q93 137 199 590q3 15 6 18l8 29q71 10 108.5 -17.5t40 -81.5t-15.5 -129q-41 -159 -88 -354q-33 -133 5 -155q23 -15 55 24l10 14q26 40 49 85
t38.5 81.5t57.5 134.5q32 76 43 70q4 -5 4 -21q0 -19 -29 -92q-44 -106 -70.5 -160t-72.5 -128q-33 -54 -75.5 -83.5t-80.5 -28.5t-69.5 30.5t-43 94t0.5 161.5q-31 -71 -60 -115q-75 -119 -161 -166t-134 10q-15 -82 -24 -176l-27 -215q-21 -5 -38.5 -5.5t-37 5.5t-28.5 23
t-13.5 47.5t9.5 79.5q191 790 229 940z" />
    <glyph glyph-name="mu" unicode="&#x3bc;" horiz-adv-x="1005" 
d="M285 840q51 7 113 -17t61 -67q-2 -22 -11.5 -52.5t-34.5 -105t-51 -168.5q-72 -264 -19 -308q30 -26 87 34q18 20 35 45q93 137 199 590q3 15 6 18l8 29q71 10 108.5 -17.5t40 -81.5t-15.5 -129q-41 -159 -88 -354q-33 -133 5 -155q23 -15 55 24l10 14q26 40 49 85
t38.5 81.5t57.5 134.5q32 76 43 70q4 -5 4 -21q0 -19 -29 -92q-44 -106 -70.5 -160t-72.5 -128q-33 -54 -75.5 -83.5t-80.5 -28.5t-69.5 30.5t-43 94t0.5 161.5q-31 -71 -60 -115q-75 -119 -161 -166t-134 10q-15 -82 -24 -176l-27 -215q-21 -5 -38.5 -5.5t-37 5.5t-28.5 23
t-13.5 47.5t9.5 79.5q191 790 229 940z" />
    <glyph glyph-name="paragraph" unicode="&#xb6;" horiz-adv-x="1009" 
d="M625 991q-82 -318 -155 -631.5t-106 -468.5l-32 -155q-41 -6 -52 17t-4 67q19 141 95 618q-84 -96 -180 -77q-83 16 -131 109q-66 130 -21 321l4 16q34 129 109.5 220.5t170 133t200 50.5t206.5 -16.5t184 -78.5q74 -47 74 -63q-1 -14 -50 9q-22 10 -46 25
q-128 79 -273 66q34 -50 7 -162zM844 885q-82 -317 -149 -604t-93 -416l-27 -129q-40 -5 -51 17t-6 67q20 145 70.5 459.5t91.5 556.5l41 243q33 7 60.5 1t48.5 -27.5t24.5 -63t-10.5 -104.5z" />
    <glyph glyph-name="periodcentered" unicode="&#xb7;" horiz-adv-x="296" 
d="M264 455q-22 -37 -71.5 -52t-96.5 0q-47 17 -66.5 59t3.5 79q22 37 71.5 51.5t96.5 -0.5q47 -17 66.5 -58.5t-3.5 -78.5z" />
    <glyph glyph-name="cedilla" unicode="&#xb8;" horiz-adv-x="370" 
d="M172 39l-49 -100q98 32 170 -3.5t51 -111.5q-14 -50 -51 -90t-84.5 -62.5t-87.5 -35t-78 -17.5q-2 1 -5 3t-8.5 7t-7 9.5t5 9.5t23.5 8q60 9 108 52t66 97q18 56 -14 80.5t-109 3.5q-3 0 -6.5 0.5t-11 3t-8 8.5t1.5 17l55 121h39z" />
    <glyph glyph-name="onesuperior" unicode="&#xb9;" horiz-adv-x="387" 
d="M268 1128q-31 -48 -83 -94t-95 -51q-33 -4 -52 14t-16.5 35t5.5 21q62 11 113 36t83.5 57.5t52.5 65.5t29 66q40 6 52 -19t5 -77q-20 -144 -58.5 -389t-66.5 -417l-28 -173q-25 -6 -47.5 -6t-46.5 9t-36 31t-16 60.5t13 97.5z" />
    <glyph glyph-name="ordmasculine" unicode="&#xba;" horiz-adv-x="624" 
d="M430 1139q85 -23 140 -121.5t20 -229.5q-40 -146 -147 -234.5t-234 -78.5q-104 9 -157.5 114.5t-14.5 252.5q18 68 47.5 121.5t63.5 86t73.5 56.5t76 30.5t71.5 9t61 -6.5zM416 788q39 129 37 220t-47 100q-45 11 -97.5 -63t-91.5 -222q-33 -125 -27 -209t46 -84t91 66.5
t89 191.5z" />
    <glyph glyph-name="guillemotright" unicode="&#xbb;" horiz-adv-x="589" 
d="M569 322q-2 -2 -30 -9q-25 -8 -52.5 -21.5t-66.5 -40.5t-79.5 -74t-72.5 -107q-9 -15 -22 -4q-18 14 -4 53q33 93 164 203q-45 55 -74.5 141.5t-22.5 163.5q5 48 25 55q11 3 14 -10q18 -70 47.5 -132t62.5 -104t56 -66t43 -40l6 -6zM352 322q-4 -4 -37 -11
q-163 -57 -262 -241q-9 -15 -22 -4q-18 14 -4 53q16 45 67.5 101t112.5 104q-51 57 -86 142t-27 161q5 48 25 55q11 3 14 -10q42 -172 182 -318q23 -18 37 -32z" />
    <glyph glyph-name="onequarter" unicode="&#xbc;" horiz-adv-x="1267" 
d="M309 1169q-31 -48 -83 -94t-95 -51q-33 -4 -52 14t-16.5 35t5.5 21q62 11 113 36t83.5 57.5t52.5 65.5t29 66q40 6 52 -19t5 -77q-20 -144 -58.5 -389t-66.5 -418l-28 -172q-25 -6 -47.5 -6t-46.5 9t-36 31t-16 60.5t13 97.5zM856 1090l-561 -1086q-28 1 -37.5 14.5
t-5 31.5t17.5 46q137 329 258 626t174 430l52 132q22 4 42.5 4.5t41.5 -4t34 -18.5t19 -35.5t-2.5 -57.5t-32.5 -83zM670 465q68 84 167.5 212t196 254.5t105.5 137.5q2 2 2 4q40 6 53 -19.5t6 -76.5q-61 -415 -102 -662q37 3 65.5 8.5t41 10t14.5 8.5q39 -62 21.5 -102.5
t-83.5 -46.5q-35 -4 -78 2l-32 -197q-26 -6 -49 -6t-47 9t-35.5 31t-15.5 60.5t13 97.5l9 33q-132 28 -258 72q-42 12 -55 27.5t0 48.5t61 94zM739 338q99 -18 205 -25q18 73 164 635q-77 -129 -215.5 -357.5t-153.5 -252.5z" />
    <glyph glyph-name="onehalf" unicode="&#xbd;" horiz-adv-x="1402" 
d="M309 1128q-31 -48 -83 -94t-95 -51q-33 -4 -52 14t-16.5 35t5.5 21q62 11 113 36t83.5 57.5t52.5 65.5t29 66q40 6 52 -19t5 -77q-20 -144 -58.5 -389t-66.5 -417l-28 -173q-25 -6 -47.5 -6t-46.5 9t-36 31t-16 60.5t13 97.5zM850 1090l-561 -1086q-28 1 -37.5 14.5
t-5 31.5t17.5 46q137 329 258 626t174 430l52 132q22 4 42.5 4.5t41.5 -4t34 -18.5t19 -35.5t-2.5 -57.5t-32.5 -83zM1352 678q-18 -46 -51.5 -95.5t-87.5 -106.5t-96 -98.5t-118.5 -112.5t-113.5 -107q55 19 133 -15q73 -32 143 -20.5t109 65.5q2 -1 4.5 -2.5t9.5 -7.5
t13.5 -12.5t13 -18t9.5 -23.5t2 -29.5t-7 -35.5q-27 -75 -98 -90.5t-152 29.5q-21 11 -63 40.5t-68.5 44.5t-65 15.5t-73.5 -28.5l-4 -4q-37 -40 -51 -20q-9 13 1 24q379 420 435 608q43 160 5 238.5t-145 78.5q-85 0 -132.5 -59t-55.5 -158q-3 -41 -13 -37q-13 5 -18 47
q-1 13 0 25q3 42 24.5 86.5t56.5 84t90 64.5t118 25q101 1 173 -47.5t95 -136.5t-22 -211z" />
    <glyph glyph-name="threequarters" unicode="&#xbe;" horiz-adv-x="1605" 
d="M711 967q-29 -71 -92 -119.5t-148 -69.5q280 -66 242 -282q-15 -80 -54.5 -143.5t-92 -100.5t-115 -57t-122.5 -18.5t-114.5 22t-91.5 57.5q-49 49 -59.5 128.5t25 163.5t112.5 136q32 19 60 17.5t48 -34t21 -87.5q0 -27 -7 -51t-17 -38.5t-20 -26t-17 -16.5l-7 -4
q-51 27 -94.5 17.5t-58.5 -51.5q-10 -29 5.5 -66t37.5 -57q40 -36 93.5 -42t105.5 16t97.5 78t67.5 136q18 62 13.5 109t-20 80t-44.5 55t-59.5 33t-65.5 14h-2q-17 0 -23 2q-50 4 -49 21q0 11 15 15l6 1q188 -18 241 160q31 107 -10.5 181.5t-120.5 74.5q-84 0 -127 -63.5
t-37 -156.5q3 -42 -7 -38q-14 5 -24 48l-3 21q-3 37 14.5 82.5t50.5 86.5t87 69t116 28q85 1 154.5 -45.5t95 -120.5t-5.5 -165zM1212 1090l-561 -1086q-28 1 -37 14.5t-4.5 31t17.5 46.5q137 329 258 626t173 430l52 132q22 4 42.5 4.5t41.5 -4t34 -18.5t19 -35.5
t-2.5 -57.5t-32.5 -83zM1008 465q68 84 167.5 212t196 254.5t105.5 137.5q2 2 2 4q40 6 53 -19.5t6 -76.5q-61 -415 -102 -662q37 3 65 8.5t40.5 10t14.5 8.5q39 -62 22 -102.5t-83 -46.5q-35 -4 -78 2l-33 -197q-26 -6 -48.5 -6t-46.5 9t-35.5 31t-15.5 60.5t13 97.5l9 33
q-135 29 -259 72q-42 12 -54.5 27.5t0.5 48t61 94.5zM1077 338q99 -18 205 -25q18 73 164 635q-77 -129 -215.5 -357.5t-153.5 -252.5z" />
    <glyph glyph-name="questiondown" unicode="&#xbf;" horiz-adv-x="747" 
d="M547 1016q23 37 72 51.5t96 -0.5q47 -17 67 -58.5t-2 -78.5q-23 -37 -73 -51.5t-97 0.5q-47 17 -66.5 58.5t3.5 78.5zM135 213q33 59 85.5 111t104 85.5t106 73.5t95 78t66.5 97t26 133q0 -1 4.5 0t11.5 -1.5t14 -7t12.5 -16.5t7.5 -29q4 -60 -22 -121.5t-71.5 -116.5
t-94.5 -105.5t-100.5 -110t-78.5 -109.5q-36 -65 -44.5 -124.5t9 -104.5t63 -72t113.5 -27t118 45.5t68.5 112t2.5 149t-68 150.5q-15 20 10 18q26 -2 35 -10q64 -83 76.5 -180t-20 -176.5t-109 -132.5t-178.5 -53q-80 0 -147 37.5t-105 97.5t-37.5 143t47.5 166z" />
    <glyph glyph-name="Agrave" unicode="&#xc0;" horiz-adv-x="1146" 
d="M1022 1300q51 5 116.5 -24.5t53.5 -71.5q-14 -48 -92 -377q-113 -456 -127 -518q-70 -295 -22 -286q22 4 65 75q77 129 166 342q32 76 43 70q4 -5 4 -21q0 -19 -29 -92q-84 -200 -164 -329q-39 -62 -82.5 -96.5t-80 -35t-65 28.5t-38.5 93.5t0 158.5h-360
q-88 -134 -174.5 -189t-163.5 -12q-60 33 -70 104.5t36.5 146t135.5 108.5q60 24 82.5 -5.5t15.5 -93.5q-2 -17 -8 -33.5t-13.5 -29t-14 -22.5t-11 -15t-4.5 -4q-107 72 -153 -4q-18 -34 -9 -68.5t39 -48.5q49 -22 112 22t150 179q99 151 348.5 550t313.5 498zM920 848
q52 185 79 326q-60 -96 -269.5 -436.5t-293.5 -475.5h340l15 68q57 250 129 518zM1018 1573q-3 7 -3.5 14.5t3 15t6 13t11 13t12.5 11.5t16 12t15 10.5t16 10.5q2 -15 7.5 -40.5t37.5 -96.5t80 -133q11 -11 0 -21q-11 -9 -33 0q-39 17 -94 80.5t-74 110.5z" />
    <glyph glyph-name="Aacute" unicode="&#xc1;" horiz-adv-x="1146" 
d="M1022 1300q51 5 116.5 -24.5t53.5 -71.5q-14 -48 -92 -377q-113 -456 -127 -518q-70 -295 -22 -286q22 4 65 75q77 129 166 342q32 76 43 70q4 -5 4 -21q0 -19 -29 -92q-84 -200 -164 -329q-39 -62 -82.5 -96.5t-80 -35t-65 28.5t-38.5 93.5t0 158.5h-360
q-88 -134 -174.5 -189t-163.5 -12q-60 33 -70 104.5t36.5 146t135.5 108.5q60 24 82.5 -5.5t15.5 -93.5q-2 -17 -8 -33.5t-13.5 -29t-14 -22.5t-11 -15t-4.5 -4q-107 72 -153 -4q-18 -34 -9 -68.5t39 -48.5q49 -22 112 22t150 179q99 151 348.5 550t313.5 498zM920 848
q52 185 79 326q-60 -96 -269.5 -436.5t-293.5 -475.5h340l15 68q57 250 129 518zM1319 1548q-34 -55 -91.5 -98.5t-111.5 -65.5q-47 -18 -52 -3q-3 7 7 16q53 43 92 88t57.5 78t29.5 59.5t12 40.5l2 14q38 -10 56.5 -54t-1.5 -75z" />
    <glyph glyph-name="Acircumflex" unicode="&#xc2;" horiz-adv-x="1146" 
d="M1022 1300q51 5 116.5 -24.5t53.5 -71.5q-14 -48 -92 -377q-113 -456 -127 -518q-70 -295 -22 -286q22 4 65 75q77 129 166 342q32 76 43 70q4 -5 4 -21q0 -19 -29 -92q-84 -200 -164 -329q-39 -62 -82.5 -96.5t-80 -35t-65 28.5t-38.5 93.5t0 158.5h-360
q-88 -134 -174.5 -189t-163.5 -12q-60 33 -70 104.5t36.5 146t135.5 108.5q60 24 82.5 -5.5t15.5 -93.5q-2 -17 -8 -33.5t-13.5 -29t-14 -22.5t-11 -15t-4.5 -4q-107 72 -153 -4q-18 -34 -9 -68.5t39 -48.5q49 -22 112 22t150 179q99 151 348.5 550t313.5 498zM920 848
q52 185 79 326q-60 -96 -269.5 -436.5t-293.5 -475.5h340l15 68q57 250 129 518zM1190 1667l-2 -12q17 -150 141 -244q11 -8 -1 -22q-15 -16 -40 -7q-34 13 -69 45t-60 70q-52 -49 -116.5 -84t-120.5 -31q-32 3 -36 21q-2 10 9 14q47 19 90.5 47t76 59t55.5 56.5t43 50.5
t24 29q0 8 6 8z" />
    <glyph glyph-name="Atilde" unicode="&#xc3;" horiz-adv-x="1146" 
d="M1022 1300q51 5 116.5 -24.5t53.5 -71.5q-14 -48 -92 -377q-113 -456 -127 -518q-70 -295 -22 -286q22 4 65 75q77 129 166 342q32 76 43 70q4 -5 4 -21q0 -19 -29 -92q-84 -200 -164 -329q-39 -62 -82.5 -96.5t-80 -35t-65 28.5t-38.5 93.5t0 158.5h-360
q-88 -134 -174.5 -189t-163.5 -12q-60 33 -70 104.5t36.5 146t135.5 108.5q60 24 82.5 -5.5t15.5 -93.5q-2 -17 -8 -33.5t-13.5 -29t-14 -22.5t-11 -15t-4.5 -4q-107 72 -153 -4q-18 -34 -9 -68.5t39 -48.5q49 -22 112 22t150 179q99 151 348.5 550t313.5 498zM920 848
q52 185 79 326q-60 -96 -269.5 -436.5t-293.5 -475.5h340l15 68q57 250 129 518zM946 1456q17 30 39 54.5t50.5 41t62.5 12t67 -33.5q32 -29 61.5 -35.5t49 4.5t34 26t20.5 29l7 13q2 -1 4.5 -3t8.5 -10.5t9.5 -18t2 -26.5t-9.5 -36q-16 -37 -52.5 -53.5t-77.5 -9.5t-71 34
q-91 82 -174 -8q-9 -8 -16 -3.5t-11 13.5z" />
    <glyph glyph-name="Adieresis" unicode="&#xc4;" horiz-adv-x="1146" 
d="M1022 1300q51 5 116.5 -24.5t53.5 -71.5q-14 -48 -92 -377q-113 -456 -127 -518q-70 -295 -22 -286q22 4 65 75q77 129 166 342q32 76 43 70q4 -5 4 -21q0 -19 -29 -92q-84 -200 -164 -329q-39 -62 -82.5 -96.5t-80 -35t-65 28.5t-38.5 93.5t0 158.5h-360
q-88 -134 -174.5 -189t-163.5 -12q-60 33 -70 104.5t36.5 146t135.5 108.5q60 24 82.5 -5.5t15.5 -93.5q-2 -17 -8 -33.5t-13.5 -29t-14 -22.5t-11 -15t-4.5 -4q-107 72 -153 -4q-18 -34 -9 -68.5t39 -48.5q49 -22 112 22t150 179q99 151 348.5 550t313.5 498zM920 848
q52 185 79 326q-60 -96 -269.5 -436.5t-293.5 -475.5h340l15 68q57 250 129 518zM1042 1415q-21 -38 -72 -51.5t-98 4.5q-47 15 -65.5 54.5t4.5 76.5q22 37 72.5 50.5t97.5 -3.5q48 -17 66 -55.5t-5 -75.5zM1378 1415q-21 -38 -72 -51.5t-98 4.5q-47 15 -65.5 54.5t4.5 76.5
t73 50.5t97 -3.5q48 -17 66 -55.5t-5 -75.5z" />
    <glyph glyph-name="Aring" unicode="&#xc5;" horiz-adv-x="1146" 
d="M1022 1300q51 5 116.5 -24.5t53.5 -71.5q-14 -48 -92 -377q-113 -456 -127 -518q-70 -295 -22 -286q22 4 65 75q77 129 166 342q32 76 43 70q4 -5 4 -21q0 -19 -29 -92q-84 -200 -164 -329q-39 -62 -82.5 -96.5t-80 -35t-65 28.5t-38.5 93.5t0 158.5h-360
q-88 -134 -174.5 -189t-163.5 -12q-60 33 -70 104.5t36.5 146t135.5 108.5q60 24 82.5 -5.5t15.5 -93.5q-2 -17 -8 -33.5t-13.5 -29t-14 -22.5t-11 -15t-4.5 -4q-107 72 -153 -4q-18 -34 -9 -68.5t39 -48.5q49 -22 112 22t150 179q99 151 348.5 550t313.5 498zM920 848
q52 185 79 326q-60 -96 -269.5 -436.5t-293.5 -475.5h340l15 68q57 250 129 518zM1329 1419q-39 -46 -115.5 -61t-146.5 14t-93.5 88t15.5 105q39 45 115.5 60t148.5 -13q69 -29 92 -89t-16 -104zM1210 1423q28 31 32.5 73.5t-17.5 70.5t-55.5 26t-61.5 -34
q-28 -31 -32 -73.5t18 -68.5q22 -28 55 -26.5t61 32.5z" />
    <glyph glyph-name="AE" unicode="&#xc6;" horiz-adv-x="1511" 
d="M1022 1300q29 3 71 -7.5t70 -30.5q118 70 243 61.5t193 -76.5q39 -39 44 -115t-32.5 -160t-109.5 -134q-43 -30 -67.5 8.5t-24.5 105.5q0 22 7.5 53.5t15 52.5t8.5 21q51 -27 94 -17t57 52q20 63 -20 103q-56 56 -136.5 58t-156.5 -62.5t-109 -184.5q-22 -90 -19.5 -160
t41.5 -113.5t112 -45.5h8q18 0 26 -2q46 -4 41 -14q-5 -13 -52 -17h-13h-8q-240 -7 -330 -346q-34 -131 21.5 -213t162.5 -82q102 0 210 96.5t179 267.5q36 86 45 68q2 -5 2 -18q0 -23 -28 -93q-69 -168 -205 -283.5t-275 -115.5q-124 0 -210 69t-93 191h-374
q-88 -134 -174.5 -189t-163.5 -12q-60 33 -70 104.5t36.5 146t135.5 108.5q60 24 82.5 -5.5t15.5 -93.5q-2 -17 -8 -33.5t-13.5 -29t-14 -22.5t-11 -15t-4.5 -4q-107 72 -153 -4q-18 -34 -9 -68.5t39 -48.5q49 -22 112 22t150 179q99 151 348.5 550t313.5 498zM920 848
q52 185 79 326q-60 -96 -269.5 -436.5t-293.5 -475.5h346q4 38 11 68q67 297 127 518zM1079 752q-5 -22 -28 -107q63 32 139 49q-68 23 -111 58z" />
    <glyph glyph-name="Ccedilla" unicode="&#xc7;" horiz-adv-x="690" 
d="M788 1247q39 -39 44 -115t-32.5 -160t-109.5 -134q-46 -33 -78 -1t-28 109q2 36 13 69t20.5 48.5t11.5 15.5q51 -27 94 -17t57 52q20 63 -20 103q-24 24 -56.5 32.5t-71.5 -1.5t-81 -36.5t-86.5 -77t-86 -118.5t-81.5 -165t-72 -212q-53 -199 -48 -333t47.5 -202.5
t111.5 -68.5q101 0 205.5 96t175.5 268q36 86 45 68l2 -18q0 -21 -29 -93q-69 -170 -200.5 -284.5t-268.5 -114.5q-76 0 -135 45t-94.5 129t-34 221.5t46.5 306.5q36 138 89.5 249.5t112 182.5t123 120t126 69t117.5 22.5t99.5 -12.5t71.5 -43zM272 -2l-49 -100
q98 32 170 -3.5t51 -111.5q-14 -50 -51 -90t-84.5 -62.5t-87.5 -35t-78 -17.5q-2 1 -5 3t-8.5 7t-6.5 9.5t5.5 9.5t23.5 8q60 9 108 52t66 97q18 56 -14 80.5t-109 3.5q-5 0 -11 1t-12.5 8t-1.5 20l55 121h39z" />
    <glyph glyph-name="Egrave" unicode="&#xc8;" 
d="M18 352q37 139 148 225.5t244 116.5q-111 35 -168 120t-29 194q27 105 86.5 177.5t130.5 102.5t146.5 35.5t139.5 -16t103 -60.5t44 -115t-32.5 -160t-109.5 -134q-46 -35 -81 -9t-34 103q1 38 14 75t25 54.5t14 17.5q51 -27 94.5 -17t57.5 52q20 63 -20 103
q-56 56 -136.5 58t-156.5 -62.5t-109 -184.5q-22 -90 -20 -160t41 -113.5t112 -45.5h8q21 0 29 -2q42 -4 40 -14q-3 -12 -49 -16q-4 -1 -9 -1h-17q-239 -7 -329 -346q-34 -131 21.5 -213t162.5 -82q102 0 210 96.5t179 267.5q36 86 45 68l2 -18q0 -21 -29 -93
q-69 -169 -204.5 -284t-274.5 -115q-75 0 -138 26.5t-106 76.5t-56.5 124t11.5 168zM547 1573q-3 7 -3.5 14.5t3 15t6 13t11 13t12.5 11.5t16 12t15 10.5t16 10.5q2 -15 7.5 -40.5t37.5 -96.5t80 -133q11 -11 0 -21q-11 -9 -33 0q-39 17 -94 80.5t-74 110.5z" />
    <glyph glyph-name="Eacute" unicode="&#xc9;" 
d="M18 352q37 139 148 225.5t244 116.5q-111 35 -168 120t-29 194q27 105 86.5 177.5t130.5 102.5t146.5 35.5t139.5 -16t103 -60.5t44 -115t-32.5 -160t-109.5 -134q-46 -35 -81 -9t-34 103q1 38 14 75t25 54.5t14 17.5q51 -27 94.5 -17t57.5 52q20 63 -20 103
q-56 56 -136.5 58t-156.5 -62.5t-109 -184.5q-22 -90 -20 -160t41 -113.5t112 -45.5h8q21 0 29 -2q42 -4 40 -14q-3 -12 -49 -16q-4 -1 -9 -1h-17q-239 -7 -329 -346q-34 -131 21.5 -213t162.5 -82q102 0 210 96.5t179 267.5q36 86 45 68l2 -18q0 -21 -29 -93
q-69 -169 -204.5 -284t-274.5 -115q-75 0 -138 26.5t-106 76.5t-56.5 124t11.5 168zM831 1548q-34 -55 -91.5 -98.5t-110.5 -65.5q-47 -18 -52 -3q-3 7 7 16q53 43 92 88t57 78t29 59.5t12 40.5l2 14q38 -10 56.5 -54t-1.5 -75z" />
    <glyph glyph-name="Ecircumflex" unicode="&#xca;" 
d="M18 352q37 139 148 225.5t244 116.5q-111 35 -168 120t-29 194q27 105 86.5 177.5t130.5 102.5t146.5 35.5t139.5 -16t103 -60.5t44 -115t-32.5 -160t-109.5 -134q-46 -35 -81 -9t-34 103q1 38 14 75t25 54.5t14 17.5q51 -27 94.5 -17t57.5 52q20 63 -20 103
q-56 56 -136.5 58t-156.5 -62.5t-109 -184.5q-22 -90 -20 -160t41 -113.5t112 -45.5h8q21 0 29 -2q42 -4 40 -14q-3 -12 -49 -16q-4 -1 -9 -1h-17q-239 -7 -329 -346q-34 -131 21.5 -213t162.5 -82q102 0 210 96.5t179 267.5q36 86 45 68l2 -18q0 -21 -29 -93
q-69 -169 -204.5 -284t-274.5 -115q-75 0 -138 26.5t-106 76.5t-56.5 124t11.5 168zM715 1667l-2 -12q17 -150 141 -244q11 -8 -1 -22q-14 -17 -40 -7q-34 13 -69 45t-60 70q-52 -48 -117 -83.5t-121 -31.5q-32 3 -35 21q-2 10 9 14q47 19 90.5 47t76 59t55.5 56.5t43 50.5
t24 29q0 8 6 8z" />
    <glyph glyph-name="Edieresis" unicode="&#xcb;" 
d="M18 352q37 139 148 225.5t244 116.5q-111 35 -168 120t-29 194q27 105 86.5 177.5t130.5 102.5t146.5 35.5t139.5 -16t103 -60.5t44 -115t-32.5 -160t-109.5 -134q-46 -35 -81 -9t-34 103q1 38 14 75t25 54.5t14 17.5q51 -27 94.5 -17t57.5 52q20 63 -20 103
q-56 56 -136.5 58t-156.5 -62.5t-109 -184.5q-22 -90 -20 -160t41 -113.5t112 -45.5h8q21 0 29 -2q42 -4 40 -14q-3 -12 -49 -16q-4 -1 -9 -1h-17q-239 -7 -329 -346q-34 -131 21.5 -213t162.5 -82q102 0 210 96.5t179 267.5q36 86 45 68l2 -18q0 -21 -29 -93
q-69 -169 -204.5 -284t-274.5 -115q-75 0 -138 26.5t-106 76.5t-56.5 124t11.5 168zM580 1436q-21 -38 -72 -51.5t-98 4.5q-47 15 -66 54.5t4 76.5q22 37 72.5 50.5t97.5 -3.5q48 -17 66.5 -55.5t-4.5 -75.5zM915 1436q-21 -38 -72 -51.5t-98 4.5q-47 15 -65.5 54.5
t4.5 76.5t73 50.5t97 -3.5q48 -17 66 -55.5t-5 -75.5z" />
    <glyph glyph-name="Igrave" unicode="&#xcc;" horiz-adv-x="733" 
d="M682 1300q52 5 116 -24t56 -72q-53 -272 -141 -604q-37 -138 -86.5 -249t-102 -182t-110 -120t-111 -69t-103.5 -22.5t-89.5 12.5t-67.5 42q-39 39 -43.5 110.5t33 150.5t110.5 128q42 29 65 -6.5t23 -93.5q0 -22 -6.5 -52t-12.5 -49l-7 -20q-51 29 -95.5 18t-58.5 -53
q-21 -62 23 -102q33 -33 75 -35.5t91.5 33t99 106t101 192.5t94.5 282q125 466 143 630q-119 -25 -224 -92.5t-171 -149t-104 -163t-36 -141.5q1 -75 40 -128t101.5 -72t133.5 -1q18 5 16 -4q-2 -14 -26 -29q-7 -5 -13 -6q-30 -9 -72 -11t-91 8t-92.5 31t-77 63t-42.5 99
q-11 67 9.5 142.5t74.5 151.5t133.5 143.5t195 122.5t249.5 85zM649 1573q-3 7 -3.5 14.5t3 15t6 13t11 13t12.5 11.5t16 12t15 10.5t16 10.5q2 -15 7.5 -40.5t37.5 -96.5t80 -133q11 -11 0 -21q-11 -9 -33 0q-39 17 -94 80.5t-74 110.5z" />
    <glyph glyph-name="Iacute" unicode="&#xcd;" horiz-adv-x="733" 
d="M682 1300q52 5 116 -24t56 -72q-53 -272 -141 -604q-37 -138 -86.5 -249t-102 -182t-110 -120t-111 -69t-103.5 -22.5t-89.5 12.5t-67.5 42q-39 39 -43.5 110.5t33 150.5t110.5 128q42 29 65 -6.5t23 -93.5q0 -22 -6.5 -52t-12.5 -49l-7 -20q-51 29 -95.5 18t-58.5 -53
q-21 -62 23 -102q33 -33 75 -35.5t91.5 33t99 106t101 192.5t94.5 282q125 466 143 630q-119 -25 -224 -92.5t-171 -149t-104 -163t-36 -141.5q1 -75 40 -128t101.5 -72t133.5 -1q18 5 16 -4q-2 -14 -26 -29q-7 -5 -13 -6q-30 -9 -72 -11t-91 8t-92.5 31t-77 63t-42.5 99
q-11 67 9.5 142.5t74.5 151.5t133.5 143.5t195 122.5t249.5 85zM944 1548q-34 -55 -91.5 -98.5t-111.5 -65.5q-47 -18 -52 -3q-3 7 7 16q53 43 92 88t57.5 78t29.5 59.5t13 40.5l1 14q38 -10 56.5 -54t-1.5 -75z" />
    <glyph glyph-name="Icircumflex" unicode="&#xce;" horiz-adv-x="733" 
d="M682 1300q52 5 116 -24t56 -72q-53 -272 -141 -604q-37 -138 -86.5 -249t-102 -182t-110 -120t-111 -69t-103.5 -22.5t-89.5 12.5t-67.5 42q-39 39 -43.5 110.5t33 150.5t110.5 128q42 29 65 -6.5t23 -93.5q0 -22 -6.5 -52t-12.5 -49l-7 -20q-51 29 -95.5 18t-58.5 -53
q-21 -62 23 -102q33 -33 75 -35.5t91.5 33t99 106t101 192.5t94.5 282q125 466 143 630q-119 -25 -224 -92.5t-171 -149t-104 -163t-36 -141.5q1 -75 40 -128t101.5 -72t133.5 -1q18 5 16 -4q-2 -14 -26 -29q-7 -5 -13 -6q-30 -9 -72 -11t-91 8t-92.5 31t-77 63t-42.5 99
q-11 67 9.5 142.5t74.5 151.5t133.5 143.5t195 122.5t249.5 85zM731 1597l4 -12q6 -18 20 -41t42 -58t80 -74t118 -71q17 -7 7 -20q-14 -18 -52 -8q-96 25 -211 125q-48 -40 -134 -64t-167 -20q-47 4 -56 22q-2 9 9 13q212 69 334 200q4 8 6 8z" />
    <glyph glyph-name="Idieresis" unicode="&#xcf;" horiz-adv-x="733" 
d="M682 1300q52 5 116 -24t56 -72q-53 -272 -141 -604q-37 -138 -86.5 -249t-102 -182t-110 -120t-111 -69t-103.5 -22.5t-89.5 12.5t-67.5 42q-39 39 -43.5 110.5t33 150.5t110.5 128q42 29 65 -6.5t23 -93.5q0 -22 -6.5 -52t-12.5 -49l-7 -20q-51 29 -95.5 18t-58.5 -53
q-21 -62 23 -102q33 -33 75 -35.5t91.5 33t99 106t101 192.5t94.5 282q125 466 143 630q-119 -25 -224 -92.5t-171 -149t-104 -163t-36 -141.5q1 -75 40 -128t101.5 -72t133.5 -1q18 5 16 -4q-2 -14 -26 -29q-7 -5 -13 -6q-30 -9 -72 -11t-91 8t-92.5 31t-77 63t-42.5 99
q-11 67 9.5 142.5t74.5 151.5t133.5 143.5t195 122.5t249.5 85zM600 1395q-21 -38 -72 -51.5t-98 4.5q-47 15 -65.5 54.5t4.5 76.5q22 37 72.5 50.5t97.5 -3.5q48 -17 66 -55.5t-5 -75.5zM936 1395q-21 -38 -72 -51.5t-98 4.5q-47 15 -65.5 54.5t4.5 76.5t72.5 50.5
t96.5 -3.5q48 -17 66.5 -55.5t-4.5 -75.5z" />
    <glyph glyph-name="Eth" unicode="&#xd0;" horiz-adv-x="825" 
d="M379 502q-43 -8 -121 6q-8 -32 -17 -71t-21.5 -92.5t-20.5 -88.5q-40 -169 -27 -207q12 -36 68 -12q124 51 255.5 230.5t194.5 430.5q72 288 -5 423.5t-310 90.5q-190 -37 -324 -264q-10 -17 -30 -6q-11 6 -7 12q69 137 174 227t240 122q286 67 408 -86.5t34 -489.5
q-37 -141 -106.5 -266t-154.5 -214t-172 -151t-173 -96q-69 -27 -117.5 -33.5t-85 11t-50 65.5t-6.5 134t38 212q2 11 43 174q-45 19 -104 55q-60 37 -42 46q5 3 15 2q103 -11 154 -13l127 492q30 4 73 -7t74.5 -36t24.5 -53q-9 -32 -23.5 -73t-35 -112.5t-56.5 -210.5
q46 3 82 8.5t49 10.5l12 4q37 -62 17.5 -113.5t-74.5 -60.5z" />
    <glyph glyph-name="Ntilde" unicode="&#xd1;" horiz-adv-x="854" 
d="M516 350l139 543q91 336 40 302q-20 -14 -64 -89q-75 -130 -234.5 -537t-199.5 -569q-6 -15 -11 -20v-5q-22 -4 -40.5 -4.5t-39 3.5t-34.5 18t-23.5 35.5t-8.5 58t13 84.5q153 651 189 795q65 250 28 281q-24 20 -76 -66q0 -1 -1 -2q-37 -59 -65.5 -118.5t-80.5 -182.5
q-32 -72 -42 -71q-5 0 -5 19q0 30 29 95q45 110 71 164t70 124q63 100 140 112q71 12 110 -55q58 -101 2 -306q-2 -7 -4 -13q-83 -284 -139 -540q82 213 175.5 427t145.5 308q64 116 142 162q77 47 113 -16q56 -100 -24 -417l-139 -540q-63 -249 -26 -279q24 -20 77 68
q59 98 146 301q32 76 43 70q4 -5 4 -21q0 -19 -29 -92q-46 -111 -72.5 -164.5t-70.5 -124.5q-63 -100 -139 -113q-70 -12 -108 56q-59 104 -2 316q1 2 1 3zM412 1411q40 68 112 94t162 4q36 -8 64 -3t48 18t33 27t19 25l6 11l7.5 -5t17.5 -14.5t20 -23.5t14 -32.5t0 -41.5
q-9 -46 -46.5 -66.5t-84 -17.5t-96.5 23q-93 37 -143 35.5t-92 -45.5q-14 -12 -23 -9t-14 12z" />
    <glyph glyph-name="Ograve" unicode="&#xd2;" horiz-adv-x="792" 
d="M641 1329q65 -14 94.5 -63t12.5 -131q59 -56 69 -178.5t-39 -321.5q-68 -252 -196 -434q79 -16 147.5 46t118.5 173q31 69 41 70q6 1 6 -21q0 -27 -29 -92q-19 -43 -50 -84.5t-72 -76.5t-92.5 -51.5t-102.5 -4.5q-149 -186 -303 -174q-110 9 -172.5 91t-71 233.5
t48.5 369.5q39 148 96.5 267.5t119.5 194.5t130 123t129 62.5t115 1.5zM596 1171q72 16 121 -14q1 62 -28.5 99t-76.5 47q-90 17 -194 -155t-191 -489q-76 -295 -60.5 -451.5t109.5 -164.5q80 -6 170 170l-22 23q-49 50 -75.5 137.5t-28 185.5t17.5 202t54.5 189.5t89 146.5
t114.5 74zM584 1114q-75 -18 -129.5 -131t-73 -249.5t1 -270.5t78.5 -191l10 -10q66 148 137 375q151 490 -2 481q-10 -1 -22 -4zM553 1573q-3 7 -3.5 14.5t3 15t6 13t11 13t12.5 11.5t16 12t15 10.5t16 10.5q2 -15 7.5 -40.5t37.5 -96.5t80 -133q11 -11 0 -21q-11 -9 -33 0
q-39 17 -94 80.5t-74 110.5z" />
    <glyph glyph-name="Oacute" unicode="&#xd3;" horiz-adv-x="792" 
d="M641 1329q65 -14 94.5 -63t12.5 -131q59 -56 69 -178.5t-39 -321.5q-68 -252 -196 -434q79 -16 147.5 46t118.5 173q31 69 41 70q6 1 6 -21q0 -27 -29 -92q-19 -43 -50 -84.5t-72 -76.5t-92.5 -51.5t-102.5 -4.5q-149 -186 -303 -174q-110 9 -172.5 91t-71 233.5
t48.5 369.5q39 148 96.5 267.5t119.5 194.5t130 123t129 62.5t115 1.5zM596 1171q72 16 121 -14q1 62 -28.5 99t-76.5 47q-90 17 -194 -155t-191 -489q-76 -295 -60.5 -451.5t109.5 -164.5q80 -6 170 170l-22 23q-49 50 -75.5 137.5t-28 185.5t17.5 202t54.5 189.5t89 146.5
t114.5 74zM584 1114q-75 -18 -129.5 -131t-73 -249.5t1 -270.5t78.5 -191l10 -10q66 148 137 375q151 490 -2 481q-10 -1 -22 -4zM821 1567q-34 -55 -91.5 -98.5t-111.5 -65.5q-49 -19 -53 -3q-1 7 8 15q53 43 92 88t57.5 78t29.5 60t12 41l2 14q38 -10 56.5 -54t-1.5 -75z
" />
    <glyph glyph-name="Ocircumflex" unicode="&#xd4;" horiz-adv-x="792" 
d="M641 1329q65 -14 94.5 -63t12.5 -131q59 -56 69 -178.5t-39 -321.5q-68 -252 -196 -434q79 -16 147.5 46t118.5 173q31 69 41 70q6 1 6 -21q0 -27 -29 -92q-19 -43 -50 -84.5t-72 -76.5t-92.5 -51.5t-102.5 -4.5q-149 -186 -303 -174q-110 9 -172.5 91t-71 233.5
t48.5 369.5q39 148 96.5 267.5t119.5 194.5t130 123t129 62.5t115 1.5zM596 1171q72 16 121 -14q1 62 -28.5 99t-76.5 47q-90 17 -194 -155t-191 -489q-76 -295 -60.5 -451.5t109.5 -164.5q80 -6 170 170l-22 23q-49 50 -75.5 137.5t-28 185.5t17.5 202t54.5 189.5t89 146.5
t114.5 74zM584 1114q-75 -18 -129.5 -131t-73 -249.5t1 -270.5t78.5 -191l10 -10q66 148 137 375q151 490 -2 481q-10 -1 -22 -4zM684 1667l-2 -12q17 -150 141 -244q11 -8 -1 -22q-14 -17 -40 -7q-34 13 -69 45t-60 70q-52 -49 -116.5 -84t-120.5 -31q-32 3 -36 21
q-2 10 9 14q47 19 90.5 47t76 59t55.5 56.5t43 50.5t24 29q0 8 6 8z" />
    <glyph glyph-name="Otilde" unicode="&#xd5;" horiz-adv-x="792" 
d="M641 1329q65 -14 94.5 -63t12.5 -131q59 -56 69 -178.5t-39 -321.5q-68 -252 -196 -434q79 -16 147.5 46t118.5 173q31 69 41 70q6 1 6 -21q0 -27 -29 -92q-19 -43 -50 -84.5t-72 -76.5t-92.5 -51.5t-102.5 -4.5q-149 -186 -303 -174q-110 9 -172.5 91t-71 233.5
t48.5 369.5q39 148 96.5 267.5t119.5 194.5t130 123t129 62.5t115 1.5zM596 1171q72 16 121 -14q1 62 -28.5 99t-76.5 47q-90 17 -194 -155t-191 -489q-76 -295 -60.5 -451.5t109.5 -164.5q80 -6 170 170l-22 23q-49 50 -75.5 137.5t-28 185.5t17.5 202t54.5 189.5t89 146.5
t114.5 74zM584 1114q-75 -18 -129.5 -131t-73 -249.5t1 -270.5t78.5 -191l10 -10q66 148 137 375q151 490 -2 481q-10 -1 -22 -4zM436 1456q17 30 39 54.5t50.5 41t62.5 12t67 -33.5q32 -29 61.5 -35.5t49 4.5t34 26t20.5 29l7 13q2 -1 4.5 -3t8.5 -10.5t9.5 -18t2 -26.5
t-9.5 -36q-16 -37 -52.5 -53.5t-77.5 -9.5t-71 34q-91 82 -174 -8q-9 -8 -16 -3.5t-11 13.5z" />
    <glyph glyph-name="Odieresis" unicode="&#xd6;" horiz-adv-x="792" 
d="M641 1329q65 -14 94.5 -63t12.5 -131q59 -56 69 -178.5t-39 -321.5q-68 -252 -196 -434q79 -16 147.5 46t118.5 173q31 69 41 70q6 1 6 -21q0 -27 -29 -92q-19 -43 -50 -84.5t-72 -76.5t-92.5 -51.5t-102.5 -4.5q-149 -186 -303 -174q-110 9 -172.5 91t-71 233.5
t48.5 369.5q39 148 96.5 267.5t119.5 194.5t130 123t129 62.5t115 1.5zM596 1171q72 16 121 -14q1 62 -28.5 99t-76.5 47q-90 17 -194 -155t-191 -489q-76 -295 -60.5 -451.5t109.5 -164.5q80 -6 170 170l-22 23q-49 50 -75.5 137.5t-28 185.5t17.5 202t54.5 189.5t89 146.5
t114.5 74zM584 1114q-75 -18 -129.5 -131t-73 -249.5t1 -270.5t78.5 -191l10 -10q66 148 137 375q151 490 -2 481q-10 -1 -22 -4zM549 1415q-21 -38 -72 -51.5t-98 4.5q-47 15 -66 54.5t4 76.5q22 37 72.5 50.5t97.5 -3.5q48 -17 66.5 -55.5t-4.5 -75.5zM885 1415
q-21 -38 -72 -51.5t-98 4.5q-47 15 -66 54.5t4 76.5t73 50.5t97 -3.5q48 -17 66.5 -55.5t-4.5 -75.5z" />
    <glyph glyph-name="multiply" unicode="&#xd7;" horiz-adv-x="567" 
d="M217 553q39 -27 92 -104q35 41 57.5 76t27.5 50l5 15q67 -16 86.5 -66t-12.5 -92q-27 -41 -98 -96q40 -82 55 -146q17 -66 -1 -63q-5 1 -11 8q-72 87 -125 146q-85 -51 -162 -70q-65 -15 -62 3q2 5 9 11q80 66 143 129q-44 44 -80.5 74.5t-50.5 39.5l-14 9q17 69 58 89
t83 -13z" />
    <glyph glyph-name="Oslash" unicode="&#xd8;" horiz-adv-x="792" 
d="M702 1401q-26 -76 -28 -82q100 -44 74 -184q59 -56 69 -178.5t-39 -321.5q-68 -252 -196 -434q79 -16 147.5 46t118.5 173q31 69 41 70q6 1 6 -21q0 -27 -29 -92q-19 -43 -50 -84.5t-72 -76.5t-92.5 -51.5t-102.5 -4.5q-149 -186 -303 -174q-1 0 -3 1t-3 1l-56 -176
q-40 -4 -46.5 22.5t9.5 65.5l25 102q-126 47 -159.5 217.5t38.5 460.5q38 143 92 258.5t115.5 192t124 123.5t125.5 67l65 258q25 9 49.5 12t48.5 -4t38 -26t13.5 -60t-20.5 -100zM606 1118q-115 -343 -221 -676q19 -119 76 -170l10 -10q66 148 137 375q52 171 66.5 280.5
t-3.5 156t-65 44.5zM434 1032q1 3 53 209q-141 -147 -260 -582q-38 -139 -53 -252.5t-8.5 -189t31.5 -119.5q35 133 122 486q2 122 32 242t83 206zM356 350q-19 -59 -52 -161t-46 -144q3 0 9 -1t9 -1q80 -6 170 170l-22 23q-43 43 -68 114zM662 1282l-35 -106q43 5 90 -19
q0 83 -55 125z" />
    <glyph glyph-name="Ugrave" unicode="&#xd9;" horiz-adv-x="851" 
d="M324 805q0 -2 -68.5 -269t-69.5 -270q-45 -204 -6 -185q22 10 68 87q64 109 256.5 553t218.5 555q0 6 2 8l2 16q51 5 116.5 -24.5t53.5 -71.5q-7 -23 -94 -377q-103 -413 -127 -518q-68 -295 -20 -286q21 4 65 75q67 113 166 342q32 76 43 70q4 -5 4 -21q0 -19 -29 -92
q-84 -200 -164 -329q-79 -125 -155 -140q-68 -14 -99 67q-41 111 9 335q57 250 129 518l14 55q-91 -210 -200.5 -444.5t-157.5 -323.5q-68 -122 -146 -169q-77 -46 -113 17q-57 101 27 423q0 2 68.5 269.5t68.5 268.5q43 155 80 354q27 9 54.5 6t49.5 -14.5t32.5 -46
t3.5 -88.5q-1 -6 -19.5 -85t-39 -166.5t-23.5 -98.5zM467 1573q-3 7 -3.5 14.5t3 15t6 13t11 13t12.5 11.5t16 12t15 10.5t16 10.5q2 -15 7.5 -40.5t37.5 -96.5t80 -133q11 -11 0 -21q-11 -9 -33 0q-39 17 -94 80.5t-74 110.5z" />
    <glyph glyph-name="Uacute" unicode="&#xda;" horiz-adv-x="851" 
d="M324 805q0 -2 -68.5 -269t-69.5 -270q-45 -204 -6 -185q22 10 68 87q64 109 256.5 553t218.5 555q0 6 2 8l2 16q51 5 116.5 -24.5t53.5 -71.5q-7 -23 -94 -377q-103 -413 -127 -518q-68 -295 -20 -286q21 4 65 75q67 113 166 342q32 76 43 70q4 -5 4 -21q0 -19 -29 -92
q-84 -200 -164 -329q-79 -125 -155 -140q-68 -14 -99 67q-41 111 9 335q57 250 129 518l14 55q-91 -210 -200.5 -444.5t-157.5 -323.5q-68 -122 -146 -169q-77 -46 -113 17q-57 101 27 423q0 2 68.5 269.5t68.5 268.5q43 155 80 354q27 9 54.5 6t49.5 -14.5t32.5 -46
t3.5 -88.5q-1 -6 -19.5 -85t-39 -166.5t-23.5 -98.5zM782 1548q-34 -55 -91.5 -98.5t-110.5 -65.5q-47 -18 -52 -3q-3 7 7 16q53 43 92 88t57 78t29 59.5t13 40.5l1 14q38 -10 56.5 -54t-1.5 -75z" />
    <glyph glyph-name="Ucircumflex" unicode="&#xdb;" horiz-adv-x="851" 
d="M324 805q0 -2 -68.5 -269t-69.5 -270q-45 -204 -6 -185q22 10 68 87q64 109 256.5 553t218.5 555q0 6 2 8l2 16q51 5 116.5 -24.5t53.5 -71.5q-7 -23 -94 -377q-103 -413 -127 -518q-68 -295 -20 -286q21 4 65 75q67 113 166 342q32 76 43 70q4 -5 4 -21q0 -19 -29 -92
q-84 -200 -164 -329q-79 -125 -155 -140q-68 -14 -99 67q-41 111 9 335q57 250 129 518l14 55q-91 -210 -200.5 -444.5t-157.5 -323.5q-68 -122 -146 -169q-77 -46 -113 17q-57 101 27 423q0 2 68.5 269.5t68.5 268.5q43 155 80 354q27 9 54.5 6t49.5 -14.5t32.5 -46
t3.5 -88.5q-1 -6 -19.5 -85t-39 -166.5t-23.5 -98.5zM627 1618l4 -12q6 -18 20 -41t42 -58t80 -74t118 -71q17 -7 7 -21q-14 -18 -52 -8q-96 25 -211 125q-48 -40 -134 -64t-167 -20q-47 4 -56 22q-2 9 9 13q211 68 334 201q4 8 6 8z" />
    <glyph glyph-name="Udieresis" unicode="&#xdc;" horiz-adv-x="851" 
d="M324 805q0 -2 -68.5 -269t-69.5 -270q-45 -204 -6 -185q22 10 68 87q64 109 256.5 553t218.5 555q0 6 2 8l2 16q51 5 116.5 -24.5t53.5 -71.5q-7 -23 -94 -377q-103 -413 -127 -518q-68 -295 -20 -286q21 4 65 75q67 113 166 342q32 76 43 70q4 -5 4 -21q0 -19 -29 -92
q-84 -200 -164 -329q-79 -125 -155 -140q-68 -14 -99 67q-41 111 9 335q57 250 129 518l14 55q-91 -210 -200.5 -444.5t-157.5 -323.5q-68 -122 -146 -169q-77 -46 -113 17q-57 101 27 423q0 2 68.5 269.5t68.5 268.5q43 155 80 354q27 9 54.5 6t49.5 -14.5t32.5 -46
t3.5 -88.5q-1 -6 -19.5 -85t-39 -166.5t-23.5 -98.5zM557 1415q-21 -38 -72 -51.5t-98 4.5q-47 15 -65.5 54.5t4.5 76.5q22 37 72.5 50.5t97.5 -3.5q48 -17 66 -55.5t-5 -75.5zM893 1415q-21 -38 -72 -51.5t-98 4.5q-47 15 -65.5 54.5t4.5 76.5t72.5 50.5t96.5 -3.5
q48 -17 66.5 -55.5t-4.5 -75.5z" />
    <glyph glyph-name="Yacute" unicode="&#xdd;" horiz-adv-x="784" 
d="M354 805q-1 -1 -56.5 -230.5t-55.5 -232.5q-46 -201 -8 -186q22 9 69 88q56 96 200 458t195 529l17 69q51 5 116.5 -24.5t53.5 -71.5q-7 -23 -47.5 -195t-98 -405.5t-102.5 -392.5q-28 -99 -68 -193t-86.5 -172t-98 -142.5t-105 -107t-104.5 -63t-99.5 -11.5t-87.5 48
q-41 41 -48.5 108t30 144.5t118.5 132.5q47 32 72.5 -4.5t25.5 -102.5q0 -24 -7.5 -56t-14.5 -52l-8 -21q-55 32 -100 31t-58 -41q-10 -31 -4.5 -61t24.5 -47q27 -27 62 -30.5t77.5 23t85.5 81t87.5 154t81.5 232.5q129 463 196 770q-182 -454 -274 -620q-67 -123 -145 -169
q-77 -46 -113 18q-56 100 26 421q0 2 56.5 232t56.5 231q14 44 26 94t18.5 79.5t18.5 93.5t17 87q27 9 54.5 6t49.5 -14.5t33 -46t4 -88.5q-1 -6 -19.5 -85t-39 -166.5t-23.5 -98.5zM786 1548q-34 -55 -91.5 -98.5t-110.5 -65.5q-47 -18 -52 -3q-3 7 7 16q53 43 92 88t57 78
t29 59.5t13 40.5l1 14q38 -10 56.5 -54t-1.5 -75z" />
    <glyph glyph-name="Thorn" unicode="&#xde;" horiz-adv-x="866" 
d="M207 160h-4l-37 -185q-25 -6 -47.5 -6t-46 9t-35 31t-16 60.5t11.5 98.5q86 351 178 758q-81 -54 -143 -160q-10 -18 -30 -9q-13 7 -9 15q79 149 198 225q24 105 40 181.5t20 100.5l4 24q50 7 116 -23t54 -72l-37 -133q8 0 12 2q87 15 167 -7t138 -71.5t86 -130
t13 -176.5q-18 -113 -82 -210.5t-154.5 -162.5t-192.5 -106t-204 -53zM221 233l-10 -38q113 16 208.5 85t155.5 171t78 219q25 163 -48.5 247.5t-203.5 73.5q-60 -240 -180 -758z" />
    <glyph glyph-name="germandbls" unicode="&#xdf;" horiz-adv-x="882" 
d="M664 1333q62 -30 85 -89.5t9 -125t-55 -132.5t-101 -114q69 -59 112 -114q169 -215 114 -453q-1 -2 -1 -4q-28 -117 -98.5 -195.5t-152 -104.5t-165 -11.5t-139.5 71.5q-48 49 -54 134.5t35 174.5t118 142q32 19 60 17.5t48 -34.5t21 -89q0 -26 -7 -50t-17 -39t-20 -25.5
t-17 -15.5t-7 -4q-52 25 -94.5 6.5t-58.5 -63.5q-10 -31 -3.5 -68.5t25.5 -54.5q39 -36 84 -41t89 18t85 78.5t70 135.5q21 55 24 109.5t-10 102t-30.5 87t-44.5 76t-44.5 57t-38.5 41.5q-34 34 -43 47t-7 24t22 31q44 44 83.5 101t64.5 111t40 102t14 82t-18 44
q-16 9 -33 11.5t-40 -5t-46.5 -27.5t-51.5 -60.5t-55.5 -98.5t-58.5 -147.5t-61 -202.5q-13 -53 -63.5 -264.5t-106.5 -435.5q-29 -114 -70.5 -206.5t-86.5 -151.5t-94 -100t-95.5 -58t-89 -20t-76 8.5t-55.5 33.5q-42 42 -48 103.5t35.5 130.5t130.5 116q51 28 72 -4
t14 -92q-3 -24 -12.5 -50t-18.5 -40.5t-10 -13.5q-104 72 -145 -3q-18 -33 -14.5 -64t24.5 -52q26 -26 57.5 -29.5t70 21.5t77 79t80.5 154t78 236q49 188 98.5 401.5t71.5 298.5l31 106h-64q-44 0 -42 14q1 10 24 19h92q40 114 89 200t97 133t95.5 75.5t90.5 34t75 1.5
t57 -16z" />
    <glyph glyph-name="agrave" unicode="&#xe0;" horiz-adv-x="735" 
d="M27 453q25 96 67 168t91 111t103 55.5t105.5 9t95.5 -36.5l21 80q50 7 116 -23t54 -72q-3 -15 -15.5 -58.5t-41 -153.5t-68.5 -275q-32 -130 4 -155q23 -15 54 21q6 8 12 17q26 40 49 85t38.5 81.5t57.5 134.5q31 70 41 71q6 0 6 -21q0 -20 -29 -93
q-44 -108 -70.5 -161.5t-72.5 -126.5q-50 -80 -112.5 -105t-109.5 21.5t-50 156.5q-13 -26 -58 -86q-85 -107 -172 -91q-74 13 -113 105q-56 134 -5 335zM399 393q0 5 4 17l5 20l73 289q-81 65 -154.5 -18t-123.5 -269q-48 -176 -24 -284q15 -68 54 -65q29 3 64 48
q34 43 51.5 86t42.5 143q5 26 8 33zM367 1094q-3 7 -3.5 14.5t3 15t6.5 13t10.5 13t12 11.5t15.5 11.5t15.5 10.5t15.5 11q2 -15 7.5 -40.5t37.5 -96.5t80 -133q11 -11 0 -21q-11 -9 -32 0q-39 17 -94 80.5t-74 110.5z" />
    <glyph glyph-name="aacute" unicode="&#xe1;" horiz-adv-x="735" 
d="M27 453q25 96 67 168t91 111t103 55.5t105.5 9t95.5 -36.5l21 80q50 7 116 -23t54 -72q-3 -15 -15.5 -58.5t-41 -153.5t-68.5 -275q-32 -130 4 -155q23 -15 54 21q6 8 12 17q26 40 49 85t38.5 81.5t57.5 134.5q31 70 41 71q6 0 6 -21q0 -20 -29 -93
q-44 -108 -70.5 -161.5t-72.5 -126.5q-50 -80 -112.5 -105t-109.5 21.5t-50 156.5q-13 -26 -58 -86q-85 -107 -172 -91q-74 13 -113 105q-56 134 -5 335zM399 393q0 5 4 17l5 20l73 289q-81 65 -154.5 -18t-123.5 -269q-48 -176 -24 -284q15 -68 54 -65q29 3 64 48
q34 43 51.5 86t42.5 143q5 26 8 33zM686 1065q-34 -55 -91.5 -98.5t-111.5 -65.5q-49 -19 -53 -3q0 7 8 15q53 43 92 88t57.5 78t29.5 60t13 41l1 14q38 -10 56.5 -54t-1.5 -75z" />
    <glyph glyph-name="acircumflex" unicode="&#xe2;" horiz-adv-x="735" 
d="M27 453q25 96 67 168t91 111t103 55.5t105.5 9t95.5 -36.5l21 80q50 7 116 -23t54 -72q-3 -15 -15.5 -58.5t-41 -153.5t-68.5 -275q-32 -130 4 -155q23 -15 54 21q6 8 12 17q26 40 49 85t38.5 81.5t57.5 134.5q31 70 41 71q6 0 6 -21q0 -20 -29 -93
q-44 -108 -70.5 -161.5t-72.5 -126.5q-50 -80 -112.5 -105t-109.5 21.5t-50 156.5q-13 -26 -58 -86q-85 -107 -172 -91q-74 13 -113 105q-56 134 -5 335zM399 393q0 5 4 17l5 20l73 289q-81 65 -154.5 -18t-123.5 -269q-48 -176 -24 -284q15 -68 54 -65q29 3 64 48
q34 43 51.5 86t42.5 143q5 26 8 33zM551 1188l-2 -12q17 -150 141 -244q11 -8 -1 -22q-14 -17 -40 -7q-34 13 -69 45t-60 70q-52 -49 -116.5 -84t-120.5 -31q-32 3 -36 21q-2 10 9 14q47 19 90.5 47t76 59t55.5 56.5t43 50.5t24 29q0 8 6 8z" />
    <glyph glyph-name="atilde" unicode="&#xe3;" horiz-adv-x="735" 
d="M27 453q25 96 67 168t91 111t103 55.5t105.5 9t95.5 -36.5l21 80q50 7 116 -23t54 -72q-3 -15 -15.5 -58.5t-41 -153.5t-68.5 -275q-32 -130 4 -155q23 -15 54 21q6 8 12 17q26 40 49 85t38.5 81.5t57.5 134.5q31 70 41 71q6 0 6 -21q0 -20 -29 -93
q-44 -108 -70.5 -161.5t-72.5 -126.5q-50 -80 -112.5 -105t-109.5 21.5t-50 156.5q-13 -26 -58 -86q-85 -107 -172 -91q-74 13 -113 105q-56 134 -5 335zM399 393q0 5 4 17l5 20l73 289q-81 65 -154.5 -18t-123.5 -269q-48 -176 -24 -284q15 -68 54 -65q29 3 64 48
q34 43 51.5 86t42.5 143q5 26 8 33zM281 977q17 30 39 54.5t50.5 41t62.5 12t67 -33.5q32 -29 61.5 -35.5t49 4t34 25.5t21.5 29l6 13q2 -1 4.5 -3t8.5 -10.5t9 -18t1.5 -26.5t-9.5 -36q-16 -37 -52.5 -53t-77.5 -9t-71 34q-91 82 -174 -9q-9 -8 -15.5 -3.5t-10.5 14.5z" />
    <glyph glyph-name="adieresis" unicode="&#xe4;" horiz-adv-x="735" 
d="M27 453q25 96 67 168t91 111t103 55.5t105.5 9t95.5 -36.5l21 80q50 7 116 -23t54 -72q-3 -15 -15.5 -58.5t-41 -153.5t-68.5 -275q-32 -130 4 -155q23 -15 54 21q6 8 12 17q26 40 49 85t38.5 81.5t57.5 134.5q31 70 41 71q6 0 6 -21q0 -20 -29 -93
q-44 -108 -70.5 -161.5t-72.5 -126.5q-50 -80 -112.5 -105t-109.5 21.5t-50 156.5q-13 -26 -58 -86q-85 -107 -172 -91q-74 13 -113 105q-56 134 -5 335zM399 393q0 5 4 17l5 20l73 289q-81 65 -154.5 -18t-123.5 -269q-48 -176 -24 -284q15 -68 54 -65q29 3 64 48
q34 43 51.5 86t42.5 143q5 26 8 33zM397 965q-21 -38 -72 -51.5t-98 4.5q-47 15 -65.5 54.5t4.5 76.5q22 37 72.5 50.5t97.5 -3.5q48 -17 66 -55.5t-5 -75.5zM733 965q-21 -38 -72 -51.5t-98 4.5q-47 15 -65.5 54.5t4.5 76.5t73 50.5t97 -3.5q48 -17 66 -55.5t-5 -75.5z" />
    <glyph glyph-name="aring" unicode="&#xe5;" horiz-adv-x="735" 
d="M27 453q25 96 67 168t91 111t103 55.5t105.5 9t95.5 -36.5l21 80q50 7 116 -23t54 -72q-3 -15 -15.5 -58.5t-41 -153.5t-68.5 -275q-32 -130 4 -155q23 -15 54 21q6 8 12 17q26 40 49 85t38.5 81.5t57.5 134.5q31 70 41 71q6 0 6 -21q0 -20 -29 -93
q-44 -108 -70.5 -161.5t-72.5 -126.5q-50 -80 -112.5 -105t-109.5 21.5t-50 156.5q-13 -26 -58 -86q-85 -107 -172 -91q-74 13 -113 105q-56 134 -5 335zM399 393q0 5 4 17l5 20l73 289q-81 65 -154.5 -18t-123.5 -269q-48 -176 -24 -284q15 -68 54 -65q29 3 64 48
q34 43 51.5 86t42.5 143q5 26 8 33zM618 934q-39 -46 -115.5 -61t-146.5 14t-93 87.5t16 104.5q39 45 115.5 60t148.5 -13q68 -29 91 -88.5t-16 -103.5zM500 938q28 31 32 73t-18 70t-55.5 26t-61.5 -34q-28 -31 -32 -73t18 -68q22 -28 55.5 -26.5t61.5 32.5z" />
    <glyph glyph-name="ae" unicode="&#xe6;" horiz-adv-x="978" 
d="M27 453q25 95 68 167t92.5 111t103.5 56t105.5 9.5t95.5 -36.5l20 80q33 5 82 -9.5t74 -39.5q82 30 154 17.5t116 -56.5q19 -20 21.5 -54.5t-10.5 -77t-44.5 -91.5t-76.5 -97t-110.5 -95t-142.5 -83q6 -81 40.5 -128.5t89.5 -47.5q157 0 309 364q36 86 45 68q2 -5 2 -18
q0 -20 -29 -93q-33 -81 -73 -149.5t-89.5 -126t-110 -90.5t-124.5 -33q-95 0 -159.5 68.5t-76.5 185.5q-14 -48 -31.5 -80t-52.5 -76q-85 -107 -172 -91q-74 13 -113 105q-56 134 -5 335zM408 420q0 2 1 7t1 7l71 287q-80 65 -153 -18.5t-123 -270.5q-49 -178 -24 -285
q15 -65 52 -63q30 2 66 47q34 43 51.5 87.5t46.5 156.5q0 6 4 18l5 21v2q0 2 2 4zM618 506q-7 -24 -20.5 -81t-19.5 -79q-3 -30 -3 -55q71 37 126 89.5t83.5 105t43.5 101.5t13 84.5t-16 49.5q-13 13 -29 18.5t-38 -2.5t-43.5 -31.5t-47 -74.5t-49.5 -125z" />
    <glyph glyph-name="ccedilla" unicode="&#xe7;" horiz-adv-x="585" 
d="M539 756q40 -39 44.5 -100t-33 -129t-110.5 -119q-30 -22 -49.5 -13.5t-29 33t-9.5 59.5q0 22 7 47t13 40l7 14q51 -28 94.5 -17.5t58.5 52.5q20 60 -22 102q-26 26 -58 31.5t-66.5 -13t-67.5 -57t-63.5 -104t-53.5 -150.5q-25 -101 -20 -179.5t33 -126.5t67 -48
q90 0 179 93.5t163 270.5q29 70 39 71q6 0 6 -21q0 -25 -27 -93q-64 -154 -163.5 -261.5t-211.5 -131.5l-33 -67q98 32 170.5 -3.5t51.5 -111.5q-14 -50 -51 -90t-84.5 -62.5t-87.5 -35t-78 -17.5q-2 1 -5 3t-8.5 7t-7 9.5t5 9.5t23.5 8q60 9 108 52t66 97q18 56 -14 80.5
t-109 3.5q-5 0 -11 1t-12.5 8t-1.5 20l37 82h-14q-71 0 -126 58t-75 158.5t13 236.5q25 97 67.5 170.5t90.5 112.5t100.5 60t101 19t89 -17t67.5 -42z" />
    <glyph glyph-name="egrave" unicode="&#xe8;" horiz-adv-x="581" 
d="M541 752q19 -20 21.5 -54.5t-10.5 -77t-44.5 -91.5t-76.5 -97t-110.5 -95t-142.5 -83q6 -81 40 -128.5t89 -47.5q157 0 309 364q32 77 43 70q5 -2 5 -20q0 -20 -29 -93q-33 -81 -73 -149.5t-89.5 -126t-110 -90.5t-124.5 -33q-133 0 -200 129.5t-15 323.5q25 97 67.5 170
t90.5 112t101 59t101.5 18t89.5 -17.5t68 -42.5zM199 432q-21 -76 -21 -141q71 37 126 89.5t83.5 105t43.5 101.5t13 84.5t-16 49.5q-14 15 -31.5 20t-41.5 -6.5t-48.5 -42.5t-53 -97.5t-54.5 -162.5zM256 1094q-3 7 -3.5 14.5t3 15t6 13t11 13t12.5 11.5t16 12t15 10.5
t16 10.5q2 -15 7.5 -40.5t37.5 -96.5t80 -133q11 -11 0 -21q-11 -9 -33 0q-39 17 -94 80.5t-74 110.5z" />
    <glyph glyph-name="eacute" unicode="&#xe9;" horiz-adv-x="581" 
d="M541 752q19 -20 21.5 -54.5t-10.5 -77t-44.5 -91.5t-76.5 -97t-110.5 -95t-142.5 -83q6 -81 40 -128.5t89 -47.5q157 0 309 364q32 77 43 70q5 -2 5 -20q0 -20 -29 -93q-33 -81 -73 -149.5t-89.5 -126t-110 -90.5t-124.5 -33q-133 0 -200 129.5t-15 323.5q25 97 67.5 170
t90.5 112t101 59t101.5 18t89.5 -17.5t68 -42.5zM199 432q-21 -76 -21 -141q71 37 126 89.5t83.5 105t43.5 101.5t13 84.5t-16 49.5q-14 15 -31.5 20t-41.5 -6.5t-48.5 -42.5t-53 -97.5t-54.5 -162.5zM547 1065q-34 -55 -91.5 -98.5t-111.5 -65.5q-49 -19 -53 -3q0 7 8 15
q53 43 92 88t57.5 78t29.5 60t12 41l2 14q38 -10 56.5 -54t-1.5 -75z" />
    <glyph glyph-name="ecircumflex" unicode="&#xea;" horiz-adv-x="581" 
d="M541 752q19 -20 21.5 -54.5t-10.5 -77t-44.5 -91.5t-76.5 -97t-110.5 -95t-142.5 -83q6 -81 40 -128.5t89 -47.5q157 0 309 364q32 77 43 70q5 -2 5 -20q0 -20 -29 -93q-33 -81 -73 -149.5t-89.5 -126t-110 -90.5t-124.5 -33q-133 0 -200 129.5t-15 323.5q25 97 67.5 170
t90.5 112t101 59t101.5 18t89.5 -17.5t68 -42.5zM199 432q-21 -76 -21 -141q71 37 126 89.5t83.5 105t43.5 101.5t13 84.5t-16 49.5q-14 15 -31.5 20t-41.5 -6.5t-48.5 -42.5t-53 -97.5t-54.5 -162.5zM475 1188l-2 -12q17 -150 141 -244q11 -8 -1 -22q-14 -17 -40 -7
q-34 13 -69 45t-60 70q-52 -49 -116.5 -84t-120.5 -31q-32 3 -36 21q-2 10 9 14q47 19 90.5 47t76 59t55.5 56.5t43 50.5t24 29q0 8 6 8z" />
    <glyph glyph-name="edieresis" unicode="&#xeb;" horiz-adv-x="581" 
d="M541 752q19 -20 21.5 -54.5t-10.5 -77t-44.5 -91.5t-76.5 -97t-110.5 -95t-142.5 -83q6 -81 40 -128.5t89 -47.5q157 0 309 364q32 77 43 70q5 -2 5 -20q0 -20 -29 -93q-33 -81 -73 -149.5t-89.5 -126t-110 -90.5t-124.5 -33q-133 0 -200 129.5t-15 323.5q25 97 67.5 170
t90.5 112t101 59t101.5 18t89.5 -17.5t68 -42.5zM199 432q-21 -76 -21 -141q71 37 126 89.5t83.5 105t43.5 101.5t13 84.5t-16 49.5q-14 15 -31.5 20t-41.5 -6.5t-48.5 -42.5t-53 -97.5t-54.5 -162.5zM322 965q-21 -38 -72 -51.5t-98 4.5q-47 15 -66 54.5t4 76.5
q22 37 72.5 50.5t97.5 -3.5q48 -17 66.5 -55.5t-4.5 -75.5zM657 965q-21 -38 -72 -51.5t-98 4.5q-47 15 -65.5 54.5t4.5 76.5t73 50.5t97 -3.5q48 -17 66 -55.5t-5 -75.5z" />
    <glyph glyph-name="igrave" unicode="&#xec;" horiz-adv-x="356" 
d="M115 795q30 3 72 -8.5t73 -36t25 -52.5l-90 -344q-65 -257 -26 -282q25 -15 77 69q55 92 145 301q36 86 45 68q2 -5 2 -18q0 -26 -30 -93q-43 -106 -69.5 -160.5t-72.5 -127.5q-64 -102 -141 -115q-70 -12 -108 59q-55 105 1 318q103 387 97 422zM106 1094
q-3 7 -3.5 14.5t3 15t6 13t11 13t12.5 11.5t16 12t15 10.5t16 10.5q2 -15 7.5 -40.5t37.5 -96.5t80 -133q11 -11 0 -21q-11 -9 -33 0q-39 17 -94 80.5t-74 110.5z" />
    <glyph glyph-name="iacute" unicode="&#xed;" horiz-adv-x="356" 
d="M115 795q30 3 72 -8.5t73 -36t25 -52.5l-90 -344q-65 -257 -26 -282q25 -15 77 69q55 92 145 301q36 86 45 68q2 -5 2 -18q0 -26 -30 -93q-43 -106 -69.5 -160.5t-72.5 -127.5q-64 -102 -141 -115q-70 -12 -108 59q-55 105 1 318q103 387 97 422zM410 1065
q-34 -55 -91.5 -98.5t-111.5 -65.5q-49 -19 -53 -3q0 7 8 15q53 43 92 88t57 78t29 60t12 41l2 14q38 -10 57 -54t-1 -75z" />
    <glyph glyph-name="icircumflex" unicode="&#xee;" horiz-adv-x="356" 
d="M115 795q30 3 72 -8.5t73 -36t25 -52.5l-90 -344q-65 -257 -26 -282q25 -15 77 69q55 92 145 301q36 86 45 68q2 -5 2 -18q0 -26 -30 -93q-43 -106 -69.5 -160.5t-72.5 -127.5q-64 -102 -141 -115q-70 -12 -108 59q-55 105 1 318q103 387 97 422zM258 1167l4 -12
q6 -18 20 -41t42 -58t80 -74t118 -71q17 -7 7 -20q-13 -19 -52 -8q-96 25 -211 125q-48 -40 -134 -64t-167 -20q-47 4 -56 21q-2 9 9 13q211 68 334 201q4 8 6 8z" />
    <glyph glyph-name="idieresis" unicode="&#xef;" horiz-adv-x="356" 
d="M115 795q30 3 72 -8.5t73 -36t25 -52.5l-90 -344q-65 -257 -26 -282q25 -15 77 69q55 92 145 301q36 86 45 68q2 -5 2 -18q0 -26 -30 -93q-43 -106 -69.5 -160.5t-72.5 -127.5q-64 -102 -141 -115q-70 -12 -108 59q-55 105 1 318q103 387 97 422zM188 944
q-21 -38 -72 -51.5t-98 4.5q-47 15 -65.5 54.5t4.5 76.5q22 37 72.5 50.5t97.5 -3.5q48 -17 66 -55.5t-5 -75.5zM524 944q-21 -38 -72 -51.5t-98 4.5q-47 15 -65.5 54.5t4.5 76.5t73 50.5t97 -3.5q48 -17 66 -55.5t-5 -75.5z" />
    <glyph glyph-name="eth" unicode="&#xf0;" horiz-adv-x="673" 
d="M418 1053l80 10q-31 129 -136 129q-2 4 -3 10t13 16.5t50 10.5q160 0 221 -150l80 11q101 10 80 -9q-4 -4 -12 -8q-18 -11 -95 -20l-43 -6q41 -130 11 -347q-29 -203 -133.5 -381.5t-262.5 -275.5q-95 -58 -167 -27.5t-93.5 142t25.5 303.5q31 119 88.5 200t123 112
t133 27.5t122.5 -42.5q21 170 4 272l-115 -14q-45 -5 -44 10q1 9 22 21q31 4 51 6zM461 547q20 83 33 168q-83 75 -158 -5.5t-127 -271.5q-60 -220 -31 -321q22 -72 81 -39l3 2q48 30 102.5 156.5t96.5 310.5z" />
    <glyph glyph-name="ntilde" unicode="&#xf1;" 
d="M-29 193q50 212 81 362.5t36 194.5l6 45q92 0 136 -29.5t26 -97.5q-5 -21 -34 -142.5t-62 -263.5q91 211 192 373q75 118 150 160q81 45 108 -34q37 -107 -39 -407q-64 -252 -26 -281q23 -18 75 66q0 1 1 2q59 94 145 301q31 70 41 71q6 0 6 -21q0 -20 -29 -93
q-44 -109 -70.5 -162.5t-72.5 -125.5q-63 -100 -139 -113q-70 -12 -108 56q-58 104 0 315l1 4q86 315 54 314q-16 0 -74 -87q-67 -99 -149 -280.5t-109 -296.5q-4 -14 -8 -19.5t-9 -3.5q-25 -5 -46.5 -4.5t-44.5 9.5t-34 31t-15 60.5t11 96.5zM125 981q40 68 112 94t162 4
q36 -8 64 -3t48 18t33 27t19 25l6 11q3 -2 8 -5t17.5 -14t21 -24t13 -33t0.5 -41q-9 -45 -47 -66t-84.5 -18t-96.5 23q-93 37 -143 35.5t-92 -45.5q-14 -12 -23 -9t-13 12z" />
    <glyph glyph-name="ograve" unicode="&#xf2;" horiz-adv-x="679" 
d="M453 795q109 -28 112 -142q41 -40 52.5 -110t-11.5 -164q-15 -59 -39 -111q136 14 207 174q33 70 42 71q6 0 7 -21q0 -26 -30 -93q-34 -78 -100 -121.5t-144 -48.5q-60 -112 -151.5 -171t-204.5 -50q-120 11 -167.5 132.5t-0.5 301.5q21 80 53 144t68.5 102.5t78 66
t81 36t78.5 11.5t69 -7zM465 696q31 0 55 -12q-22 68 -94 82q-55 11 -116 -78.5t-109 -265.5q-39 -149 -32.5 -252.5t54.5 -103.5q35 0 82.5 51.5t87.5 146.5q-28 20 -41 33q-51 48 -66.5 118t2 131.5t65 105.5t112.5 44zM377 336q11 -11 35 -27l24 72q81 262 6 262
q-65 0 -97.5 -60t-22.5 -134t55 -113zM315 1094q-3 7 -3.5 14.5t3 15t6 13t11 13t12.5 11.5t16 12t15 10.5t16 10.5q2 -15 7.5 -40.5t37.5 -96.5t80 -133q11 -11 0 -21q-11 -9 -33 0q-39 17 -94 80.5t-74 110.5z" />
    <glyph glyph-name="oacute" unicode="&#xf3;" horiz-adv-x="679" 
d="M453 795q109 -28 112 -142q41 -40 52.5 -110t-11.5 -164q-15 -59 -39 -111q136 14 207 174q33 70 42 71q6 0 7 -21q0 -26 -30 -93q-34 -78 -100 -121.5t-144 -48.5q-60 -112 -151.5 -171t-204.5 -50q-120 11 -167.5 132.5t-0.5 301.5q21 80 53 144t68.5 102.5t78 66
t81 36t78.5 11.5t69 -7zM465 696q31 0 55 -12q-22 68 -94 82q-55 11 -116 -78.5t-109 -265.5q-39 -149 -32.5 -252.5t54.5 -103.5q35 0 82.5 51.5t87.5 146.5q-28 20 -41 33q-51 48 -66.5 118t2 131.5t65 105.5t112.5 44zM377 336q11 -11 35 -27l24 72q81 262 6 262
q-65 0 -97.5 -60t-22.5 -134t55 -113zM621 1065q-34 -55 -91.5 -98.5t-111.5 -65.5q-49 -19 -53 -3q0 7 8 15q53 43 92 88t57 78t29 60t13 41l1 14q38 -10 57 -54t-1 -75z" />
    <glyph glyph-name="ocircumflex" unicode="&#xf4;" horiz-adv-x="679" 
d="M453 795q109 -28 112 -142q41 -40 52.5 -110t-11.5 -164q-15 -59 -39 -111q136 14 207 174q33 70 42 71q6 0 7 -21q0 -26 -30 -93q-34 -78 -100 -121.5t-144 -48.5q-60 -112 -151.5 -171t-204.5 -50q-120 11 -167.5 132.5t-0.5 301.5q21 80 53 144t68.5 102.5t78 66
t81 36t78.5 11.5t69 -7zM465 696q31 0 55 -12q-22 68 -94 82q-55 11 -116 -78.5t-109 -265.5q-39 -149 -32.5 -252.5t54.5 -103.5q35 0 82.5 51.5t87.5 146.5q-28 20 -41 33q-51 48 -66.5 118t2 131.5t65 105.5t112.5 44zM377 336q11 -11 35 -27l24 72q81 262 6 262
q-65 0 -97.5 -60t-22.5 -134t55 -113zM504 1188l-2 -12q17 -150 141 -244q11 -8 -1 -22q-14 -17 -40 -7q-34 13 -69 45t-60 70q-52 -49 -116.5 -84t-120.5 -31q-32 3 -36 21q-2 10 9 14q47 19 90.5 47t76 59t55.5 56.5t43 50.5t24 29q0 8 6 8z" />
    <glyph glyph-name="otilde" unicode="&#xf5;" horiz-adv-x="679" 
d="M453 795q109 -28 112 -142q41 -40 52.5 -110t-11.5 -164q-15 -59 -39 -111q136 14 207 174q33 70 42 71q6 0 7 -21q0 -26 -30 -93q-34 -78 -100 -121.5t-144 -48.5q-60 -112 -151.5 -171t-204.5 -50q-120 11 -167.5 132.5t-0.5 301.5q21 80 53 144t68.5 102.5t78 66
t81 36t78.5 11.5t69 -7zM465 696q31 0 55 -12q-22 68 -94 82q-55 11 -116 -78.5t-109 -265.5q-39 -149 -32.5 -252.5t54.5 -103.5q35 0 82.5 51.5t87.5 146.5q-28 20 -41 33q-51 48 -66.5 118t2 131.5t65 105.5t112.5 44zM377 336q11 -11 35 -27l24 72q81 262 6 262
q-65 0 -97.5 -60t-22.5 -134t55 -113zM256 977q17 30 39 54.5t50.5 41t62.5 12t67 -33.5q32 -29 61.5 -35.5t49 4t34 25.5t20.5 29l7 13q2 -1 4.5 -3t8.5 -10.5t9.5 -18t2 -26.5t-9.5 -36q-16 -37 -52.5 -53t-77.5 -9t-71 34q-91 82 -174 -9q-9 -8 -16 -3.5t-11 14.5z" />
    <glyph glyph-name="odieresis" unicode="&#xf6;" horiz-adv-x="679" 
d="M453 795q109 -28 112 -142q41 -40 52.5 -110t-11.5 -164q-15 -59 -39 -111q136 14 207 174q33 70 42 71q6 0 7 -21q0 -26 -30 -93q-34 -78 -100 -121.5t-144 -48.5q-60 -112 -151.5 -171t-204.5 -50q-120 11 -167.5 132.5t-0.5 301.5q21 80 53 144t68.5 102.5t78 66
t81 36t78.5 11.5t69 -7zM465 696q31 0 55 -12q-22 68 -94 82q-55 11 -116 -78.5t-109 -265.5q-39 -149 -32.5 -252.5t54.5 -103.5q35 0 82.5 51.5t87.5 146.5q-28 20 -41 33q-51 48 -66.5 118t2 131.5t65 105.5t112.5 44zM377 336q11 -11 35 -27l24 72q81 262 6 262
q-65 0 -97.5 -60t-22.5 -134t55 -113zM348 965q-21 -38 -72 -51.5t-98 4.5q-47 15 -65.5 54.5t4.5 76.5q22 37 72.5 50.5t97.5 -3.5q48 -17 66 -55.5t-5 -75.5zM684 965q-21 -38 -72 -51.5t-98 4.5q-47 15 -65.5 54.5t4.5 76.5t73 50.5t97 -3.5q48 -17 66 -55.5t-5 -75.5z
" />
    <glyph glyph-name="divide" unicode="&#xf7;" horiz-adv-x="403" 
d="M264 106q-22 -37 -71.5 -51.5t-96.5 0.5q-47 17 -66.5 59t3.5 79q22 37 71.5 51.5t96.5 -0.5q47 -17 66.5 -59t-3.5 -79zM371 528q-23 -37 -73 -51.5t-97 0.5q-48 17 -67.5 58.5t3.5 78.5q24 37 72 53t96 -1q47 -17 67.5 -59t-1.5 -79zM373 276q-68 -13 -191 25.5
t-207 91.5q-61 38 -40 46q5 2 14 1q184 -16 291 -13.5t148 13.5l42 11q37 -62 17.5 -114t-74.5 -61z" />
    <glyph glyph-name="oslash" unicode="&#xf8;" horiz-adv-x="679" 
d="M602 905l-76 -149q36 -36 39 -103q41 -40 52.5 -110t-11.5 -164q-15 -59 -39 -111q136 14 207 174q33 70 42 71q6 0 7 -21q0 -26 -30 -93q-34 -78 -100 -121.5t-144 -48.5q-60 -112 -151.5 -171t-204.5 -50q-33 4 -50 10l-102 -198q-28 1 -37.5 14.5t-5 31.5t17.5 46
l62 147q-58 55 -72 154t19 229q25 99 66.5 171.5t91.5 111.5t98.5 57t99.5 19l119 299q22 4 42.5 4.5t41.5 -4.5t34 -19t19 -35.5t-2.5 -57.5t-32.5 -83zM352 297q-21 19 -39 47l-129 -250q12 -28 39 -28q35 0 82.5 51.5t87.5 146.5q-28 20 -41 33zM377 336q11 -11 35 -27
l24 72q66 218 27 254l-125 -244q10 -30 39 -55zM201 422q-23 -90 -27 -131l182 450q-90 -76 -155 -319zM520 684q-6 17 -16 31q-2 -3 -5 -11.5t-5 -11.5q20 -5 26 -8z" />
    <glyph glyph-name="ugrave" unicode="&#xf9;" horiz-adv-x="759" 
d="M424 393l27 109q-74 -164 -181 -334q-73 -116 -148 -158q-80 -45 -108 32q-39 106 39 409q38 149 59.5 247t23.5 121l3 23q52 7 114.5 -18t59.5 -68q-1 -15 -3.5 -30t-9.5 -42t-14.5 -53.5t-24 -84t-32.5 -114.5q-86 -315 -54 -315q17 0 75 86q68 103 156 290.5
t114 299.5l4 16l8 31q73 10 111 -17t40.5 -82t-15.5 -131q-23 -85 -90 -352q-31 -133 6 -155q24 -15 56 25q5 6 9 13q37 57 64 113.5t82 187.5q36 86 45 68l2 -18q0 -23 -31 -93q-44 -107 -70 -161t-71 -127q-58 -93 -132 -109q-72 -16 -111 53q-61 105 -3 338zM287 1094
q-3 7 -3.5 14.5t3 15t6.5 13t10.5 13t12 11.5t15.5 11.5t15.5 10.5t15.5 11q2 -15 7.5 -40.5t37.5 -96.5t80 -133q11 -11 0 -21q-11 -9 -32 0q-39 17 -94 80.5t-74 110.5z" />
    <glyph glyph-name="uacute" unicode="&#xfa;" horiz-adv-x="759" 
d="M424 393l27 109q-74 -164 -181 -334q-73 -116 -148 -158q-80 -45 -108 32q-39 106 39 409q38 149 59.5 247t23.5 121l3 23q52 7 114.5 -18t59.5 -68q-1 -15 -3.5 -30t-9.5 -42t-14.5 -53.5t-24 -84t-32.5 -114.5q-86 -315 -54 -315q17 0 75 86q68 103 156 290.5
t114 299.5l4 16l8 31q73 10 111 -17t40.5 -82t-15.5 -131q-23 -85 -90 -352q-31 -133 6 -155q24 -15 56 25q5 6 9 13q37 57 64 113.5t82 187.5q36 86 45 68l2 -18q0 -23 -31 -93q-44 -107 -70 -161t-71 -127q-58 -93 -132 -109q-72 -16 -111 53q-61 105 -3 338zM602 1065
q-34 -55 -91.5 -98.5t-111.5 -65.5q-49 -19 -53 -3q0 7 8 15q53 43 92 88t57.5 78t29.5 60t13 41l1 14q38 -10 56.5 -54t-1.5 -75z" />
    <glyph glyph-name="ucircumflex" unicode="&#xfb;" horiz-adv-x="759" 
d="M424 393l27 109q-74 -164 -181 -334q-73 -116 -148 -158q-80 -45 -108 32q-39 106 39 409q38 149 59.5 247t23.5 121l3 23q52 7 114.5 -18t59.5 -68q-1 -15 -3.5 -30t-9.5 -42t-14.5 -53.5t-24 -84t-32.5 -114.5q-86 -315 -54 -315q17 0 75 86q68 103 156 290.5
t114 299.5l4 16l8 31q73 10 111 -17t40.5 -82t-15.5 -131q-23 -85 -90 -352q-31 -133 6 -155q24 -15 56 25q5 6 9 13q37 57 64 113.5t82 187.5q36 86 45 68l2 -18q0 -23 -31 -93q-44 -107 -70 -161t-71 -127q-58 -93 -132 -109q-72 -16 -111 53q-61 105 -3 338zM479 1188
l4 -12q6 -18 20 -41t42 -58t80 -74t118 -71q17 -7 7 -21q-14 -18 -52 -8q-96 25 -211 125q-48 -40 -134 -64t-167 -20q-47 4 -56 22q-5 9 9 13q211 68 334 201q4 8 6 8z" />
    <glyph glyph-name="udieresis" unicode="&#xfc;" horiz-adv-x="759" 
d="M424 393l27 109q-74 -164 -181 -334q-73 -116 -148 -158q-80 -45 -108 32q-39 106 39 409q38 149 59.5 247t23.5 121l3 23q52 7 114.5 -18t59.5 -68q-1 -15 -3.5 -30t-9.5 -42t-14.5 -53.5t-24 -84t-32.5 -114.5q-86 -315 -54 -315q17 0 75 86q68 103 156 290.5
t114 299.5l4 16l8 31q73 10 111 -17t40.5 -82t-15.5 -131q-23 -85 -90 -352q-31 -133 6 -155q24 -15 56 25q5 6 9 13q37 57 64 113.5t82 187.5q36 86 45 68l2 -18q0 -23 -31 -93q-44 -107 -70 -161t-71 -127q-58 -93 -132 -109q-72 -16 -111 53q-61 105 -3 338zM369 965
q-21 -38 -72 -51.5t-98 4.5q-47 15 -66 54.5t4 76.5q22 37 72.5 50.5t97.5 -3.5q48 -17 66.5 -55.5t-4.5 -75.5zM705 965q-21 -38 -72 -51.5t-98 4.5q-47 15 -66 54.5t4 76.5t73 50.5t97 -3.5q48 -17 66.5 -55.5t-4.5 -75.5z" />
    <glyph glyph-name="yacute" unicode="&#xfd;" horiz-adv-x="667" 
d="M514 68q-42 -157 -105.5 -271.5t-129 -170.5t-131.5 -79.5t-118 -14t-83 41.5q-41 40 -47.5 102t35.5 131.5t131 116.5q51 27 72 -4.5t14 -91.5q-3 -24 -13 -50.5t-19 -41.5l-9 -15q-103 74 -148 -2q-17 -31 -13 -62t25 -52q26 -26 57.5 -30t70 21t77.5 79t80.5 154.5
t77.5 236.5q63 239 121 487q-81 -186 -205 -385q-73 -116 -148 -158q-81 -45 -109 33q-39 106 38 408q39 149 61 247t24 121l3 23q30 4 71 -4t73 -30.5t30 -51.5q-1 -18 -6 -42.5t-13 -51.5t-27 -93.5t-38 -136.5q-86 -315 -54 -315q16 0 74 86q70 105 160.5 295t116.5 301
q0 2 1 5t1 5l4 33q30 4 72.5 -6.5t73.5 -35t24 -52.5q-1 -3 -13.5 -60t-52 -213.5t-106.5 -406.5zM600 1065q-34 -55 -91.5 -98.5t-111.5 -65.5q-49 -19 -53 -3q0 7 8 15q53 43 92 88t57.5 78t29.5 60t13 41l1 14q38 -10 56.5 -54t-1.5 -75z" />
    <glyph glyph-name="thorn" unicode="&#xfe;" horiz-adv-x="626" 
d="M575 358q-31 -119 -87.5 -200t-121 -114t-130.5 -32t-121 37q-13 -52 -36 -151t-30 -129q-20 -83 -33.5 -148t-17.5 -89l-4 -24q-22 -4 -40 -4.5t-37.5 3.5t-32 18t-20.5 35.5t-6.5 58t13.5 84.5q100 412 191 811.5t132 592.5l42 193q51 5 116.5 -24.5t53.5 -71.5
q-37 -122 -156 -598q43 69 80 111q98 109 177 82q70 -23 91 -140q23 -125 -23 -301zM197 385q-13 -49 -37 -149.5t-37 -149.5q82 -59 154 24t122 269q61 221 40 311q-17 75 -87 1q-4 -4 -8 -9q-89 -100 -147 -297z" />
    <glyph glyph-name="ydieresis" unicode="&#xff;" horiz-adv-x="667" 
d="M514 68q-42 -157 -105.5 -271.5t-129 -170.5t-131.5 -79.5t-118 -14t-83 41.5q-41 40 -47.5 102t35.5 131.5t131 116.5q51 27 72 -4.5t14 -91.5q-3 -24 -13 -50.5t-19 -41.5l-9 -15q-103 74 -148 -2q-17 -31 -13 -62t25 -52q26 -26 57.5 -30t70 21t77.5 79t80.5 154.5
t77.5 236.5q63 239 121 487q-81 -186 -205 -385q-73 -116 -148 -158q-81 -45 -109 33q-39 106 38 408q39 149 61 247t24 121l3 23q30 4 71 -4t73 -30.5t30 -51.5q-1 -18 -6 -42.5t-13 -51.5t-27 -93.5t-38 -136.5q-86 -315 -54 -315q16 0 74 86q70 105 160.5 295t116.5 301
q0 2 1 5t1 5l4 33q30 4 72.5 -6.5t73.5 -35t24 -52.5q-1 -3 -13.5 -60t-52 -213.5t-106.5 -406.5zM362 965q-21 -38 -71.5 -51.5t-97.5 4.5q-47 15 -66 54.5t4 76.5q22 37 72.5 50.5t97.5 -3.5q48 -17 66 -55.5t-5 -75.5zM698 965q-21 -38 -72 -51.5t-98 4.5
q-47 15 -65.5 54.5t4.5 76.5t73 50.5t97 -3.5q48 -17 66 -55.5t-5 -75.5z" />
    <glyph glyph-name="Amacron" unicode="&#x100;" horiz-adv-x="1146" 
d="M1022 1300q51 5 116.5 -24.5t53.5 -71.5q-14 -48 -92 -377q-113 -456 -127 -518q-70 -295 -22 -286q22 4 65 75q77 129 166 342q32 76 43 70q4 -5 4 -21q0 -19 -29 -92q-84 -200 -164 -329q-39 -62 -82.5 -96.5t-80 -35t-65 28.5t-38.5 93.5t0 158.5h-360
q-88 -134 -174.5 -189t-163.5 -12q-60 33 -70 104.5t36.5 146t135.5 108.5q60 24 82.5 -5.5t15.5 -93.5q-2 -17 -8 -33.5t-13.5 -29t-14 -22.5t-11 -15t-4.5 -4q-107 72 -153 -4q-18 -34 -9 -68.5t39 -48.5q49 -22 112 22t150 179q99 151 348.5 550t313.5 498zM920 848
q52 185 79 326q-60 -96 -269.5 -436.5t-293.5 -475.5h340l15 68q57 250 129 518zM1319 1348q-71 -12 -194.5 18t-202.5 78q-67 42 -39 47h10q185 -14 292.5 -7t148.5 24l42 16q36 -62 17 -113.5t-74 -62.5z" />
    <glyph glyph-name="amacron" unicode="&#x101;" horiz-adv-x="735" 
d="M27 453q25 96 67 168t91 111t103 55.5t105.5 9t95.5 -36.5l21 80q50 7 116 -23t54 -72q-3 -15 -15.5 -58.5t-41 -153.5t-68.5 -275q-32 -130 4 -155q23 -15 54 21q6 8 12 17q26 40 49 85t38.5 81.5t57.5 134.5q31 70 41 71q6 0 6 -21q0 -20 -29 -93
q-44 -108 -70.5 -161.5t-72.5 -126.5q-50 -80 -112.5 -105t-109.5 21.5t-50 156.5q-13 -26 -58 -86q-85 -107 -172 -91q-74 13 -113 105q-56 134 -5 335zM399 393q0 5 4 17l5 20l73 289q-81 65 -154.5 -18t-123.5 -269q-48 -176 -24 -284q15 -68 54 -65q29 3 64 48
q34 43 51.5 86t42.5 143q5 26 8 33zM635 918q-71 -12 -194.5 18t-202.5 78q-67 42 -39 47h10q185 -14 292.5 -7t148.5 24l42 16q36 -62 17 -113.5t-74 -62.5z" />
    <glyph glyph-name="Abreve" unicode="&#x102;" horiz-adv-x="1146" 
d="M1022 1300q51 5 116.5 -24.5t53.5 -71.5q-14 -48 -92 -377q-113 -456 -127 -518q-70 -295 -22 -286q22 4 65 75q77 129 166 342q32 76 43 70q4 -5 4 -21q0 -19 -29 -92q-84 -200 -164 -329q-39 -62 -82.5 -96.5t-80 -35t-65 28.5t-38.5 93.5t0 158.5h-360
q-88 -134 -174.5 -189t-163.5 -12q-60 33 -70 104.5t36.5 146t135.5 108.5q60 24 82.5 -5.5t15.5 -93.5q-2 -17 -8 -33.5t-13.5 -29t-14 -22.5t-11 -15t-4.5 -4q-107 72 -153 -4q-18 -34 -9 -68.5t39 -48.5q49 -22 112 22t150 179q99 151 348.5 550t313.5 498zM920 848
q52 185 79 326q-60 -96 -269.5 -436.5t-293.5 -475.5h340l15 68q57 250 129 518zM1008 1567q1 2 3 4t8 8.5t11.5 9.5t11 5t10 -3t5.5 -16q5 -58 28.5 -85t94.5 -30q120 -5 202 109q0 4 21 12q26 9 25 -9q0 -3 -1 -5q-15 -68 -98.5 -136.5t-175.5 -64.5q-165 7 -145 201z" />
    <glyph glyph-name="abreve" unicode="&#x103;" horiz-adv-x="735" 
d="M27 453q25 96 67 168t91 111t103 55.5t105.5 9t95.5 -36.5l21 80q50 7 116 -23t54 -72q-3 -15 -15.5 -58.5t-41 -153.5t-68.5 -275q-32 -130 4 -155q23 -15 54 21q6 8 12 17q26 40 49 85t38.5 81.5t57.5 134.5q31 70 41 71q6 0 6 -21q0 -20 -29 -93
q-44 -108 -70.5 -161.5t-72.5 -126.5q-50 -80 -112.5 -105t-109.5 21.5t-50 156.5q-13 -26 -58 -86q-85 -107 -172 -91q-74 13 -113 105q-56 134 -5 335zM399 393q0 5 4 17l5 20l73 289q-81 65 -154.5 -18t-123.5 -269q-48 -176 -24 -284q15 -68 54 -65q29 3 64 48
q34 43 51.5 86t42.5 143q5 26 8 33zM328 1116q1 2 3 4t8 8.5t11.5 9.5t11 5t10 -3t5.5 -16q5 -58 28 -84.5t95 -29.5q121 -6 202 108q0 3 21 11q27 10 26 -9q0 -2 -1 -4q-15 -68 -98.5 -136.5t-176.5 -64.5q-165 7 -145 201z" />
    <glyph glyph-name="Aogonek" unicode="&#x104;" horiz-adv-x="1146" 
d="M1022 1300q51 5 116.5 -24.5t53.5 -71.5q-14 -48 -92 -377q-113 -456 -127 -518q-70 -295 -22 -286q22 4 65 75q77 129 166 342q32 76 43 70q4 -5 4 -21q0 -19 -29 -92q-84 -200 -164 -329q-53 -84 -111 -115t-100 -2q-55 -24 -104 -74.5t-66 -105.5q-24 -74 14 -112
t130 -13q0 2 12 -4t14.5 -13.5t-14.5 -17.5q-46 -22 -102.5 -27t-104 7.5t-71.5 51.5t-7 99q24 81 102 142t171 96q-49 68 -29 237h-360q-88 -134 -174.5 -189t-163.5 -12q-60 33 -70 104.5t36.5 146t135.5 108.5q60 24 82.5 -5.5t15.5 -93.5q-2 -17 -8 -33.5t-13.5 -29
t-14 -22.5t-11 -15t-4.5 -4q-107 72 -153 -4q-18 -34 -9 -68.5t39 -48.5q49 -22 112 22t150 179q99 151 348.5 550t313.5 498zM920 848q52 185 79 326q-60 -96 -269.5 -436.5t-293.5 -475.5h340l15 68q57 250 129 518z" />
    <glyph glyph-name="aogonek" unicode="&#x105;" horiz-adv-x="735" 
d="M27 453q25 96 67 168t91 111t103 55.5t105.5 9t95.5 -36.5l21 80q50 7 116 -23t54 -72q-3 -15 -15.5 -58.5t-41 -153.5t-68.5 -275q-32 -130 4 -155q23 -15 54 21q6 8 12 17q26 40 49 85t38.5 81.5t57.5 134.5q31 70 41 71q6 0 6 -21q0 -20 -29 -93
q-44 -108 -70.5 -161.5t-72.5 -126.5q-36 -59 -82 -88t-88 -23q-55 -24 -103 -73.5t-65 -104.5q-24 -74 14 -112t130 -13q0 2 12 -4t14.5 -13.5t-14.5 -17.5q-46 -22 -102.5 -27t-104 7.5t-71.5 51.5t-7 99q21 76 92 134.5t158 92.5q-52 49 -55 164q-13 -26 -58 -86
q-85 -107 -172 -91q-74 13 -113 105q-56 134 -5 335zM399 393q0 5 4 17l5 20l73 289q-81 65 -154.5 -18t-123.5 -269q-48 -176 -24 -284q15 -68 54 -65q29 3 64 48q34 43 51.5 86t42.5 143q5 26 8 33z" />
    <glyph glyph-name="Cacute" unicode="&#x106;" horiz-adv-x="690" 
d="M788 1247q39 -39 44 -115t-32.5 -160t-109.5 -134q-46 -33 -78 -1t-28 109q2 36 13 69t20.5 48.5t11.5 15.5q51 -27 94 -17t57 52q20 63 -20 103q-24 24 -56.5 32.5t-71.5 -1.5t-81 -36.5t-86.5 -77t-86 -118.5t-81.5 -165t-72 -212q-53 -199 -48 -333t47.5 -202.5
t111.5 -68.5q101 0 205.5 96t175.5 268q36 86 45 68l2 -18q0 -21 -29 -93q-69 -170 -200.5 -284.5t-268.5 -114.5q-76 0 -135 45t-94.5 129t-34 221.5t46.5 306.5q36 138 89.5 249.5t112 182.5t123 120t126 69t117.5 22.5t99.5 -12.5t71.5 -43zM795 1419q-52 -23 -185 -35.5
t-213 -9.5q-55 3 -63 22q-5 9 12 13q122 34 220.5 78.5t136.5 72.5l38 27q24 -19 46.5 -53.5t28.5 -67.5t-21 -47z" />
    <glyph glyph-name="cacute" unicode="&#x107;" horiz-adv-x="585" 
d="M539 756q40 -39 44.5 -100t-33 -129t-110.5 -119q-30 -22 -49.5 -13.5t-29 33t-9.5 59.5q0 22 7 47t13 40l7 14q51 -28 94.5 -17.5t58.5 52.5q20 60 -22 102q-26 26 -58 31.5t-66.5 -13t-67.5 -57t-63.5 -104t-53.5 -150.5q-25 -101 -20 -179.5t33 -126.5t67 -48
q90 0 179 93.5t163 270.5q29 70 39 71q6 0 6 -21q0 -25 -27 -93q-73 -174 -188 -286.5t-242 -112.5q-71 0 -126 58t-75 158.5t13 236.5q25 97 67.5 170.5t90.5 112.5t100.5 60t101 19t89 -17t67.5 -42zM625 969q-52 -23 -185 -35.5t-213 -9.5q-57 4 -63 22q-3 8 10 11
q1 1 2 1q77 21 146 47.5t112.5 48.5t76 41.5t46.5 30.5l14 11q24 -19 46.5 -53.5t28.5 -67.5t-21 -47z" />
    <glyph glyph-name="Ccircumflex" unicode="&#x108;" horiz-adv-x="690" 
d="M788 1247q39 -39 44 -115t-32.5 -160t-109.5 -134q-46 -33 -78 -1t-28 109q2 36 13 69t20.5 48.5t11.5 15.5q51 -27 94 -17t57 52q20 63 -20 103q-24 24 -56.5 32.5t-71.5 -1.5t-81 -36.5t-86.5 -77t-86 -118.5t-81.5 -165t-72 -212q-53 -199 -48 -333t47.5 -202.5
t111.5 -68.5q101 0 205.5 96t175.5 268q36 86 45 68l2 -18q0 -21 -29 -93q-69 -170 -200.5 -284.5t-268.5 -114.5q-76 0 -135 45t-94.5 129t-34 221.5t46.5 306.5q36 138 89.5 249.5t112 182.5t123 120t126 69t117.5 22.5t99.5 -12.5t71.5 -43zM649 1597l4 -12q6 -18 20 -41
t42 -58t80 -74t118 -71q17 -7 7 -20q-14 -18 -52 -8q-96 25 -211 125q-48 -40 -134 -64t-167 -20q-47 4 -56 22q-2 9 9 13q212 69 334 200q4 8 6 8z" />
    <glyph glyph-name="ccircumflex" unicode="&#x109;" horiz-adv-x="585" 
d="M539 756q40 -39 44.5 -100t-33 -129t-110.5 -119q-30 -22 -49.5 -13.5t-29 33t-9.5 59.5q0 22 7 47t13 40l7 14q51 -28 94.5 -17.5t58.5 52.5q20 60 -22 102q-26 26 -58 31.5t-66.5 -13t-67.5 -57t-63.5 -104t-53.5 -150.5q-25 -101 -20 -179.5t33 -126.5t67 -48
q90 0 179 93.5t163 270.5q29 70 39 71q6 0 6 -21q0 -25 -27 -93q-73 -174 -188 -286.5t-242 -112.5q-71 0 -126 58t-75 158.5t13 236.5q25 97 67.5 170.5t90.5 112.5t100.5 60t101 19t89 -17t67.5 -42zM412 1147l4 -12q6 -18 20 -41t42 -58t80 -74t118 -71q17 -7 7 -21
q-14 -18 -52 -8q-96 25 -211 125q-48 -40 -134 -64t-167 -20q-47 4 -56 22q-5 9 9 13q211 68 334 201q4 8 6 8z" />
    <glyph glyph-name="Cdotaccent" unicode="&#x10a;" horiz-adv-x="690" 
d="M788 1247q39 -39 44 -115t-32.5 -160t-109.5 -134q-46 -33 -78 -1t-28 109q2 36 13 69t20.5 48.5t11.5 15.5q51 -27 94 -17t57 52q20 63 -20 103q-24 24 -56.5 32.5t-71.5 -1.5t-81 -36.5t-86.5 -77t-86 -118.5t-81.5 -165t-72 -212q-53 -199 -48 -333t47.5 -202.5
t111.5 -68.5q101 0 205.5 96t175.5 268q36 86 45 68l2 -18q0 -21 -29 -93q-69 -170 -200.5 -284.5t-268.5 -114.5q-76 0 -135 45t-94.5 129t-34 221.5t46.5 306.5q36 138 89.5 249.5t112 182.5t123 120t126 69t117.5 22.5t99.5 -12.5t71.5 -43zM772 1430q-23 -38 -73 -52
t-97 4q-47 15 -66 54.5t3 76.5q23 37 74 51t98 -3q48 -17 66 -55.5t-5 -75.5z" />
    <glyph glyph-name="cdotaccent" unicode="&#x10b;" horiz-adv-x="585" 
d="M539 756q40 -39 44.5 -100t-33 -129t-110.5 -119q-30 -22 -49.5 -13.5t-29 33t-9.5 59.5q0 22 7 47t13 40l7 14q51 -28 94.5 -17.5t58.5 52.5q20 60 -22 102q-26 26 -58 31.5t-66.5 -13t-67.5 -57t-63.5 -104t-53.5 -150.5q-25 -101 -20 -179.5t33 -126.5t67 -48
q90 0 179 93.5t163 270.5q29 70 39 71q6 0 6 -21q0 -25 -27 -93q-73 -174 -188 -286.5t-242 -112.5q-71 0 -126 58t-75 158.5t13 236.5q25 97 67.5 170.5t90.5 112.5t100.5 60t101 19t89 -17t67.5 -42zM504 965q-23 -38 -73 -51.5t-97 4.5q-47 15 -66.5 54.5t2.5 76.5
q23 37 74 50.5t98 -3.5q48 -17 66.5 -55.5t-4.5 -75.5z" />
    <glyph glyph-name="Ccaron" unicode="&#x10c;" horiz-adv-x="690" 
d="M788 1247q39 -39 44 -115t-32.5 -160t-109.5 -134q-46 -33 -78 -1t-28 109q2 36 13 69t20.5 48.5t11.5 15.5q51 -27 94 -17t57 52q20 63 -20 103q-24 24 -56.5 32.5t-71.5 -1.5t-81 -36.5t-86.5 -77t-86 -118.5t-81.5 -165t-72 -212q-53 -199 -48 -333t47.5 -202.5
t111.5 -68.5q101 0 205.5 96t175.5 268q36 86 45 68l2 -18q0 -21 -29 -93q-69 -170 -200.5 -284.5t-268.5 -114.5q-76 0 -135 45t-94.5 129t-34 221.5t46.5 306.5q36 138 89.5 249.5t112 182.5t123 120t126 69t117.5 22.5t99.5 -12.5t71.5 -43zM645 1350q-1 0 -2 2.5
t-2.5 7.5t-3.5 8q-8 20 -22.5 43.5t-43 57.5t-78.5 70.5t-114 66.5q-17 7 -7 21q13 18 54 7q47 -13 104 -48.5t103 -76.5q48 40 134 64t169 20q47 -2 56 -21q5 -9 -9 -13q-74 -24 -138.5 -57t-104.5 -64t-61.5 -51t-31.5 -33z" />
    <glyph glyph-name="ccaron" unicode="&#x10d;" horiz-adv-x="585" 
d="M539 756q40 -39 44.5 -100t-33 -129t-110.5 -119q-30 -22 -49.5 -13.5t-29 33t-9.5 59.5q0 22 7 47t13 40l7 14q51 -28 94.5 -17.5t58.5 52.5q20 60 -22 102q-26 26 -58 31.5t-66.5 -13t-67.5 -57t-63.5 -104t-53.5 -150.5q-25 -101 -20 -179.5t33 -126.5t67 -48
q90 0 179 93.5t163 270.5q29 70 39 71q6 0 6 -21q0 -25 -27 -93q-73 -174 -188 -286.5t-242 -112.5q-71 0 -126 58t-75 158.5t13 236.5q25 97 67.5 170.5t90.5 112.5t100.5 60t101 19t89 -17t67.5 -42zM381 879q-1 0 -2 2.5t-2.5 7.5t-3.5 8q-8 20 -22.5 43.5t-43 57.5
t-78.5 70.5t-114 66.5q-17 7 -7 21q13 18 54 7q47 -13 104 -48.5t103 -76.5q48 40 134 64t169 20q47 -2 56 -21q5 -10 -9 -14q-74 -24 -138.5 -57t-104.5 -63.5t-61.5 -50.5t-31.5 -33z" />
    <glyph glyph-name="Dcaron" unicode="&#x10e;" horiz-adv-x="825" 
d="M428 1303q286 67 408 -86.5t34 -489.5q-37 -141 -106.5 -266t-154.5 -214t-172 -151t-173 -96q-69 -27 -117.5 -33.5t-85 11t-50 65.5t-6.5 134t38 212l193 756q30 4 73 -7t74.5 -36t24.5 -53q-9 -33 -24.5 -78t-29.5 -92t-54 -206t-101 -417q-40 -169 -27 -207
q12 -36 68 -12q124 51 255.5 230.5t194.5 430.5q72 288 -5 423.5t-310 90.5q-190 -37 -324 -264q-10 -17 -30 -6q-11 6 -7 12q69 137 174 227t240 122zM606 1384q-1 0 -2 3t-2.5 8t-3.5 8q-8 20 -22.5 43.5t-43 57t-78.5 70t-114 66.5q-17 7 -7 21q13 19 54 8
q47 -13 104 -48.5t103 -76.5q48 40 134 64t169 20q47 -2 56 -21q5 -10 -9 -14q-74 -24 -138.5 -57t-104.5 -63.5t-61.5 -50.5t-31.5 -33z" />
    <glyph glyph-name="dcaron" unicode="&#x10f;" horiz-adv-x="735" 
d="M27 453q31 118 87.5 199.5t121 114t130 31.5t121.5 -36l127 541q51 5 116.5 -25t53.5 -72q-39 -140 -229 -948q-31 -133 5 -155q24 -15 56 25q5 6 9 13q26 40 49 85t38.5 81.5t57.5 134.5q36 86 45 68l2 -18q0 -20 -29 -93q-44 -108 -70.5 -161.5t-72.5 -126.5
q-50 -80 -112.5 -104.5t-109.5 22t-50 155.5q-13 -26 -58 -86q-86 -107 -173 -91q-74 13 -112 105q-56 133 -5 335zM399 393q0 9 4 17q0 7 3 10q27 112 71 301q-80 62 -152 -21.5t-122 -267.5q-48 -176 -24 -284q15 -68 54 -65q29 3 64 48q34 43 51.5 86t42.5 143q5 26 8 33
zM1063 1386q-5 -75 -54 -204.5t-118 -227.5q-40 -55 -57 -49q-8 3 -5 19q22 88 34 172t13 140.5t-1.5 100.5t-6.5 65l-4 21q32 14 79 19t85 -9t35 -47z" />
    <glyph glyph-name="Dcroat" unicode="&#x110;" horiz-adv-x="825" 
d="M369 612q-33 -5 -86 -2q-16 -63 -84 -354q-40 -169 -27 -207q12 -36 68 -12q124 51 255.5 230.5t194.5 430.5q72 288 -5 423.5t-310 90.5q-190 -37 -324 -264q-10 -17 -30 -6q-11 6 -7 12q69 137 174 227t240 122q286 67 408 -86.5t34 -489.5q-37 -141 -106.5 -266
t-154.5 -214t-172 -151t-173 -96q-69 -27 -117.5 -33.5t-85 11t-50 65.5t-6.5 134t38 212l63 260q-78 24 -135 60q-65 41 -39 47q4 1 11 0q99 -11 188 -11l105 400q30 4 73 -7t74.5 -36t24.5 -53q-5 -16 -31 -92.5t-58 -198.5q35 5 61.5 12.5t35.5 12.5l10 5
q36 -62 17 -113.5t-74 -62.5z" />
    <glyph glyph-name="dcroat" unicode="&#x111;" horiz-adv-x="735" 
d="M803 928q-29 -7 -90 0l-158 -670q-31 -133 5 -155q24 -15 56 25q5 6 9 13q26 40 49 85t38.5 81.5t57.5 134.5q36 86 45 68l2 -18q0 -20 -29 -93q-44 -108 -70.5 -161.5t-72.5 -126.5q-50 -80 -112.5 -104.5t-109.5 22t-50 155.5q-13 -26 -58 -86q-86 -107 -173 -91
q-74 13 -112 105q-56 133 -5 335l2 6q31 118 87.5 199.5t121 114t130 31.5t121.5 -36l52 217q-77 28 -133 65q-60 37 -42 46q5 3 15 2q105 -12 184 -15l51 226q51 5 116.5 -25t53.5 -72l-34 -125q36 3 63.5 8t36.5 9l10 4q37 -62 17.5 -113.5t-74.5 -60.5zM399 393q0 9 4 17
q0 7 3 10q27 112 71 301q-80 62 -152 -21.5t-122 -267.5q-48 -176 -24 -284q15 -68 54 -65q29 3 64 48q34 43 51.5 86t42.5 143q5 26 8 33z" />
    <glyph glyph-name="Emacron" unicode="&#x112;" 
d="M18 352q37 139 148 225.5t244 116.5q-111 35 -168 120t-29 194q27 105 86.5 177.5t130.5 102.5t146.5 35.5t139.5 -16t103 -60.5t44 -115t-32.5 -160t-109.5 -134q-46 -35 -81 -9t-34 103q1 38 14 75t25 54.5t14 17.5q51 -27 94.5 -17t57.5 52q20 63 -20 103
q-56 56 -136.5 58t-156.5 -62.5t-109 -184.5q-22 -90 -20 -160t41 -113.5t112 -45.5h8q21 0 29 -2q42 -4 40 -14q-3 -12 -49 -16q-4 -1 -9 -1h-17q-239 -7 -329 -346q-34 -131 21.5 -213t162.5 -82q102 0 210 96.5t179 267.5q36 86 45 68l2 -18q0 -21 -29 -93
q-69 -169 -204.5 -284t-274.5 -115q-75 0 -138 26.5t-106 76.5t-56.5 124t11.5 168zM741 1389q-71 -12 -194.5 18t-202.5 78q-67 42 -39 47h10q185 -14 293 -7t150 23l41 17q36 -62 16.5 -113.5t-74.5 -62.5z" />
    <glyph glyph-name="emacron" unicode="&#x113;" horiz-adv-x="581" 
d="M541 752q19 -20 21.5 -54.5t-10.5 -77t-44.5 -91.5t-76.5 -97t-110.5 -95t-142.5 -83q6 -81 40 -128.5t89 -47.5q157 0 309 364q32 77 43 70q5 -2 5 -20q0 -20 -29 -93q-33 -81 -73 -149.5t-89.5 -126t-110 -90.5t-124.5 -33q-133 0 -200 129.5t-15 323.5q25 97 67.5 170
t90.5 112t101 59t101.5 18t89.5 -17.5t68 -42.5zM199 432q-21 -76 -21 -141q71 37 126 89.5t83.5 105t43.5 101.5t13 84.5t-16 49.5q-14 15 -31.5 20t-41.5 -6.5t-48.5 -42.5t-53 -97.5t-54.5 -162.5zM545 918q-71 -12 -195 18t-203 78q-65 41 -39 47q4 1 11 0
q185 -14 292.5 -7t148.5 24l42 16q36 -62 17 -113.5t-74 -62.5z" />
    <glyph glyph-name="Ebreve" unicode="&#x114;" 
d="M18 352q37 139 148 225.5t244 116.5q-111 35 -168 120t-29 194q27 105 86.5 177.5t130.5 102.5t146.5 35.5t139.5 -16t103 -60.5t44 -115t-32.5 -160t-109.5 -134q-46 -35 -81 -9t-34 103q1 38 14 75t25 54.5t14 17.5q51 -27 94.5 -17t57.5 52q20 63 -20 103
q-56 56 -136.5 58t-156.5 -62.5t-109 -184.5q-22 -90 -20 -160t41 -113.5t112 -45.5h8q21 0 29 -2q42 -4 40 -14q-3 -12 -49 -16q-4 -1 -9 -1h-17q-239 -7 -329 -346q-34 -131 21.5 -213t162.5 -82q102 0 210 96.5t179 267.5q36 86 45 68l2 -18q0 -21 -29 -93
q-69 -169 -204.5 -284t-274.5 -115q-75 0 -138 26.5t-106 76.5t-56.5 124t11.5 168zM373 1653q2 2 4.5 6t9.5 11.5t13.5 10.5t14 -1t11.5 -19q17 -57 70.5 -93t130.5 -40q72 -4 127 31t86 96q0 3 18 11q28 12 25 -12v-3q-6 -35 -29.5 -78.5t-60 -84t-89 -67t-106.5 -22.5
q-46 3 -84 26t-65 60.5t-45 78.5t-31 89z" />
    <glyph glyph-name="ebreve" unicode="&#x115;" horiz-adv-x="581" 
d="M541 752q19 -20 21.5 -54.5t-10.5 -77t-44.5 -91.5t-76.5 -97t-110.5 -95t-142.5 -83q6 -81 40 -128.5t89 -47.5q157 0 309 364q32 77 43 70q5 -2 5 -20q0 -20 -29 -93q-33 -81 -73 -149.5t-89.5 -126t-110 -90.5t-124.5 -33q-133 0 -200 129.5t-15 323.5q25 97 67.5 170
t90.5 112t101 59t101.5 18t89.5 -17.5t68 -42.5zM199 432q-21 -76 -21 -141q71 37 126 89.5t83.5 105t43.5 101.5t13 84.5t-16 49.5q-14 15 -31.5 20t-41.5 -6.5t-48.5 -42.5t-53 -97.5t-54.5 -162.5zM135 1141q2 2 4.5 6t9.5 11.5t13.5 10.5t14 -1t11.5 -19
q17 -57 70.5 -93t130.5 -40q72 -4 127 31t86 96q0 3 18 11q28 12 25 -12v-3q-6 -35 -29.5 -78.5t-60 -84t-89 -67t-106.5 -22.5q-46 3 -84 26t-65 60.5t-45 78.5t-31 89z" />
    <glyph glyph-name="Edotaccent" unicode="&#x116;" 
d="M18 352q37 139 148 225.5t244 116.5q-111 35 -168 120t-29 194q27 105 86.5 177.5t130.5 102.5t146.5 35.5t139.5 -16t103 -60.5t44 -115t-32.5 -160t-109.5 -134q-46 -35 -81 -9t-34 103q1 38 14 75t25 54.5t14 17.5q51 -27 94.5 -17t57.5 52q20 63 -20 103
q-56 56 -136.5 58t-156.5 -62.5t-109 -184.5q-22 -90 -20 -160t41 -113.5t112 -45.5h8q21 0 29 -2q42 -4 40 -14q-3 -12 -49 -16q-4 -1 -9 -1h-17q-239 -7 -329 -346q-34 -131 21.5 -213t162.5 -82q102 0 210 96.5t179 267.5q36 86 45 68l2 -18q0 -21 -29 -93
q-69 -169 -204.5 -284t-274.5 -115q-75 0 -138 26.5t-106 76.5t-56.5 124t11.5 168zM707 1456q-23 -38 -73 -51.5t-97 4.5q-47 15 -66.5 54.5t2.5 76.5q23 37 74 50.5t98 -3.5q48 -17 66.5 -55.5t-4.5 -75.5z" />
    <glyph glyph-name="edotaccent" unicode="&#x117;" horiz-adv-x="581" 
d="M541 752q19 -20 21.5 -54.5t-10.5 -77t-44.5 -91.5t-76.5 -97t-110.5 -95t-142.5 -83q6 -81 40 -128.5t89 -47.5q157 0 309 364q32 77 43 70q5 -2 5 -20q0 -20 -29 -93q-33 -81 -73 -149.5t-89.5 -126t-110 -90.5t-124.5 -33q-133 0 -200 129.5t-15 323.5q25 97 67.5 170
t90.5 112t101 59t101.5 18t89.5 -17.5t68 -42.5zM199 432q-21 -76 -21 -141q71 37 126 89.5t83.5 105t43.5 101.5t13 84.5t-16 49.5q-14 15 -31.5 20t-41.5 -6.5t-48.5 -42.5t-53 -97.5t-54.5 -162.5zM522 971q-23 -38 -73 -51.5t-97 4.5q-47 15 -66 54.5t3 76.5
q23 37 74 50.5t98 -3.5q48 -17 66 -55.5t-5 -75.5z" />
    <glyph glyph-name="Eogonek" unicode="&#x118;" 
d="M18 352q37 139 148 225.5t244 116.5q-111 35 -168 120t-29 194q27 105 86.5 177.5t130.5 102.5t146.5 35.5t139.5 -16t103 -60.5t44 -115t-32.5 -160t-109.5 -134q-46 -35 -81 -9t-34 103q1 38 14 75t25 54.5t14 17.5q51 -27 94.5 -17t57.5 52q20 63 -20 103
q-56 56 -136.5 58t-156.5 -62.5t-109 -184.5q-22 -90 -20 -160t41 -113.5t112 -45.5h8q21 0 29 -2q42 -4 40 -14q-3 -12 -49 -16q-4 -1 -9 -1h-17q-239 -7 -329 -346q-34 -131 21.5 -213t162.5 -82q102 0 210 96.5t179 267.5q36 86 45 68l2 -18q0 -21 -29 -93
q-67 -163 -196 -276.5t-264 -122.5q-50 -28 -91 -72.5t-55 -93.5q-24 -74 14 -112t130 -13q0 2 12 -4t14.5 -13.5t-14.5 -17.5q-46 -22 -102.5 -27t-104 7.5t-71.5 51.5t-7 99q33 116 191 201q-132 23 -199 126t-25 263z" />
    <glyph glyph-name="eogonek" unicode="&#x119;" horiz-adv-x="581" 
d="M635 399q-32 -79 -70.5 -145.5t-86 -123.5t-104.5 -91.5t-118 -38.5q-55 -25 -104 -74t-66 -104q-24 -74 13.5 -112t129.5 -13q0 2 12 -4t15 -13.5t-14 -17.5q-46 -22 -102.5 -27t-104 7.5t-71.5 51.5t-7 99q38 130 219 215q-105 30 -151 152t-2 293q25 97 67.5 170
t90.5 112t101 59t101.5 18t89.5 -17.5t68 -42.5q19 -20 21.5 -54.5t-10.5 -77t-44.5 -91.5t-76.5 -97t-110.5 -95t-142.5 -83q6 -81 40 -128.5t89 -47.5q157 0 309 364q32 77 43 70q5 -2 5 -20q0 -20 -29 -93zM199 432q-21 -76 -21 -141q71 37 126 89.5t83.5 105t43.5 101.5
t13 84.5t-16 49.5q-14 15 -31.5 20t-41.5 -6.5t-48.5 -42.5t-53 -97.5t-54.5 -162.5z" />
    <glyph glyph-name="Ecaron" unicode="&#x11a;" 
d="M18 352q37 139 148 225.5t244 116.5q-111 35 -168 120t-29 194q27 105 86.5 177.5t130.5 102.5t146.5 35.5t139.5 -16t103 -60.5t44 -115t-32.5 -160t-109.5 -134q-46 -35 -81 -9t-34 103q1 38 14 75t25 54.5t14 17.5q51 -27 94.5 -17t57.5 52q20 63 -20 103
q-56 56 -136.5 58t-156.5 -62.5t-109 -184.5q-22 -90 -20 -160t41 -113.5t112 -45.5h8q21 0 29 -2q42 -4 40 -14q-3 -12 -49 -16q-4 -1 -9 -1h-17q-239 -7 -329 -346q-34 -131 21.5 -213t162.5 -82q102 0 210 96.5t179 267.5q36 86 45 68l2 -18q0 -21 -29 -93
q-69 -169 -204.5 -284t-274.5 -115q-75 0 -138 26.5t-106 76.5t-56.5 124t11.5 168zM573 1370q-1 0 -2 3t-2.5 8t-3.5 8q-8 20 -22.5 43.5t-43 57t-78.5 70t-114 66.5q-17 7 -7 21q13 19 54 8q47 -13 104 -48.5t103 -76.5q48 40 134 64t169 20q47 -2 56 -21q5 -10 -9 -14
q-74 -24 -138.5 -57t-104.5 -64t-61.5 -51t-31.5 -33z" />
    <glyph glyph-name="ecaron" unicode="&#x11b;" horiz-adv-x="581" 
d="M541 752q19 -20 21.5 -54.5t-10.5 -77t-44.5 -91.5t-76.5 -97t-110.5 -95t-142.5 -83q6 -81 40 -128.5t89 -47.5q157 0 309 364q32 77 43 70q5 -2 5 -20q0 -20 -29 -93q-33 -81 -73 -149.5t-89.5 -126t-110 -90.5t-124.5 -33q-133 0 -200 129.5t-15 323.5q25 97 67.5 170
t90.5 112t101 59t101.5 18t89.5 -17.5t68 -42.5zM199 432q-21 -76 -21 -141q71 37 126 89.5t83.5 105t43.5 101.5t13 84.5t-16 49.5q-14 15 -31.5 20t-41.5 -6.5t-48.5 -42.5t-53 -97.5t-54.5 -162.5zM358 879q-1 0 -2 2.5t-2.5 7.5t-3.5 8q-8 20 -22.5 43.5t-43 57.5
t-78.5 70.5t-114 66.5q-17 7 -7 21q13 18 54 7q47 -13 104 -48.5t103 -76.5q48 40 134 64t169 20q47 -2 56 -21q5 -10 -9 -14q-74 -24 -138.5 -57t-104.5 -63.5t-61.5 -50.5t-31.5 -33z" />
    <glyph glyph-name="Gcircumflex" unicode="&#x11c;" horiz-adv-x="761" 
d="M662 211q-41 -139 -98 -264.5t-121.5 -217.5t-133.5 -149t-133 -60t-121 50q-42 41 -49.5 108t30 144t118.5 133q47 32 72.5 -4.5t25.5 -102.5q0 -24 -8 -56t-16 -52l-7 -21q-55 32 -99.5 31t-58.5 -41q-10 -32 -3.5 -61t24.5 -47q63 -63 141 3q118 101 213 457
q32 124 35 136q-110 -179 -258 -179q-91 0 -147 71t-67 215.5t48 365.5q33 124 83 229t107 176.5t120.5 124t126 77.5t121 31t108 -10t84.5 -51q40 -39 44.5 -110.5t-33.5 -149.5t-110 -129q-42 -30 -69 7.5t-27 92.5q0 22 8.5 52t17.5 50l9 19q51 -27 95 -17t59 52
q20 60 -23 103t-99 43.5t-117.5 -42t-121 -118t-114 -193t-93.5 -258.5q-36 -135 -48.5 -242t-1.5 -174t39 -102t71 -35q144 0 235 291l45 184q105 14 140.5 -33.5t1.5 -162.5q-12 -53 -45 -164zM643 1618l4 -12q6 -18 20 -41t42 -58t80 -74t118 -71q17 -7 7 -21
q-14 -18 -52 -8q-96 25 -211 125q-48 -40 -134 -64t-167 -20q-47 4 -56 22q-2 9 9 13q211 68 334 201q4 8 6 8z" />
    <glyph glyph-name="gcircumflex" unicode="&#x11d;" horiz-adv-x="659" 
d="M496 68q-31 -114 -73.5 -206t-87.5 -151t-94 -100.5t-95 -59t-88 -20.5t-75 9t-55 34q-42 41 -49.5 108t30 144t118.5 133q51 31 81.5 6.5t32.5 -82.5q1 -21 -4 -41.5t-12 -34t-14 -24t-12 -15.5t-5 -4q-57 27 -99 10.5t-58 -61.5q-10 -33 -4 -61.5t24 -46.5
q63 -63 140 2q118 101 212 459l13 45l-11 -13q-85 -107 -172 -91q-74 13 -113 105q-56 134 -5 335l2 6q32 119 89 200.5t122 113.5t131 30.5t122 -37.5l21 80q30 4 72.5 -7t73.5 -35.5t24 -52.5zM295 131q36 44 57 96l125 492q-55 44 -106.5 17t-94.5 -105t-75 -199
q-48 -176 -25 -284q15 -67 53 -65q30 2 66 48zM465 1167l4 -12q6 -18 20 -41t42 -58t80 -74t118 -71q17 -7 7 -20q-14 -18 -52 -8q-96 25 -211 125q-48 -40 -134 -64t-167 -20q-47 4 -56 21q-2 9 9 13q211 68 334 201q4 8 6 8z" />
    <glyph glyph-name="Gbreve" unicode="&#x11e;" horiz-adv-x="761" 
d="M662 211q-41 -139 -98 -264.5t-121.5 -217.5t-133.5 -149t-133 -60t-121 50q-42 41 -49.5 108t30 144t118.5 133q47 32 72.5 -4.5t25.5 -102.5q0 -24 -8 -56t-16 -52l-7 -21q-55 32 -99.5 31t-58.5 -41q-10 -32 -3.5 -61t24.5 -47q63 -63 141 3q118 101 213 457
q32 124 35 136q-110 -179 -258 -179q-91 0 -147 71t-67 215.5t48 365.5q33 124 83 229t107 176.5t120.5 124t126 77.5t121 31t108 -10t84.5 -51q40 -39 44.5 -110.5t-33.5 -149.5t-110 -129q-42 -30 -69 7.5t-27 92.5q0 22 8.5 52t17.5 50l9 19q51 -27 95 -17t59 52
q20 60 -23 103t-99 43.5t-117.5 -42t-121 -118t-114 -193t-93.5 -258.5q-36 -135 -48.5 -242t-1.5 -174t39 -102t71 -35q144 0 235 291l45 184q105 14 140.5 -33.5t1.5 -162.5q-12 -53 -45 -164zM360 1618q2 2 4.5 6t10 11.5t14 10.5t14 -1t11.5 -19q17 -58 70 -93.5
t130 -39.5q72 -4 127 31t86 96q0 3 18 11q28 12 25 -12v-3q-6 -35 -29.5 -78.5t-59.5 -84t-88.5 -67t-106.5 -22.5q-60 4 -108 44.5t-74.5 92.5t-43.5 117z" />
    <glyph glyph-name="gbreve" unicode="&#x11f;" horiz-adv-x="659" 
d="M496 68q-31 -114 -73.5 -206t-87.5 -151t-94 -100.5t-95 -59t-88 -20.5t-75 9t-55 34q-42 41 -49.5 108t30 144t118.5 133q51 31 81.5 6.5t32.5 -82.5q1 -21 -4 -41.5t-12 -34t-14 -24t-12 -15.5t-5 -4q-57 27 -99 10.5t-58 -61.5q-10 -33 -4 -61.5t24 -46.5
q63 -63 140 2q118 101 212 459l13 45l-11 -13q-85 -107 -172 -91q-74 13 -113 105q-56 134 -5 335l2 6q32 119 89 200.5t122 113.5t131 30.5t122 -37.5l21 80q30 4 72.5 -7t73.5 -35.5t24 -52.5zM295 131q36 44 57 96l125 492q-55 44 -106.5 17t-94.5 -105t-75 -199
q-48 -176 -25 -284q15 -67 53 -65q30 2 66 48zM170 1141q2 2 4.5 6t9.5 11.5t13.5 10.5t14 -1t11.5 -19q17 -57 70.5 -93t130.5 -40q72 -4 127 31t86 96q0 3 18 11q28 12 25 -12v-3q-6 -35 -29.5 -78.5t-60 -84t-89 -67t-106.5 -22.5q-46 3 -84 26t-65 60.5t-45 78.5t-31 89
z" />
    <glyph glyph-name="Gdotaccent" unicode="&#x120;" horiz-adv-x="761" 
d="M662 211q-41 -139 -98 -264.5t-121.5 -217.5t-133.5 -149t-133 -60t-121 50q-42 41 -49.5 108t30 144t118.5 133q47 32 72.5 -4.5t25.5 -102.5q0 -24 -8 -56t-16 -52l-7 -21q-55 32 -99.5 31t-58.5 -41q-10 -32 -3.5 -61t24.5 -47q63 -63 141 3q118 101 213 457
q32 124 35 136q-110 -179 -258 -179q-91 0 -147 71t-67 215.5t48 365.5q33 124 83 229t107 176.5t120.5 124t126 77.5t121 31t108 -10t84.5 -51q40 -39 44.5 -110.5t-33.5 -149.5t-110 -129q-42 -30 -69 7.5t-27 92.5q0 22 8.5 52t17.5 50l9 19q51 -27 95 -17t59 52
q20 60 -23 103t-99 43.5t-117.5 -42t-121 -118t-114 -193t-93.5 -258.5q-36 -135 -48.5 -242t-1.5 -174t39 -102t71 -35q144 0 235 291l45 184q105 14 140.5 -33.5t1.5 -162.5q-12 -53 -45 -164zM797 1425q-23 -38 -73 -51.5t-97 4.5q-47 15 -66.5 54.5t2.5 76.5
q23 37 74 50.5t98 -3.5q48 -17 66.5 -55.5t-4.5 -75.5z" />
    <glyph glyph-name="gdotaccent" unicode="&#x121;" horiz-adv-x="659" 
d="M496 68q-31 -114 -73.5 -206t-87.5 -151t-94 -100.5t-95 -59t-88 -20.5t-75 9t-55 34q-42 41 -49.5 108t30 144t118.5 133q51 31 81.5 6.5t32.5 -82.5q1 -21 -4 -41.5t-12 -34t-14 -24t-12 -15.5t-5 -4q-57 27 -99 10.5t-58 -61.5q-10 -33 -4 -61.5t24 -46.5
q63 -63 140 2q118 101 212 459l13 45l-11 -13q-85 -107 -172 -91q-74 13 -113 105q-56 134 -5 335l2 6q32 119 89 200.5t122 113.5t131 30.5t122 -37.5l21 80q30 4 72.5 -7t73.5 -35.5t24 -52.5zM295 131q36 44 57 96l125 492q-55 44 -106.5 17t-94.5 -105t-75 -199
q-48 -176 -25 -284q15 -67 53 -65q30 2 66 48zM547 965q-23 -38 -73 -51.5t-97 4.5q-47 15 -66.5 54.5t2.5 76.5q23 37 74 50.5t98 -3.5q48 -17 66.5 -55.5t-4.5 -75.5z" />
    <glyph glyph-name="Gcommaaccent" unicode="&#x122;" horiz-adv-x="761" 
d="M662 211q-41 -139 -98 -264.5t-121.5 -217.5t-133.5 -149t-133 -60t-121 50q-42 41 -49.5 108t30 144t118.5 133q47 32 72.5 -4.5t25.5 -102.5q0 -24 -8 -56t-16 -52l-7 -21q-55 32 -99.5 31t-58.5 -41q-10 -32 -3.5 -61t24.5 -47q63 -63 141 3q118 101 213 457
q32 124 35 136q-110 -179 -258 -179q-91 0 -147 71t-67 215.5t48 365.5q33 124 83 229t107 176.5t120.5 124t126 77.5t121 31t108 -10t84.5 -51q40 -39 44.5 -110.5t-33.5 -149.5t-110 -129q-42 -30 -69 7.5t-27 92.5q0 22 8.5 52t17.5 50l9 19q51 -27 95 -17t59 52
q20 60 -23 103t-99 43.5t-117.5 -42t-121 -118t-114 -193t-93.5 -258.5q-36 -135 -48.5 -242t-1.5 -174t39 -102t71 -35q144 0 235 291l45 184q105 14 140.5 -33.5t1.5 -162.5q-12 -53 -45 -164zM184 -733v4q-85 -4 -124.5 34t-20.5 97q14 46 67 63t103 -2q44 -16 62.5 -56
t0.5 -103q-23 -77 -89 -117.5t-146 -32.5q0 3 -1 10t6 14.5t21 8.5q108 14 121 80z" />
    <glyph glyph-name="gcommaaccent" unicode="&#x123;" horiz-adv-x="659" 
d="M496 68q-31 -114 -73.5 -206t-87.5 -151t-94 -100.5t-95 -59t-88 -20.5t-75 9t-55 34q-42 41 -49.5 108t30 144t118.5 133q51 31 81.5 6.5t32.5 -82.5q1 -21 -4 -41.5t-12 -34t-14 -24t-12 -15.5t-5 -4q-57 27 -99 10.5t-58 -61.5q-10 -33 -4 -61.5t24 -46.5
q63 -63 140 2q118 101 212 459l13 45l-11 -13q-85 -107 -172 -91q-74 13 -113 105q-56 134 -5 335l2 6q32 119 89 200.5t122 113.5t131 30.5t122 -37.5l21 80q30 4 72.5 -7t73.5 -35.5t24 -52.5zM295 131q36 44 57 96l125 492q-55 44 -106.5 17t-94.5 -105t-75 -199
q-48 -176 -25 -284q15 -67 53 -65q30 2 66 48zM287 958q7 77 56 207t118 226q36 52 54 49q10 -1 5 -19q-22 -88 -34 -172t-12.5 -140.5t2 -100.5t6.5 -65l5 -21q-23 -10 -57 -15.5t-67 -4t-55.5 16t-20.5 39.5z" />
    <glyph glyph-name="Hcircumflex" unicode="&#x124;" horiz-adv-x="829" 
d="M14 166q100 412 164.5 695.5t79.5 360.5l14 78q30 3 72.5 -8t73.5 -35.5t24 -52.5q-61 -215 -233 -942h252l14 68q44 204 129 518q40 149 65 262t31 152l5 38q30 3 73.5 -8t75 -35.5t23.5 -52.5q-30 -100 -95 -377q-103 -413 -127 -518q-68 -295 -21 -286q22 4 64 75
q70 113 166 342q31 69 41 70q6 1 6 -21q0 -29 -28 -92q-79 -196 -162 -329q-40 -63 -83.5 -97t-79.5 -34.5t-65 28.5t-38.5 93.5t0.5 158.5h-256q-18 -78 -31 -139.5t-17 -83.5l-4 -23q-26 -6 -48.5 -6t-46 9t-35 31.5t-16 61.5t12.5 99zM625 1622l4 -12q6 -18 20 -41
t42 -58t80 -74t118 -71q17 -7 7 -21q-14 -18 -52 -8q-96 25 -211 125q-48 -40 -134 -64t-167 -20q-47 4 -56 22q-2 9 9 13q209 68 333 201q4 8 7 8z" />
    <glyph glyph-name="hcircumflex" unicode="&#x125;" horiz-adv-x="733" 
d="M-27 193q101 412 163 689.5t74 349.5l11 71q30 3 72.5 -8.5t73.5 -36t24 -52.5q-39 -138 -229 -944q91 211 192 373q75 118 150 160q81 45 108 -34q37 -107 -39 -407q-64 -248 -28 -280q23 -21 75 63q2 2 3 4q59 94 145 301q31 70 41 71q6 0 6 -21q0 -20 -29 -93
q-44 -109 -70.5 -162.5t-72.5 -125.5q-63 -100 -139 -113q-70 -12 -108 56q-58 104 0 315l1 4q86 315 54 314q-16 0 -74 -87q-67 -99 -149 -280.5t-109 -296.5q-4 -14 -8 -19.5t-9 -3.5q-21 -4 -40 -4.5t-38.5 3.5t-33 17.5t-22 35t-7.5 57.5t12 84zM520 1591l4 -12
q6 -18 20 -41t42 -58t80 -74t118 -71q17 -7 7 -20q-14 -18 -52 -8q-96 25 -211 125q-48 -40 -134 -64t-167 -20q-47 4 -56 21q-2 9 9 13q211 68 334 201q4 8 6 8z" />
    <glyph glyph-name="Hbar" unicode="&#x126;" horiz-adv-x="829" 
d="M14 166l129 541q-25 22 4 22q46 200 77.5 343t39.5 186l8 42q30 3 72.5 -8t73.5 -35.5t24 -52.5q-48 -165 -125 -485q162 -3 258 22l29 107q40 149 65 262t31 152l5 38q30 3 73.5 -8t75 -35.5t23.5 -52.5q-30 -100 -95 -377q-103 -413 -127 -518q-68 -295 -21 -286
q22 4 64 75q70 113 166 342q31 69 41 70q6 1 6 -21q0 -29 -28 -92q-79 -196 -162 -329q-40 -63 -83.5 -97t-79.5 -34.5t-65 28.5t-38.5 93.5t0.5 158.5h-256q-18 -78 -31 -139.5t-17 -83.5l-4 -23q-26 -6 -48.5 -6t-46 9t-35 31.5t-16 61.5t12.5 99zM475 330q18 89 60 252
q-107 0 -240 47l-86 -367h252z" />
    <glyph glyph-name="hbar" unicode="&#x127;" horiz-adv-x="733" 
d="M438 918q-43 -8 -121 2q-31 -126 -155 -658q91 211 192 373q75 118 150 160q81 45 108 -34q37 -107 -39 -407q-64 -248 -28 -280q23 -21 75 63q2 2 3 4q59 94 145 301q31 70 41 71q6 0 6 -21q0 -20 -29 -93q-44 -109 -70.5 -162.5t-72.5 -125.5q-63 -100 -139 -113
q-70 -12 -108 56q-58 104 0 315l1 4q86 315 54 314q-16 0 -74 -87q-67 -99 -149 -280.5t-109 -296.5q-4 -14 -8 -19.5t-9 -3.5q-21 -4 -40 -4.5t-38.5 3.5t-33 17.5t-22 35t-7.5 57.5t12 84q134 556 181 768q-73 27 -113 53q-67 42 -39 47h10q56 -5 162 -10q18 88 30 151
t14 82l3 19q30 3 72.5 -8.5t73.5 -36t24 -52.5q-16 -54 -41 -149q47 5 83.5 14.5t49.5 16.5l13 6q36 -62 16.5 -113.5t-74.5 -62.5z" />
    <glyph glyph-name="Itilde" unicode="&#x128;" horiz-adv-x="733" 
d="M682 1300q52 5 116 -24t56 -72q-53 -272 -141 -604q-37 -138 -86.5 -249t-102 -182t-110 -120t-111 -69t-103.5 -22.5t-89.5 12.5t-67.5 42q-39 39 -43.5 110.5t33 150.5t110.5 128q42 29 65 -6.5t23 -93.5q0 -22 -6.5 -52t-12.5 -49l-7 -20q-51 29 -95.5 18t-58.5 -53
q-21 -62 23 -102q33 -33 75 -35.5t91.5 33t99 106t101 192.5t94.5 282q125 466 143 630q-119 -25 -224 -92.5t-171 -149t-104 -163t-36 -141.5q1 -75 40 -128t101.5 -72t133.5 -1q18 5 16 -4q-2 -14 -26 -29q-7 -5 -13 -6q-30 -9 -72 -11t-91 8t-92.5 31t-77 63t-42.5 99
q-11 67 9.5 142.5t74.5 151.5t133.5 143.5t195 122.5t249.5 85zM551 1456q17 30 39 54.5t50.5 41t62.5 12t67 -33.5q32 -29 61.5 -35.5t49 4.5t34 26t21.5 29l6 13q2 -1 4.5 -3t8.5 -10.5t9 -18t1.5 -26.5t-9.5 -36q-16 -37 -52 -53.5t-77 -9.5t-71 34q-91 82 -174 -8
q-9 -8 -16 -3.5t-11 13.5z" />
    <glyph glyph-name="itilde" unicode="&#x129;" horiz-adv-x="356" 
d="M115 795q30 3 72 -8.5t73 -36t25 -52.5l-90 -344q-65 -257 -26 -282q25 -15 77 69q55 92 145 301q36 86 45 68q2 -5 2 -18q0 -26 -30 -93q-43 -106 -69.5 -160.5t-72.5 -127.5q-64 -102 -141 -115q-70 -12 -108 59q-55 105 1 318q103 387 97 422zM25 977q17 30 39 54.5
t50.5 41t62.5 12t67 -33.5q32 -29 61.5 -35.5t49 4t34 25.5t21.5 29l6 13q2 -1 4.5 -3t8.5 -10.5t9 -18t1.5 -26.5t-9.5 -36q-16 -37 -52.5 -53t-77.5 -9t-71 34q-91 82 -174 -9q-9 -8 -15.5 -3.5t-10.5 14.5z" />
    <glyph glyph-name="imacron" unicode="&#x12b;" horiz-adv-x="356" 
d="M115 795q30 3 72 -8.5t73 -36t25 -52.5l-90 -344q-65 -257 -26 -282q25 -15 77 69q55 92 145 301q36 86 45 68q2 -5 2 -18q0 -26 -30 -93q-43 -106 -69.5 -160.5t-72.5 -127.5q-64 -102 -141 -115q-70 -12 -108 59q-55 105 1 318q103 387 97 422zM391 897
q-71 -12 -194.5 18t-202.5 78q-67 42 -39 47h10q185 -14 293 -7t150 23l41 17q36 -62 16.5 -113.5t-74.5 -62.5z" />
    <glyph glyph-name="Ibreve" unicode="&#x12c;" horiz-adv-x="733" 
d="M682 1300q52 5 116 -24t56 -72q-53 -272 -141 -604q-37 -138 -86.5 -249t-102 -182t-110 -120t-111 -69t-103.5 -22.5t-89.5 12.5t-67.5 42q-39 39 -43.5 110.5t33 150.5t110.5 128q42 29 65 -6.5t23 -93.5q0 -22 -6.5 -52t-12.5 -49l-7 -20q-51 29 -95.5 18t-58.5 -53
q-21 -62 23 -102q33 -33 75 -35.5t91.5 33t99 106t101 192.5t94.5 282q125 466 143 630q-119 -25 -224 -92.5t-171 -149t-104 -163t-36 -141.5q1 -75 40 -128t101.5 -72t133.5 -1q18 5 16 -4q-2 -14 -26 -29q-7 -5 -13 -6q-30 -9 -72 -11t-91 8t-92.5 31t-77 63t-42.5 99
q-11 67 9.5 142.5t74.5 151.5t133.5 143.5t195 122.5t249.5 85zM434 1636q2 3 4.5 6.5t9.5 11.5t13.5 11t14 -1t11.5 -19q17 -58 70.5 -94t130.5 -40q72 -4 127 31t86 96q0 3 18 11q28 12 25 -12v-3q-6 -35 -29.5 -78.5t-60 -84t-89 -67t-106.5 -22.5q-46 3 -84 26t-65 60.5
t-45 78.5t-31 89z" />
    <glyph glyph-name="Iogonek" unicode="&#x12e;" horiz-adv-x="733" 
d="M682 1300q52 5 116 -24t56 -72q-53 -272 -141 -604q-36 -132 -83.5 -239.5t-97 -178t-105 -120t-106 -73.5t-100.5 -30q-50 -28 -92.5 -73.5t-56.5 -94.5q-24 -74 13.5 -112t129.5 -13q0 2 12 -4t14.5 -13.5t-14.5 -17.5q-46 -22 -102 -27t-103.5 7.5t-71.5 51.5t-7 99
q36 121 192 201q-55 12 -92 49q-39 39 -43.5 110.5t33 150.5t110.5 128q42 29 65 -6.5t23 -93.5q0 -22 -6.5 -52t-12.5 -49l-7 -20q-51 29 -95.5 18t-58.5 -53q-21 -62 23 -102q33 -33 75 -35.5t91.5 33t99 106t101 192.5t94.5 282q125 466 143 630q-119 -25 -224 -92.5
t-171 -149t-104 -163t-36 -141.5q1 -75 40 -128t101.5 -72t133.5 -1q18 5 16 -4q-2 -14 -26 -29q-7 -5 -13 -6q-30 -9 -72 -11t-91 8t-92.5 31t-77 63t-42.5 99q-11 67 9.5 142.5t74.5 151.5t133.5 143.5t195 122.5t249.5 85z" />
    <glyph glyph-name="iogonek" unicode="&#x12f;" horiz-adv-x="356" 
d="M115 795q30 3 72 -8.5t73 -36t25 -52.5l-90 -344q-65 -257 -26 -282q25 -15 77 69q55 92 145 301q36 86 45 68q2 -5 2 -18q0 -26 -30 -93q-43 -106 -69.5 -160.5t-72.5 -127.5q-42 -66 -90.5 -95t-91.5 -18q-54 -26 -100.5 -74.5t-63.5 -101.5q-24 -74 13.5 -112
t129.5 -13q0 2 12 -4t15 -13.5t-14 -17.5q-46 -22 -102.5 -27t-104 7.5t-71.5 51.5t-7 99q23 76 93.5 134.5t156.5 92.5q-40 42 -48.5 127t25.5 226q103 387 97 422zM381 963q-23 -37 -73 -49.5t-97 4.5q-47 15 -66.5 54.5t2.5 76.5q23 37 74 50.5t98 -3.5q48 -17 66.5 -56
t-4.5 -77z" />
    <glyph glyph-name="Idotaccent" unicode="&#x130;" horiz-adv-x="733" 
d="M682 1300q52 5 116 -24t56 -72q-53 -272 -141 -604q-37 -138 -86.5 -249t-102 -182t-110 -120t-111 -69t-103.5 -22.5t-89.5 12.5t-67.5 42q-39 39 -43.5 110.5t33 150.5t110.5 128q42 29 65 -6.5t23 -93.5q0 -22 -6.5 -52t-12.5 -49l-7 -20q-51 29 -95.5 18t-58.5 -53
q-21 -62 23 -102q33 -33 75 -35.5t91.5 33t99 106t101 192.5t94.5 282q125 466 143 630q-119 -25 -224 -92.5t-171 -149t-104 -163t-36 -141.5q1 -75 40 -128t101.5 -72t133.5 -1q18 5 16 -4q-2 -14 -26 -29q-7 -5 -13 -6q-30 -9 -72 -11t-91 8t-92.5 31t-77 63t-42.5 99
q-11 67 9.5 142.5t74.5 151.5t133.5 143.5t195 122.5t249.5 85zM776 1430q-23 -38 -73 -52t-97 4q-47 15 -66 54.5t3 76.5q23 37 74 51t98 -3q48 -17 66 -55.5t-5 -75.5z" />
    <glyph glyph-name="dotlessi" unicode="&#x131;" horiz-adv-x="356" 
d="M115 795q30 3 72 -8.5t73 -36t25 -52.5l-90 -344q-65 -257 -26 -282q25 -15 77 69q55 92 145 301q36 86 45 68q2 -5 2 -18q0 -26 -30 -93q-43 -106 -69.5 -160.5t-72.5 -127.5q-64 -102 -141 -115q-70 -12 -108 59q-55 105 1 318q103 387 97 422z" />
    <glyph glyph-name="Jcircumflex" unicode="&#x134;" horiz-adv-x="849" 
d="M799 1300q52 5 116 -24t56 -72q-50 -257 -142 -604q-86 -326 -179.5 -557t-183 -352t-173 -164t-164.5 -16q-53 17 -86 59t-39 95.5t9 109t61.5 107.5t115.5 83q50 24 79.5 -6.5t29.5 -103.5q0 -35 -11.5 -72.5t-23.5 -57.5l-12 -20q-51 43 -101 45.5t-73 -35.5
q-25 -45 -2 -90.5t78 -64.5q111 -37 221 206.5t276 854.5q127 472 144 630q-119 -25 -224 -92.5t-171 -149t-104 -163t-36 -141.5q1 -75 40 -128t101.5 -72t133.5 -1q18 5 16 -4q-2 -14 -26 -29l-13 -6q-30 -9 -72 -11t-91 8t-92.5 31t-77 63t-42.5 99q-11 67 9.5 142.5
t74.5 151.5t133.5 143.5t195 122.5t249.5 85zM829 1624l5 -12q6 -18 20 -41t42 -58t80 -74t118 -71q17 -7 7 -21q-13 -19 -52 -8q-96 25 -211 125q-48 -40 -134 -64t-167 -20q-48 4 -57 22q-4 10 9 13q211 68 334 201q4 8 6 8z" />
    <glyph glyph-name="jcircumflex" unicode="&#x135;" horiz-adv-x="276" 
d="M104 68q-42 -157 -105.5 -271.5t-129 -170.5t-131.5 -79.5t-118 -14t-83 41.5q-41 40 -47.5 102t35.5 131.5t131 116.5q51 27 72 -4.5t14 -91.5q-3 -24 -13 -50.5t-19 -41.5l-9 -15q-103 74 -147 -2q-17 -31 -13 -62t25 -52q26 -26 57 -30t69.5 21t77.5 79t80.5 154.5
t77.5 236.5q172 658 168 729q30 4 72.5 -7.5t73.5 -36.5t24 -53q-1 -3 -11 -47.5t-47 -188.5t-104 -394zM244 1153l4 -12q6 -18 20 -41t42 -58t80 -74t118 -71q17 -7 7 -21q-13 -19 -52 -8q-96 25 -211 125q-48 -40 -134 -64t-167 -20q-47 4 -56 22q-5 9 9 13
q211 68 334 201q4 8 6 8z" />
    <glyph glyph-name="Kcommaaccent" unicode="&#x136;" horiz-adv-x="770" 
d="M870 1204q-65 -307 -183.5 -527.5t-262.5 -350.5q40 2 103 0.5t63 -4.5q-38 -243 5 -252q24 -5 69 69q64 107 145 301q32 76 43 70q4 -5 4 -21q0 -19 -29 -92q-46 -110 -72.5 -163.5t-70.5 -124.5q-45 -71 -92 -104.5t-85.5 -26t-67 42t-40.5 102t-2 151.5
q-43 -16 -102 -41q-56 -35 -109 -47l-39 -190q-22 -4 -40.5 -4.5t-39 3.5t-34.5 17.5t-23.5 35t-8.5 58t13 84.5q100 412 161.5 689.5t72.5 348.5l12 72q30 3 73 -8t74.5 -35.5t24.5 -52.5q-33 -117 -63.5 -242.5t-165.5 -705.5l-6 -27q142 59 276.5 324.5t226.5 746.5
q30 3 72 -7.5t73 -35t25 -53.5zM311 -262v4q-85 -4 -124.5 34t-20.5 97q14 46 67 63t103 -2q44 -16 62.5 -56t0.5 -103q-23 -77 -89 -117.5t-146 -32.5q0 3 -1 10t6 14.5t21 8.5q108 14 121 80z" />
    <glyph glyph-name="kcommaaccent" unicode="&#x137;" horiz-adv-x="669" 
d="M352 686q37 53 78.5 85.5t77 38.5t66.5 -5.5t47.5 -45t20 -81t-16.5 -113.5q-54 -176 -232 -291q111 0 111 -2q-29 -182 14 -211q34 -24 93 68l7 12q62 99 146 301q31 70 41 71q6 0 6 -21q0 -20 -29 -93q-44 -109 -70.5 -162.5t-72.5 -125.5q-45 -70 -95.5 -108
t-93.5 -36.5t-76.5 29.5t-49 91t-5.5 146q-80 -39 -157 -55q-33 -97 -47 -155q-4 -14 -8 -19.5t-9 -3.5q-25 -5 -46.5 -4.5t-44.5 9.5t-34 31t-15 60.5t11 96.5q101 412 163 689.5t74 349.5l11 71q51 5 116.5 -25t53.5 -72q-9 -31 -16.5 -58.5t-14 -52.5t-17 -67.5
t-18.5 -75t-25.5 -107t-31 -131t-42.5 -178.5t-52 -221q99 253 182 371zM453 553q43 156 4 166q-29 6 -86 -68q-45 -60 -100 -184t-99 -256q56 14 103.5 50.5t81.5 87t57 100.5t39 104zM262 -272v4q-85 -4 -124.5 34t-20.5 97q14 46 67 63t103 -2q44 -16 62.5 -56.5
t0.5 -103.5q-23 -77 -88.5 -117t-146.5 -32q0 3 -1 10t6 14.5t21 8.5q108 14 121 80z" />
    <glyph glyph-name="kgreenlandic" unicode="&#x138;" horiz-adv-x="669" 
d="M352 686q37 53 78.5 85.5t77 38.5t66.5 -5.5t47.5 -45t20 -81t-16.5 -113.5q-54 -176 -232 -291q111 0 111 -2q-29 -182 14 -211q34 -24 93 68l7 12q62 99 146 301q31 70 41 71q6 0 6 -21q0 -20 -29 -93q-44 -109 -70.5 -162.5t-72.5 -125.5q-45 -70 -95.5 -108
t-93.5 -36.5t-76.5 29.5t-49 91t-5.5 146q-80 -39 -157 -55q-33 -97 -47 -155q-4 -14 -8 -19.5t-9 -3.5q-25 -5 -46.5 -4.5t-44.5 9.5t-34 31t-15 60.5t11 96.5q68 270 103.5 440.5t37.5 205.5l1 35q30 3 72.5 -8t73.5 -35.5t24 -52.5l-5 -14l-104 -447q91 243 180 369z
M453 553q43 156 4 166q-29 6 -86 -68q-45 -60 -100 -184t-99 -256q56 14 103.5 50.5t81.5 87t57 100.5t39 104z" />
    <glyph glyph-name="Lacute" unicode="&#x139;" horiz-adv-x="741" 
d="M1135 -578q-44 -2 -92 11.5t-91 34t-99.5 63.5t-100 80.5t-111.5 106t-114.5 117.5t-127.5 136q-88 -91 -186 -108q-58 -10 -108 4t-78.5 44t-40.5 71t6 86q29 79 132 103t212 -21q72 239 145 507q49 180 108.5 313t119 204.5t119.5 102.5t112.5 20.5t95.5 -54.5
q39 -39 43.5 -100t-32 -128.5t-109.5 -117.5q-30 -22 -49.5 -13t-29 33t-9.5 58q0 23 6.5 48t12.5 38.5t8 13.5q51 -27 94 -17t57 52q20 61 -20 104q-91 91 -179 -49q-85 -135 -192 -530q-33 -124 -81 -290t-56 -195q-9 -34 -35 -87l12 -10q185 -200 364.5 -323.5
t305.5 -122.5q47 1 85 21.5t60.5 53.5t37.5 74t14.5 81.5t-7.5 76.5q-4 17 4 17q13 -1 30 -27q5 -7 7 -13q17 -55 17.5 -117.5t-16.5 -123.5t-48 -111t-82 -82t-114 -35zM217 -27q50 23 86 93q-80 59 -151.5 57t-94.5 -57q-17 -40 3 -72t61.5 -38t95.5 17zM1114 1438
q-52 -23 -184.5 -35.5t-212.5 -9.5q-57 4 -63 22q-3 8 10 11l2 1q77 21 146 47.5t112.5 48.5t76 41.5t46.5 30.5l14 11q24 -19 46.5 -53.5t28 -67.5t-21.5 -47z" />
    <glyph glyph-name="lacute" unicode="&#x13a;" horiz-adv-x="364" 
d="M29 393l213 910q30 3 73 -8.5t74.5 -36t24.5 -52.5q-58 -205 -232 -948q-31 -133 6 -155q24 -15 56 24l10 14q26 40 49 85t38.5 81.5t57.5 134.5q36 86 45 68q2 -5 2 -18q0 -26 -30 -93q-43 -105 -69.5 -159t-72.5 -129q-58 -93 -132 -109q-71 -16 -111 53
q-60 105 -2 338zM588 1452q-52 -23 -185 -35.5t-213 -9.5q-55 3 -63 22q-5 9 12 13q122 34 221 78.5t137 71.5l38 28q24 -19 46.5 -53.5t28 -67.5t-21.5 -47z" />
    <glyph glyph-name="Lcommaaccent" unicode="&#x13b;" horiz-adv-x="741" 
d="M1135 -578q-44 -2 -92 11.5t-91 34t-99.5 63.5t-100 80.5t-111.5 106t-114.5 117.5t-127.5 136q-88 -91 -186 -108q-58 -10 -108 4t-78.5 44t-40.5 71t6 86q29 79 132 103t212 -21q72 239 145 507q49 180 108.5 313t119 204.5t119.5 102.5t112.5 20.5t95.5 -54.5
q39 -39 43.5 -100t-32 -128.5t-109.5 -117.5q-30 -22 -49.5 -13t-29 33t-9.5 58q0 23 6.5 48t12.5 38.5t8 13.5q51 -27 94 -17t57 52q20 61 -20 104q-91 91 -179 -49q-85 -135 -192 -530q-33 -124 -81 -290t-56 -195q-9 -34 -35 -87l12 -10q185 -200 364.5 -323.5
t305.5 -122.5q47 1 85 21.5t60.5 53.5t37.5 74t14.5 81.5t-7.5 76.5q-4 17 4 17q13 -1 30 -27q5 -7 7 -13q17 -55 17.5 -117.5t-16.5 -123.5t-48 -111t-82 -82t-114 -35zM217 -27q50 23 86 93q-80 59 -151.5 57t-94.5 -57q-17 -40 3 -72t61.5 -38t95.5 17zM426 -379v4
q-85 -4 -124.5 34t-20.5 97q15 46 67 63.5t103 -1.5q44 -16 62.5 -56.5t0.5 -103.5q-23 -77 -89 -117.5t-146 -32.5q0 3 -1 10t6 14.5t21 8.5q108 14 121 80z" />
    <glyph glyph-name="lcommaaccent" unicode="&#x13c;" horiz-adv-x="364" 
d="M29 393l213 910q30 3 73 -8.5t74.5 -36t24.5 -52.5q-58 -205 -232 -948q-31 -133 6 -155q24 -15 56 24l10 14q26 40 49 85t38.5 81.5t57.5 134.5q36 86 45 68q2 -5 2 -18q0 -26 -30 -93q-43 -105 -69.5 -159t-72.5 -129q-58 -93 -132 -109q-71 -16 -111 53
q-60 105 -2 338zM131 -279v5q-85 -4 -124.5 34t-20.5 97q14 46 67 63t103 -2q44 -16 62.5 -56.5t0.5 -103.5q-23 -77 -88.5 -117t-146.5 -32q0 3 -1 10t6 14.5t21 8.5q108 14 121 79z" />
    <glyph glyph-name="Lcaron" unicode="&#x13d;" horiz-adv-x="741" 
d="M1135 -578q-44 -2 -92 11.5t-91 34t-99.5 63.5t-100 80.5t-111.5 106t-114.5 117.5t-127.5 136q-88 -91 -186 -108q-58 -10 -108 4t-78.5 44t-40.5 71t6 86q29 79 132 103t212 -21q72 239 145 507q49 180 108.5 313t119 204.5t119.5 102.5t112.5 20.5t95.5 -54.5
q39 -39 43.5 -100t-32 -128.5t-109.5 -117.5q-30 -22 -49.5 -13t-29 33t-9.5 58q0 23 6.5 48t12.5 38.5t8 13.5q51 -27 94 -17t57 52q20 61 -20 104q-91 91 -179 -49q-85 -135 -192 -530q-33 -124 -81 -290t-56 -195q-9 -34 -35 -87l12 -10q185 -200 364.5 -323.5
t305.5 -122.5q47 1 85 21.5t60.5 53.5t37.5 74t14.5 81.5t-7.5 76.5q-4 17 4 17q13 -1 30 -27q5 -7 7 -13q17 -55 17.5 -117.5t-16.5 -123.5t-48 -111t-82 -82t-114 -35zM217 -27q50 23 86 93q-80 59 -151.5 57t-94.5 -57q-17 -40 3 -72t61.5 -38t95.5 17zM1370 1573
q-5 -75 -54 -204.5t-118 -227.5q-41 -56 -57 -49q-7 3 -4 18q22 88 34 172t12.5 141t-1.5 101t-6 65l-5 21q32 14 79 19t85 -9t35 -47z" />
    <glyph glyph-name="lcaron" unicode="&#x13e;" horiz-adv-x="364" 
d="M29 393l213 910q30 3 73 -8.5t74.5 -36t24.5 -52.5q-58 -205 -232 -948q-31 -133 6 -155q24 -15 56 24l10 14q26 40 49 85t38.5 81.5t57.5 134.5q36 86 45 68q2 -5 2 -18q0 -26 -30 -93q-43 -105 -69.5 -159t-72.5 -129q-58 -93 -132 -109q-71 -16 -111 53
q-60 105 -2 338zM666 1444q-5 -75 -54 -204.5t-118 -227.5q-40 -55 -57 -49q-8 2 -5 18q22 88 34 172t13 141t-1.5 101t-6.5 65l-4 21q32 14 79 19t85 -9t35 -47z" />
    <glyph glyph-name="Ldot" unicode="&#x13f;" horiz-adv-x="741" 
d="M1135 -578q-44 -2 -92 11.5t-91 34t-99.5 63.5t-100 80.5t-111.5 106t-114.5 117.5t-127.5 136q-88 -91 -186 -108q-58 -10 -108 4t-78.5 44t-40.5 71t6 86q29 79 132 103t212 -21q72 239 145 507q49 180 108.5 313t119 204.5t119.5 102.5t112.5 20.5t95.5 -54.5
q39 -39 43.5 -100t-32 -128.5t-109.5 -117.5q-30 -22 -49.5 -13t-29 33t-9.5 58q0 23 6.5 48t12.5 38.5t8 13.5q51 -27 94 -17t57 52q20 61 -20 104q-91 91 -179 -49q-85 -135 -192 -530q-33 -124 -81 -290t-56 -195q-9 -34 -35 -87l12 -10q185 -200 364.5 -323.5
t305.5 -122.5q47 1 85 21.5t60.5 53.5t37.5 74t14.5 81.5t-7.5 76.5q-4 17 4 17q13 -1 30 -27q5 -7 7 -13q17 -55 17.5 -117.5t-16.5 -123.5t-48 -111t-82 -82t-114 -35zM217 -27q50 23 86 93q-80 59 -151.5 57t-94.5 -57q-17 -40 3 -72t61.5 -38t95.5 17zM920 455
q-22 -37 -71.5 -52t-96.5 0q-48 17 -67.5 59t3.5 79q22 37 71.5 51.5t96.5 -0.5q48 -17 67.5 -58.5t-3.5 -78.5z" />
    <glyph glyph-name="ldot" unicode="&#x140;" horiz-adv-x="364" 
d="M29 393l213 910q30 3 73 -8.5t74.5 -36t24.5 -52.5q-58 -205 -232 -948q-31 -133 6 -155q24 -15 56 24l10 14q26 40 49 85t38.5 81.5t57.5 134.5q36 86 45 68q2 -5 2 -18q0 -26 -30 -93q-43 -105 -69.5 -159t-72.5 -129q-58 -93 -132 -109q-71 -16 -111 53
q-60 105 -2 338zM623 715q-22 -37 -71.5 -51.5t-96.5 0.5q-48 17 -67.5 58.5t3.5 78.5q22 37 71.5 51.5t96.5 -0.5q48 -17 67.5 -58.5t-3.5 -78.5z" />
    <glyph glyph-name="Lslash" unicode="&#x141;" horiz-adv-x="741" 
d="M797 352q-57 -11 -236 17l-61 -219q-9 -34 -35 -87l12 -10q185 -200 364.5 -323.5t305.5 -122.5q47 1 85 21.5t60.5 53.5t37.5 74t14.5 81.5t-7.5 76.5q-4 17 4 17q13 -1 30 -27q5 -7 7 -13q17 -55 17.5 -117.5t-16.5 -123.5t-48 -111t-82 -82t-114 -35q-44 -2 -92 11.5
t-91 34t-99.5 63.5t-100 80.5t-111.5 106t-114.5 117.5t-127.5 136q-88 -91 -186 -108q-58 -10 -108 4t-78.5 44t-40.5 71t6 86q29 79 132 103t212 -21q1 4 26 85t48 162q-155 34 -215 72q-61 38 -41 46q5 2 14 1q132 -14 270 -14l43 155q49 180 108.5 313t119 204.5
t119.5 102.5t112.5 20.5t95.5 -54.5q39 -39 43.5 -100t-32 -128.5t-109.5 -117.5q-30 -22 -49.5 -13t-29 33t-9.5 58q0 23 6.5 48t12.5 38.5t8 13.5q51 -27 94 -17t57 52q20 61 -20 104q-91 91 -179 -49q-85 -135 -192 -530l-37 -131q68 3 131.5 8.5t92.5 9.5l30 4
q37 -62 17.5 -113.5t-74.5 -60.5zM217 -27q50 23 86 93q-80 59 -151.5 57t-94.5 -57q-17 -40 3 -72t61.5 -38t95.5 17z" />
    <glyph glyph-name="lslash" unicode="&#x142;" horiz-adv-x="364" 
d="M29 393l73 309q-73 -14 -98 -12q-52 0 -49 13q0 5 10 10q94 43 158 78l119 512q30 3 73 -8.5t74.5 -36t24.5 -52.5q-63 -239 -74 -284q34 23 64 45t44 33l13 10q34 -18 49.5 -47t10 -57t-28.5 -48q-35 -32 -191 -92l-119 -508q-31 -133 6 -155q24 -15 56 24l10 14
q26 40 49 85t38.5 81.5t57.5 134.5q36 86 45 68q2 -5 2 -18q0 -26 -30 -93q-43 -105 -69.5 -159t-72.5 -129q-58 -93 -132 -109q-71 -16 -111 53q-60 105 -2 338z" />
    <glyph glyph-name="Nacute" unicode="&#x143;" horiz-adv-x="854" 
d="M516 350l139 543q91 336 40 302q-20 -14 -64 -89q-75 -130 -234.5 -537t-199.5 -569q-6 -15 -11 -20v-5q-22 -4 -40.5 -4.5t-39 3.5t-34.5 18t-23.5 35.5t-8.5 58t13 84.5q153 651 189 795q65 250 28 281q-24 20 -76 -66q0 -1 -1 -2q-37 -59 -65.5 -118.5t-80.5 -182.5
q-32 -72 -42 -71q-5 0 -5 19q0 30 29 95q45 110 71 164t70 124q63 100 140 112q71 12 110 -55q58 -101 2 -306q-2 -7 -4 -13q-83 -284 -139 -540q82 213 175.5 427t145.5 308q64 116 142 162q77 47 113 -16q56 -100 -24 -417l-139 -540q-63 -249 -26 -279q24 -20 77 68
q59 98 146 301q32 76 43 70q4 -5 4 -21q0 -19 -29 -92q-46 -111 -72.5 -164.5t-70.5 -124.5q-63 -100 -139 -113q-70 -12 -108 56q-59 104 -2 316q1 2 1 3zM881 1419q-52 -23 -185 -35.5t-213 -9.5q-55 3 -63 22q-5 9 12 13q122 34 220.5 78.5t136.5 72.5l38 27
q24 -19 46.5 -53.5t28.5 -67.5t-21 -47z" />
    <glyph glyph-name="nacute" unicode="&#x144;" 
d="M-29 193q50 212 81 362.5t36 194.5l6 45q92 0 136 -29.5t26 -97.5q-5 -21 -34 -142.5t-62 -263.5q91 211 192 373q75 118 150 160q81 45 108 -34q37 -107 -39 -407q-64 -252 -26 -281q23 -18 75 66q0 1 1 2q59 94 145 301q31 70 41 71q6 0 6 -21q0 -20 -29 -93
q-44 -109 -70.5 -162.5t-72.5 -125.5q-63 -100 -139 -113q-70 -12 -108 56q-58 104 0 315l1 4q86 315 54 314q-16 0 -74 -87q-67 -99 -149 -280.5t-109 -296.5q-4 -14 -8 -19.5t-9 -3.5q-25 -5 -46.5 -4.5t-44.5 9.5t-34 31t-15 60.5t11 96.5zM635 948q-52 -23 -184.5 -35.5
t-212.5 -9.5q-55 4 -64 22q-4 9 12 13q122 34 221 78.5t137 71.5l38 28q24 -19 46.5 -53.5t28 -67.5t-21.5 -47z" />
    <glyph glyph-name="Ncommaaccent" unicode="&#x145;" horiz-adv-x="854" 
d="M516 350l139 543q91 336 40 302q-20 -14 -64 -89q-75 -130 -234.5 -537t-199.5 -569q-6 -15 -11 -20v-5q-22 -4 -40.5 -4.5t-39 3.5t-34.5 18t-23.5 35.5t-8.5 58t13 84.5q153 651 189 795q65 250 28 281q-24 20 -76 -66q0 -1 -1 -2q-37 -59 -65.5 -118.5t-80.5 -182.5
q-32 -72 -42 -71q-5 0 -5 19q0 30 29 95q45 110 71 164t70 124q63 100 140 112q71 12 110 -55q58 -101 2 -306q-2 -7 -4 -13q-83 -284 -139 -540q82 213 175.5 427t145.5 308q64 116 142 162q77 47 113 -16q56 -100 -24 -417l-139 -540q-63 -249 -26 -279q24 -20 77 68
q59 98 146 301q32 76 43 70q4 -5 4 -21q0 -19 -29 -92q-46 -111 -72.5 -164.5t-70.5 -124.5q-63 -100 -139 -113q-70 -12 -108 56q-59 104 -2 316q1 2 1 3zM393 -262v4q-85 -4 -124.5 34t-20.5 97q14 46 67 63t103 -2q44 -16 62.5 -56t0.5 -103q-23 -77 -89 -117.5
t-146 -32.5q0 3 -1 10t6 14.5t21 8.5q108 14 121 80z" />
    <glyph glyph-name="ncommaaccent" unicode="&#x146;" 
d="M-29 193q50 212 81 362.5t36 194.5l6 45q92 0 136 -29.5t26 -97.5q-5 -21 -34 -142.5t-62 -263.5q91 211 192 373q75 118 150 160q81 45 108 -34q37 -107 -39 -407q-64 -252 -26 -281q23 -18 75 66q0 1 1 2q59 94 145 301q31 70 41 71q6 0 6 -21q0 -20 -29 -93
q-44 -109 -70.5 -162.5t-72.5 -125.5q-63 -100 -139 -113q-70 -12 -108 56q-58 104 0 315l1 4q86 315 54 314q-16 0 -74 -87q-67 -99 -149 -280.5t-109 -296.5q-4 -14 -8 -19.5t-9 -3.5q-25 -5 -46.5 -4.5t-44.5 9.5t-34 31t-15 60.5t11 96.5zM332 -262v4q-85 -4 -125 34
t-21 97q14 46 67 63t103 -2q44 -16 63 -56t1 -103q-23 -77 -89 -117.5t-147 -32.5q0 3 -0.5 10t6.5 14.5t21 8.5q108 14 121 80z" />
    <glyph glyph-name="Ncaron" unicode="&#x147;" horiz-adv-x="854" 
d="M516 350l139 543q91 336 40 302q-20 -14 -64 -89q-75 -130 -234.5 -537t-199.5 -569q-6 -15 -11 -20v-5q-22 -4 -40.5 -4.5t-39 3.5t-34.5 18t-23.5 35.5t-8.5 58t13 84.5q153 651 189 795q65 250 28 281q-24 20 -76 -66q0 -1 -1 -2q-37 -59 -65.5 -118.5t-80.5 -182.5
q-32 -72 -42 -71q-5 0 -5 19q0 30 29 95q45 110 71 164t70 124q63 100 140 112q71 12 110 -55q58 -101 2 -306q-2 -7 -4 -13q-83 -284 -139 -540q82 213 175.5 427t145.5 308q64 116 142 162q77 47 113 -16q56 -100 -24 -417l-139 -540q-63 -249 -26 -279q24 -20 77 68
q59 98 146 301q32 76 43 70q4 -5 4 -21q0 -19 -29 -92q-46 -111 -72.5 -164.5t-70.5 -124.5q-63 -100 -139 -113q-70 -12 -108 56q-59 104 -2 316q1 2 1 3zM618 1329q-1 0 -2 3t-2.5 8t-3.5 8q-8 20 -22.5 43.5t-43 57t-78.5 70t-114 66.5q-17 7 -7 21q13 19 54 8
q47 -13 104 -48.5t103 -76.5q48 40 134 64t169 20q47 -2 56 -21q5 -10 -9 -14q-74 -24 -138 -57t-104 -64t-61.5 -51t-31.5 -33z" />
    <glyph glyph-name="ncaron" unicode="&#x148;" 
d="M-29 193q50 212 81 362.5t36 194.5l6 45q92 0 136 -29.5t26 -97.5q-5 -21 -34 -142.5t-62 -263.5q91 211 192 373q75 118 150 160q81 45 108 -34q37 -107 -39 -407q-64 -252 -26 -281q23 -18 75 66q0 1 1 2q59 94 145 301q31 70 41 71q6 0 6 -21q0 -20 -29 -93
q-44 -109 -70.5 -162.5t-72.5 -125.5q-63 -100 -139 -113q-70 -12 -108 56q-58 104 0 315l1 4q86 315 54 314q-16 0 -74 -87q-67 -99 -149 -280.5t-109 -296.5q-4 -14 -8 -19.5t-9 -3.5q-25 -5 -46.5 -4.5t-44.5 9.5t-34 31t-15 60.5t11 96.5zM391 838q-1 0 -2 2.5t-2.5 7.5
t-3.5 8q-8 20 -22.5 43.5t-43 57.5t-78.5 70.5t-114 66.5q-17 7 -7 21q13 18 54 7q47 -13 104 -48.5t103 -76.5q48 40 134 64t169 20q47 -2 56 -21q5 -9 -9 -13q-74 -24 -138.5 -57t-104.5 -64t-61.5 -51t-31.5 -33z" />
    <glyph glyph-name="napostrophe" unicode="&#x149;" 
d="M-29 193q50 212 81 362.5t36 194.5l6 45q92 0 136 -29.5t26 -97.5q-5 -21 -34 -142.5t-62 -263.5q91 211 192 373q75 118 150 160q81 45 108 -34q37 -107 -39 -407q-64 -252 -26 -281q23 -18 75 66q0 1 1 2q59 94 145 301q31 70 41 71q6 0 6 -21q0 -20 -29 -93
q-44 -109 -70.5 -162.5t-72.5 -125.5q-63 -100 -139 -113q-70 -12 -108 56q-58 104 0 315l1 4q86 315 54 314q-16 0 -74 -87q-67 -99 -149 -280.5t-109 -296.5q-4 -14 -8 -19.5t-9 -3.5q-25 -5 -46.5 -4.5t-44.5 9.5t-34 31t-15 60.5t11 96.5zM354 977v4q-85 -4 -124.5 34
t-20.5 97q15 46 67 63.5t103 -1.5q44 -16 62.5 -56.5t0.5 -103.5q-23 -77 -89 -117.5t-146 -32.5q0 3 -1 10t6 14.5t21 8.5q108 14 121 80z" />
    <glyph glyph-name="Omacron" unicode="&#x14c;" horiz-adv-x="792" 
d="M641 1329q65 -14 94.5 -63t12.5 -131q59 -56 69 -178.5t-39 -321.5q-68 -252 -196 -434q79 -16 147.5 46t118.5 173q31 69 41 70q6 1 6 -21q0 -27 -29 -92q-19 -43 -50 -84.5t-72 -76.5t-92.5 -51.5t-102.5 -4.5q-149 -186 -303 -174q-110 9 -172.5 91t-71 233.5
t48.5 369.5q39 148 96.5 267.5t119.5 194.5t130 123t129 62.5t115 1.5zM596 1171q72 16 121 -14q1 62 -28.5 99t-76.5 47q-90 17 -194 -155t-191 -489q-76 -295 -60.5 -451.5t109.5 -164.5q80 -6 170 170l-22 23q-49 50 -75.5 137.5t-28 185.5t17.5 202t54.5 189.5t89 146.5
t114.5 74zM584 1114q-75 -18 -129.5 -131t-73 -249.5t1 -270.5t78.5 -191l10 -10q66 148 137 375q151 490 -2 481q-10 -1 -22 -4zM793 1368q-71 -12 -195 18t-203 78q-65 41 -39 47q4 1 11 0q185 -14 292.5 -7t148.5 24l42 16q36 -62 17 -113.5t-74 -62.5z" />
    <glyph glyph-name="omacron" unicode="&#x14d;" horiz-adv-x="679" 
d="M453 795q109 -28 112 -142q41 -40 52.5 -110t-11.5 -164q-15 -59 -39 -111q136 14 207 174q33 70 42 71q6 0 7 -21q0 -26 -30 -93q-34 -78 -100 -121.5t-144 -48.5q-60 -112 -151.5 -171t-204.5 -50q-120 11 -167.5 132.5t-0.5 301.5q21 80 53 144t68.5 102.5t78 66
t81 36t78.5 11.5t69 -7zM465 696q31 0 55 -12q-22 68 -94 82q-55 11 -116 -78.5t-109 -265.5q-39 -149 -32.5 -252.5t54.5 -103.5q35 0 82.5 51.5t87.5 146.5q-28 20 -41 33q-51 48 -66.5 118t2 131.5t65 105.5t112.5 44zM377 336q11 -11 35 -27l24 72q81 262 6 262
q-65 0 -97.5 -60t-22.5 -134t55 -113zM573 877q-71 -12 -194.5 18t-202.5 78q-67 42 -39 47h10q185 -14 293 -7t150 23l41 17q36 -62 16.5 -113.5t-74.5 -62.5z" />
    <glyph glyph-name="Obreve" unicode="&#x14e;" horiz-adv-x="792" 
d="M641 1329q65 -14 94.5 -63t12.5 -131q59 -56 69 -178.5t-39 -321.5q-68 -252 -196 -434q79 -16 147.5 46t118.5 173q31 69 41 70q6 1 6 -21q0 -27 -29 -92q-19 -43 -50 -84.5t-72 -76.5t-92.5 -51.5t-102.5 -4.5q-149 -186 -303 -174q-110 9 -172.5 91t-71 233.5
t48.5 369.5q39 148 96.5 267.5t119.5 194.5t130 123t129 62.5t115 1.5zM596 1171q72 16 121 -14q1 62 -28.5 99t-76.5 47q-90 17 -194 -155t-191 -489q-76 -295 -60.5 -451.5t109.5 -164.5q80 -6 170 170l-22 23q-49 50 -75.5 137.5t-28 185.5t17.5 202t54.5 189.5t89 146.5
t114.5 74zM584 1114q-75 -18 -129.5 -131t-73 -249.5t1 -270.5t78.5 -191l10 -10q66 148 137 375q151 490 -2 481q-10 -1 -22 -4zM360 1659q2 2 4.5 6t10 11.5t14 10.5t14 -1t11.5 -19q17 -58 70 -93.5t130 -39.5q72 -4 127 31t86 96q0 3 18 11q28 12 25 -12v-3
q-6 -35 -29.5 -78.5t-59.5 -84t-88.5 -67t-106.5 -22.5q-60 4 -108 44.5t-74.5 92.5t-43.5 117z" />
    <glyph glyph-name="obreve" unicode="&#x14f;" horiz-adv-x="679" 
d="M453 795q109 -28 112 -142q41 -40 52.5 -110t-11.5 -164q-15 -59 -39 -111q136 14 207 174q33 70 42 71q6 0 7 -21q0 -26 -30 -93q-34 -78 -100 -121.5t-144 -48.5q-60 -112 -151.5 -171t-204.5 -50q-120 11 -167.5 132.5t-0.5 301.5q21 80 53 144t68.5 102.5t78 66
t81 36t78.5 11.5t69 -7zM465 696q31 0 55 -12q-22 68 -94 82q-55 11 -116 -78.5t-109 -265.5q-39 -149 -32.5 -252.5t54.5 -103.5q35 0 82.5 51.5t87.5 146.5q-28 20 -41 33q-51 48 -66.5 118t2 131.5t65 105.5t112.5 44zM377 336q11 -11 35 -27l24 72q81 262 6 262
q-65 0 -97.5 -60t-22.5 -134t55 -113zM164 1141q2 2 4.5 6t9.5 11.5t13.5 10.5t14 -1t11.5 -19q17 -57 70.5 -93t130.5 -40q72 -4 127 31t86 96q0 3 18 11q28 12 25 -12v-3q-6 -35 -29.5 -78.5t-60 -84t-89 -67t-106.5 -22.5q-46 3 -84 26t-65 60.5t-45 78.5t-31 89z" />
    <glyph glyph-name="Ohungarumlaut" unicode="&#x150;" horiz-adv-x="792" 
d="M641 1329q65 -14 94.5 -63t12.5 -131q59 -56 69 -178.5t-39 -321.5q-68 -252 -196 -434q79 -16 147.5 46t118.5 173q31 69 41 70q6 1 6 -21q0 -27 -29 -92q-19 -43 -50 -84.5t-72 -76.5t-92.5 -51.5t-102.5 -4.5q-149 -186 -303 -174q-110 9 -172.5 91t-71 233.5
t48.5 369.5q39 148 96.5 267.5t119.5 194.5t130 123t129 62.5t115 1.5zM596 1171q72 16 121 -14q1 62 -28.5 99t-76.5 47q-90 17 -194 -155t-191 -489q-76 -295 -60.5 -451.5t109.5 -164.5q80 -6 170 170l-22 23q-49 50 -75.5 137.5t-28 185.5t17.5 202t54.5 189.5t89 146.5
t114.5 74zM584 1114q-75 -18 -129.5 -131t-73 -249.5t1 -270.5t78.5 -191l10 -10q66 148 137 375q151 490 -2 481q-10 -1 -22 -4zM762 1665q-28 -52 -123.5 -148t-157.5 -139q-45 -34 -61 -22q-8 5 0 18q73 102 121 198.5t59 142.5l12 46q52 2 111 -28.5t39 -67.5z
M1014 1665q-27 -52 -122.5 -147.5t-156.5 -139.5q-47 -34 -63 -22q-7 5 2 18q72 102 119.5 198.5t58.5 142.5l12 46q31 1 71 -11t66 -36t13 -49z" />
    <glyph glyph-name="ohungarumlaut" unicode="&#x151;" horiz-adv-x="679" 
d="M453 795q109 -28 112 -142q41 -40 52.5 -110t-11.5 -164q-15 -59 -39 -111q136 14 207 174q33 70 42 71q6 0 7 -21q0 -26 -30 -93q-34 -78 -100 -121.5t-144 -48.5q-60 -112 -151.5 -171t-204.5 -50q-120 11 -167.5 132.5t-0.5 301.5q21 80 53 144t68.5 102.5t78 66
t81 36t78.5 11.5t69 -7zM465 696q31 0 55 -12q-22 68 -94 82q-55 11 -116 -78.5t-109 -265.5q-39 -149 -32.5 -252.5t54.5 -103.5q35 0 82.5 51.5t87.5 146.5q-28 20 -41 33q-51 48 -66.5 118t2 131.5t65 105.5t112.5 44zM377 336q11 -11 35 -27l24 72q81 262 6 262
q-65 0 -97.5 -60t-22.5 -134t55 -113zM438 1174q-28 -52 -123 -148t-157 -139q-44 -33 -62 -22q-8 5 0 18q73 102 121 198.5t60 142.5l12 46q52 2 110.5 -28.5t38.5 -67.5zM690 1174q-27 -52 -122 -147.5t-156 -139.5q-46 -33 -63 -22q-8 5 1 18q45 64 81.5 127.5t56 108.5
t32.5 80.5t17 52.5l4 18q31 1 71 -11t65.5 -35.5t12.5 -49.5z" />
    <glyph glyph-name="OE" unicode="&#x152;" horiz-adv-x="1523" 
d="M1030 676h-16q-240 -7 -330 -346q-34 -131 21.5 -213t162.5 -82q102 0 210 96.5t179 267.5q32 77 43 70q5 -2 5 -20q0 -21 -29 -93q-69 -169 -204.5 -284t-274.5 -115q-95 0 -170.5 42.5t-110.5 119.5q-135 -145 -270 -133q-110 9 -172.5 91t-71 233.5t48.5 369.5
q39 148 96.5 267.5t119.5 194.5t130 123t129 62.5t115 1.5q65 -14 94.5 -63t12.5 -131q4 0 4 -5q49 86 129 135.5t160 57t152.5 -12.5t115.5 -63q39 -39 43.5 -115t-33 -160t-109.5 -134q-43 -30 -67.5 8.5t-24.5 105.5q0 22 7.5 53.5t15 52.5t8.5 21q51 -27 94 -17t57 52
q20 63 -20 103q-56 56 -136 58t-156 -62.5t-109 -184.5q-22 -89 -19.5 -158.5t40.5 -113.5t108 -47h12q19 0 27 -2q43 -2 41 -13q-2 -12 -46 -17zM596 1171q72 16 121 -14q1 62 -28.5 99t-76.5 47q-90 17 -194 -155t-191 -489q-76 -295 -60.5 -451.5t109.5 -164.5
q80 -6 170 170l-22 23q-49 50 -75.5 137.5t-28 185.5t17.5 202t54.5 189.5t89 146.5t114.5 74zM508 352q11 44 37 92l63 193q151 490 -2 481q-10 -1 -22 -4q-75 -18 -129.5 -131t-73 -249.5t1 -270.5t78.5 -191l10 -10l31 74zM803 741l-21 -86q56 26 117 39q-55 19 -96 47z
" />
    <glyph glyph-name="oe" unicode="&#x153;" horiz-adv-x="1017" 
d="M455 795q99 -26 110 -115q49 61 110 94t117 36t104.5 -12t80.5 -46q19 -20 21.5 -54.5t-10.5 -77t-44.5 -91.5t-76.5 -97t-110.5 -95t-142.5 -83q6 -81 40 -128.5t89 -47.5q158 0 310 364q36 86 45 68q2 -5 2 -18q0 -20 -29 -93q-33 -81 -73 -149.5t-89.5 -126
t-110 -90.5t-124.5 -33q-65 0 -116.5 32.5t-82.5 92.5q-116 -129 -282 -117q-119 11 -167 133t-1 303q18 69 45 125.5t56.5 95t64.5 66.5t69 43.5t69.5 22.5t66 6t59.5 -8zM467 696q28 0 55 -10q-22 66 -94 80q-56 11 -116.5 -78t-108.5 -266q-41 -149 -34.5 -252.5
t56.5 -103.5q35 0 81.5 51t88.5 147q-27 17 -43 33q-51 48 -66 118t2.5 131.5t65.5 105.5t113 44zM635 432q-21 -76 -21 -141q71 37 126 89.5t83.5 105t43.5 101.5t13 84.5t-16 49.5q-14 15 -31.5 20t-41.5 -6.5t-48.5 -42.5t-53 -97.5t-54.5 -162.5zM453 432l6 21q0 4 2 6
q47 184 -17 184q-66 0 -99 -60t-23 -134t55 -113q18 -18 37 -29l24 74z" />
    <glyph glyph-name="Racute" unicode="&#x154;" horiz-adv-x="827" 
d="M12 170q50 212 110 457.5t95 384.5l35 139q90 0 134 -29.5t26 -97.5q-4 -17 -41 -145.5t-82.5 -295.5t-73.5 -282q107 21 205 112t158.5 209t78.5 234q30 194 -41.5 287.5t-224.5 68.5q-96 -14 -173 -66t-140 -157q-10 -17 -30 -6q-11 6 -7 12q135 263 405 308
q98 15 180 -9.5t135.5 -80.5t76.5 -143t6 -193q-22 -141 -115.5 -270t-224.5 -218q117 -4 117 -8q-32 -208 -3 -289q26 -73 91 20q9 12 18 27q55 92 145 301q32 76 43 70q5 -5 5 -21q0 -19 -29 -92q-46 -110 -72.5 -163.5t-70.5 -124.5q-93 -147 -184 -135q-69 9 -109 106
q-43 105 -27 254q-45 -25 -111 -41q-4 -2 -8 -2q-57 -20 -102 -25l-6 -30l-56 -261q-21 -4 -39.5 -4.5t-38.5 3.5t-34 18t-23.5 35.5t-9 58t11.5 84.5zM760 1409q-52 -23 -185 -35.5t-213 -9.5q-55 3 -63 22q-5 9 12 13q122 34 221 78.5t137 72.5l38 27q24 -19 46.5 -53.5
t28 -67.5t-21.5 -47z" />
    <glyph glyph-name="racute" unicode="&#x155;" horiz-adv-x="581" 
d="M-29 193q50 212 81.5 362.5t37.5 194.5l6 45q90 0 134 -29.5t26 -97.5q-41 -167 -82 -344q66 175 150 311q64 103 144.5 153.5t117 1.5t-14.5 -241q-8 -33 -34.5 -50.5t-53.5 -15.5q-20 2 -39.5 13.5t-29 22t-8.5 13.5q51 129 24 146q-20 13 -62 -42l-24 -36
q-57 -96 -127 -275.5t-100 -301.5q-4 -14 -8 -19.5t-9 -3.5q-25 -5 -46.5 -4.5t-44 9.5t-33.5 31t-15.5 60.5t10.5 96.5zM592 989q-52 -23 -184.5 -35.5t-212.5 -9.5q-55 4 -64 22q-4 9 12 13q122 34 221 78.5t137 72.5l38 27q24 -19 46.5 -53.5t28 -67.5t-21.5 -47z" />
    <glyph glyph-name="Rcommaaccent" unicode="&#x156;" horiz-adv-x="827" 
d="M12 170q50 212 110 457.5t95 384.5l35 139q90 0 134 -29.5t26 -97.5q-4 -17 -41 -145.5t-82.5 -295.5t-73.5 -282q107 21 205 112t158.5 209t78.5 234q30 194 -41.5 287.5t-224.5 68.5q-96 -14 -173 -66t-140 -157q-10 -17 -30 -6q-11 6 -7 12q135 263 405 308
q98 15 180 -9.5t135.5 -80.5t76.5 -143t6 -193q-22 -141 -115.5 -270t-224.5 -218q117 -4 117 -8q-32 -208 -3 -289q26 -73 91 20q9 12 18 27q55 92 145 301q32 76 43 70q5 -5 5 -21q0 -19 -29 -92q-46 -110 -72.5 -163.5t-70.5 -124.5q-93 -147 -184 -135q-69 9 -109 106
q-43 105 -27 254q-45 -25 -111 -41q-4 -2 -8 -2q-57 -20 -102 -25l-6 -30l-56 -261q-21 -4 -39.5 -4.5t-38.5 3.5t-34 18t-23.5 35.5t-9 58t11.5 84.5zM350 -266v4q-85 -4 -124.5 34t-20.5 97q14 46 67 63t103 -2q44 -16 62.5 -56t0.5 -103q-23 -77 -89 -117.5t-146 -32.5
q0 3 -1 10t6 14.5t21 8.5q108 14 121 80z" />
    <glyph glyph-name="rcommaaccent" unicode="&#x157;" horiz-adv-x="581" 
d="M-29 193q50 212 81.5 362.5t37.5 194.5l6 45q90 0 134 -29.5t26 -97.5q-41 -167 -82 -344q66 175 150 311q64 103 144.5 153.5t117 1.5t-14.5 -241q-8 -33 -34.5 -50.5t-53.5 -15.5q-20 2 -39.5 13.5t-29 22t-8.5 13.5q51 129 24 146q-20 13 -62 -42l-24 -36
q-57 -96 -127 -275.5t-100 -301.5q-4 -14 -8 -19.5t-9 -3.5q-25 -5 -46.5 -4.5t-44 9.5t-33.5 31t-15.5 60.5t10.5 96.5zM203 -303v4q-85 -4 -125 34t-21 97q15 46 67 63.5t103 -1.5q44 -16 63 -56.5t1 -103.5q-23 -77 -89 -117.5t-147 -32.5q0 3 -0.5 10t6.5 14.5t21 8.5
q108 14 121 80z" />
    <glyph glyph-name="Rcaron" unicode="&#x158;" horiz-adv-x="827" 
d="M12 170q50 212 110 457.5t95 384.5l35 139q90 0 134 -29.5t26 -97.5q-4 -17 -41 -145.5t-82.5 -295.5t-73.5 -282q107 21 205 112t158.5 209t78.5 234q30 194 -41.5 287.5t-224.5 68.5q-96 -14 -173 -66t-140 -157q-10 -17 -30 -6q-11 6 -7 12q135 263 405 308
q98 15 180 -9.5t135.5 -80.5t76.5 -143t6 -193q-22 -141 -115.5 -270t-224.5 -218q117 -4 117 -8q-32 -208 -3 -289q26 -73 91 20q9 12 18 27q55 92 145 301q32 76 43 70q5 -5 5 -21q0 -19 -29 -92q-46 -110 -72.5 -163.5t-70.5 -124.5q-93 -147 -184 -135q-69 9 -109 106
q-43 105 -27 254q-45 -25 -111 -41q-4 -2 -8 -2q-57 -20 -102 -25l-6 -30l-56 -261q-21 -4 -39.5 -4.5t-38.5 3.5t-34 18t-23.5 35.5t-9 58t11.5 84.5zM575 1346q-1 0 -2 2.5t-2.5 7.5t-3.5 8q-8 20 -22.5 43.5t-43 57.5t-78.5 70.5t-114 66.5q-17 7 -7 21q13 18 54 7
q47 -13 104 -48.5t103 -76.5q48 40 134 64t169 20q47 -2 56 -21q5 -10 -9 -14q-74 -24 -138 -57t-104 -64t-61.5 -50.5t-31.5 -32.5z" />
    <glyph glyph-name="rcaron" unicode="&#x159;" horiz-adv-x="581" 
d="M-29 193q50 212 81.5 362.5t37.5 194.5l6 45q90 0 134 -29.5t26 -97.5q-41 -167 -82 -344q66 175 150 311q64 103 144.5 153.5t117 1.5t-14.5 -241q-8 -33 -34.5 -50.5t-53.5 -15.5q-20 2 -39.5 13.5t-29 22t-8.5 13.5q51 129 24 146q-20 13 -62 -42l-24 -36
q-57 -96 -127 -275.5t-100 -301.5q-4 -14 -8 -19.5t-9 -3.5q-25 -5 -46.5 -4.5t-44 9.5t-33.5 31t-15.5 60.5t10.5 96.5zM362 817q-1 0 -2 3t-2.5 8t-3.5 8q-8 20 -22.5 43.5t-43 57t-78.5 70t-114 66.5q-17 7 -7 21q13 19 54 8q47 -13 104 -48.5t103 -76.5q48 40 134 64
t169 20q47 -2 56 -21q5 -10 -9 -14q-74 -24 -138 -57t-104 -64t-61.5 -51t-31.5 -33z" />
    <glyph glyph-name="Sacute" unicode="&#x15a;" horiz-adv-x="749" 
d="M680 268q-15 -76 -51 -138t-83 -101t-102.5 -63.5t-111 -30t-107.5 4t-92 33.5q-67 41 -101.5 116.5t-29.5 159.5t67 168t175 136q48 24 73 -14t25 -115q0 -30 -9 -59.5t-19 -43.5l-9 -14q-41 25 -63 27q-57 10 -101 -24.5t-58.5 -86t4.5 -110.5t75 -93q52 -34 107 -29
t102.5 34.5t83 91t49.5 141.5q11 70 -4 130.5t-47.5 107t-73 90t-81.5 89t-72.5 94.5t-45.5 115.5t-2 143.5q13 77 59.5 144.5t110.5 106.5t139 49.5t144 -25.5q87 -43 117 -127t-10 -174t-142 -144q-47 -24 -67.5 1t-20.5 79q0 22 6 47t12 39l6 14q51 -27 93.5 -16.5
t60.5 51.5q10 21 10 49.5t-9.5 57.5t-33 53.5t-57.5 34.5q-91 27 -174.5 -38.5t-95.5 -180.5q-4 -44 8 -85t36 -73.5t56 -66.5t67 -65t68.5 -69t61.5 -78.5t46.5 -93t22 -112.5t-11.5 -138zM766 1423q-52 -23 -184.5 -35.5t-212.5 -9.5q-55 4 -64 22q-4 9 12 13
q122 34 221 78.5t137 72.5l38 27q24 -19 46.5 -53.5t28 -67.5t-21.5 -47z" />
    <glyph glyph-name="sacute" unicode="&#x15b;" horiz-adv-x="557" 
d="M197 766q203 -170 258 -322q66 28 168 60q6 2 13 -10q10 -15 -9 -21q-86 -27 -162 -59q24 -86 6 -178q-20 -93 -86.5 -157t-144.5 -84t-144 -1q-37 10 -62.5 40.5t-31.5 68.5t16 83t72 80q82 57 213 115q-14 168 -145 285q-52 -143 -131 -332q-26 -65 -45 -84
q-23 -22 -21 -2q2 18 23 69q88 208 145 373l-12 10q-58 42 -63 118t42 112q25 20 63.5 21t64.5 -8l26 -9l-55 -166zM295 262q8 33 8 82q-119 -56 -176 -98q-43 -30 -62.5 -65.5t-16.5 -64.5t23.5 -51t53.5 -28q57 -13 102 55t68 170zM573 1067q-52 -23 -184.5 -35.5
t-212.5 -9.5q-55 3 -63 22q-5 9 12 13q122 34 220.5 78.5t136.5 72.5l38 27q24 -19 46.5 -53.5t28 -67.5t-21.5 -47z" />
    <glyph glyph-name="Scircumflex" unicode="&#x15c;" horiz-adv-x="749" 
d="M680 268q-15 -76 -51 -138t-83 -101t-102.5 -63.5t-111 -30t-107.5 4t-92 33.5q-67 41 -101.5 116.5t-29.5 159.5t67 168t175 136q48 24 73 -14t25 -115q0 -30 -9 -59.5t-19 -43.5l-9 -14q-41 25 -63 27q-57 10 -101 -24.5t-58.5 -86t4.5 -110.5t75 -93q52 -34 107 -29
t102.5 34.5t83 91t49.5 141.5q11 70 -4 130.5t-47.5 107t-73 90t-81.5 89t-72.5 94.5t-45.5 115.5t-2 143.5q13 77 59.5 144.5t110.5 106.5t139 49.5t144 -25.5q87 -43 117 -127t-10 -174t-142 -144q-47 -24 -67.5 1t-20.5 79q0 22 6 47t12 39l6 14q51 -27 93.5 -16.5
t60.5 51.5q10 21 10 49.5t-9.5 57.5t-33 53.5t-57.5 34.5q-91 27 -174.5 -38.5t-95.5 -180.5q-4 -44 8 -85t36 -73.5t56 -66.5t67 -65t68.5 -69t61.5 -78.5t46.5 -93t22 -112.5t-11.5 -138zM584 1612l4 -13q6 -18 20 -41t42 -58t80 -73.5t118 -70.5q17 -7 7 -21
q-14 -18 -52 -8q-96 25 -211 125q-48 -40 -134 -64t-167 -20q-47 4 -56 22q-2 9 9 13q211 68 334 201q4 8 6 8z" />
    <glyph glyph-name="scircumflex" unicode="&#x15d;" horiz-adv-x="557" 
d="M197 766q203 -170 258 -322q66 28 168 60q6 2 13 -10q10 -15 -9 -21q-86 -27 -162 -59q24 -86 6 -178q-20 -93 -86.5 -157t-144.5 -84t-144 -1q-37 10 -62.5 40.5t-31.5 68.5t16 83t72 80q82 57 213 115q-14 168 -145 285q-52 -143 -131 -332q-26 -65 -45 -84
q-23 -22 -21 -2q2 18 23 69q88 208 145 373l-12 10q-58 42 -63 118t42 112q25 20 63.5 21t64.5 -8l26 -9l-55 -166zM295 262q8 33 8 82q-119 -56 -176 -98q-43 -30 -62.5 -65.5t-16.5 -64.5t23.5 -51t53.5 -28q57 -13 102 55t68 170zM317 1229l5 -12q6 -18 20 -41t42 -58
t80 -74t118 -71q17 -7 7 -21q-14 -18 -52 -8q-96 25 -211 125q-48 -40 -134 -64t-167 -20q-48 4 -57 22q-4 10 9 13q211 68 334 201q4 8 6 8z" />
    <glyph glyph-name="Scedilla" unicode="&#x15e;" horiz-adv-x="749" 
d="M680 268q-22 -112 -87.5 -190.5t-144.5 -111.5t-163 -32l-41 -86q98 32 170 -3t51 -111q-14 -50 -51 -90t-84.5 -62.5t-87.5 -35t-78 -17.5q-2 1 -5 3t-8.5 7t-7 9.5t5 9.5t23.5 8q60 9 108 52t66 97q18 56 -14 80.5t-109 3.5q-3 0 -6.5 0.5t-11 3t-8 8.5t1.5 17l49 109
q-66 6 -115 36q-67 41 -101.5 116.5t-29.5 159.5t67 168t175 136q48 24 73 -14t25 -115q0 -30 -9 -59.5t-19 -43.5l-9 -14q-41 25 -63 27q-57 10 -101 -24.5t-58.5 -86t4.5 -110.5t75 -93q52 -34 107 -29t102.5 34.5t83 91t49.5 141.5q11 70 -4 130.5t-47.5 107t-73 90
t-81.5 89t-72.5 94.5t-45.5 115.5t-2 143.5q13 77 59.5 144.5t110.5 106.5t139 49.5t144 -25.5q87 -43 117 -127t-10 -174t-142 -144q-47 -24 -67.5 1t-20.5 79q0 22 6 47t12 39l6 14q51 -27 93.5 -16.5t60.5 51.5q10 21 10 49.5t-9.5 57.5t-33 53.5t-57.5 34.5
q-91 27 -174.5 -38.5t-95.5 -180.5q-4 -44 8 -85t36 -73.5t56 -66.5t67 -65t68.5 -69t61.5 -78.5t46.5 -93t22 -112.5t-11.5 -138z" />
    <glyph glyph-name="scedilla" unicode="&#x15f;" horiz-adv-x="557" 
d="M197 766q203 -170 258 -322q66 28 168 60q6 2 13 -10q10 -15 -9 -21q-86 -27 -162 -59q24 -86 6 -178q-22 -98 -91 -160.5t-155 -81.5l-26 -55q98 32 170 -3.5t51 -111.5q-14 -50 -51 -90t-84.5 -62.5t-87.5 -35t-78 -17.5q-2 1 -5 3t-8.5 7t-7 9.5t5 9.5t23.5 8
q60 9 108 52t66 97q18 56 -14 80.5t-109 3.5q-3 0 -6.5 0.5t-11 3t-8 8.5t1.5 17l30 68q-50 -3 -88 8q-37 10 -62.5 40.5t-31.5 68.5t16 83t72 80q82 57 213 115q-14 168 -145 285q-52 -143 -131 -332q-26 -65 -45 -84q-23 -22 -21 -2q2 18 23 69q88 208 145 373l-12 10
q-58 42 -63 118t42 112q25 20 63.5 21t64.5 -8l26 -9l-55 -166zM295 262q8 33 8 82q-119 -56 -176 -98q-43 -30 -62.5 -65.5t-16.5 -64.5t23.5 -51t53.5 -28q57 -13 102 55t68 170z" />
    </font>
</defs>
</svg>
